G04 #@! TF.GenerationSoftware,KiCad,Pcbnew,(5.0.0)*
G04 #@! TF.CreationDate,2018-07-28T16:03:29+09:00*
G04 #@! TF.ProjectId,sensor-transducer,73656E736F722D7472616E7364756365,rev?*
G04 #@! TF.SameCoordinates,Original*
G04 #@! TF.FileFunction,Legend,Top*
G04 #@! TF.FilePolarity,Positive*
%FSLAX46Y46*%
G04 Gerber Fmt 4.6, Leading zero omitted, Abs format (unit mm)*
G04 Created by KiCad (PCBNEW (5.0.0)) date 07/28/18 16:03:29*
%MOMM*%
%LPD*%
G01*
G04 APERTURE LIST*
%ADD10C,0.300000*%
%ADD11C,0.120000*%
%ADD12C,0.150000*%
%ADD13C,0.010000*%
G04 APERTURE END LIST*
D10*
X91944285Y-132758571D02*
X91944285Y-131258571D01*
X92515714Y-131258571D01*
X92658571Y-131330000D01*
X92730000Y-131401428D01*
X92801428Y-131544285D01*
X92801428Y-131758571D01*
X92730000Y-131901428D01*
X92658571Y-131972857D01*
X92515714Y-132044285D01*
X91944285Y-132044285D01*
X93730000Y-131258571D02*
X94015714Y-131258571D01*
X94158571Y-131330000D01*
X94301428Y-131472857D01*
X94372857Y-131758571D01*
X94372857Y-132258571D01*
X94301428Y-132544285D01*
X94158571Y-132687142D01*
X94015714Y-132758571D01*
X93730000Y-132758571D01*
X93587142Y-132687142D01*
X93444285Y-132544285D01*
X93372857Y-132258571D01*
X93372857Y-131758571D01*
X93444285Y-131472857D01*
X93587142Y-131330000D01*
X93730000Y-131258571D01*
X94872857Y-131258571D02*
X95230000Y-132758571D01*
X95515714Y-131687142D01*
X95801428Y-132758571D01*
X96158571Y-131258571D01*
X37314285Y-107358571D02*
X37314285Y-105858571D01*
X38028571Y-107358571D02*
X38028571Y-105858571D01*
X38885714Y-107358571D01*
X38885714Y-105858571D01*
X129310000Y-55058571D02*
X129595714Y-55058571D01*
X129738571Y-55130000D01*
X129881428Y-55272857D01*
X129952857Y-55558571D01*
X129952857Y-56058571D01*
X129881428Y-56344285D01*
X129738571Y-56487142D01*
X129595714Y-56558571D01*
X129310000Y-56558571D01*
X129167142Y-56487142D01*
X129024285Y-56344285D01*
X128952857Y-56058571D01*
X128952857Y-55558571D01*
X129024285Y-55272857D01*
X129167142Y-55130000D01*
X129310000Y-55058571D01*
X130595714Y-55058571D02*
X130595714Y-56272857D01*
X130667142Y-56415714D01*
X130738571Y-56487142D01*
X130881428Y-56558571D01*
X131167142Y-56558571D01*
X131310000Y-56487142D01*
X131381428Y-56415714D01*
X131452857Y-56272857D01*
X131452857Y-55058571D01*
X131952857Y-55058571D02*
X132810000Y-55058571D01*
X132381428Y-56558571D02*
X132381428Y-55058571D01*
X121328571Y-53490000D02*
X119828571Y-53490000D01*
X119828571Y-52918571D01*
X119900000Y-52775714D01*
X119971428Y-52704285D01*
X120114285Y-52632857D01*
X120328571Y-52632857D01*
X120471428Y-52704285D01*
X120542857Y-52775714D01*
X120614285Y-52918571D01*
X120614285Y-53490000D01*
X121257142Y-52061428D02*
X121328571Y-51847142D01*
X121328571Y-51490000D01*
X121257142Y-51347142D01*
X121185714Y-51275714D01*
X121042857Y-51204285D01*
X120900000Y-51204285D01*
X120757142Y-51275714D01*
X120685714Y-51347142D01*
X120614285Y-51490000D01*
X120542857Y-51775714D01*
X120471428Y-51918571D01*
X120400000Y-51990000D01*
X120257142Y-52061428D01*
X120114285Y-52061428D01*
X119971428Y-51990000D01*
X119900000Y-51918571D01*
X119828571Y-51775714D01*
X119828571Y-51418571D01*
X119900000Y-51204285D01*
X121328571Y-49775714D02*
X121328571Y-50632857D01*
X121328571Y-50204285D02*
X119828571Y-50204285D01*
X120042857Y-50347142D01*
X120185714Y-50490000D01*
X120257142Y-50632857D01*
X121328571Y-47990000D02*
X119828571Y-47990000D01*
X119828571Y-47418571D01*
X119900000Y-47275714D01*
X119971428Y-47204285D01*
X120114285Y-47132857D01*
X120328571Y-47132857D01*
X120471428Y-47204285D01*
X120542857Y-47275714D01*
X120614285Y-47418571D01*
X120614285Y-47990000D01*
X121257142Y-46561428D02*
X121328571Y-46347142D01*
X121328571Y-45990000D01*
X121257142Y-45847142D01*
X121185714Y-45775714D01*
X121042857Y-45704285D01*
X120900000Y-45704285D01*
X120757142Y-45775714D01*
X120685714Y-45847142D01*
X120614285Y-45990000D01*
X120542857Y-46275714D01*
X120471428Y-46418571D01*
X120400000Y-46490000D01*
X120257142Y-46561428D01*
X120114285Y-46561428D01*
X119971428Y-46490000D01*
X119900000Y-46418571D01*
X119828571Y-46275714D01*
X119828571Y-45918571D01*
X119900000Y-45704285D01*
X119971428Y-45132857D02*
X119900000Y-45061428D01*
X119828571Y-44918571D01*
X119828571Y-44561428D01*
X119900000Y-44418571D01*
X119971428Y-44347142D01*
X120114285Y-44275714D01*
X120257142Y-44275714D01*
X120471428Y-44347142D01*
X121328571Y-45204285D01*
X121328571Y-44275714D01*
X121328571Y-41775714D02*
X121328571Y-42490000D01*
X119828571Y-42490000D01*
X121185714Y-40418571D02*
X121257142Y-40490000D01*
X121328571Y-40704285D01*
X121328571Y-40847142D01*
X121257142Y-41061428D01*
X121114285Y-41204285D01*
X120971428Y-41275714D01*
X120685714Y-41347142D01*
X120471428Y-41347142D01*
X120185714Y-41275714D01*
X120042857Y-41204285D01*
X119900000Y-41061428D01*
X119828571Y-40847142D01*
X119828571Y-40704285D01*
X119900000Y-40490000D01*
X119971428Y-40418571D01*
X45177142Y-40577142D02*
X46377142Y-40577142D01*
X46377142Y-41034285D01*
X46320000Y-41148571D01*
X46262857Y-41205714D01*
X46148571Y-41262857D01*
X45977142Y-41262857D01*
X45862857Y-41205714D01*
X45805714Y-41148571D01*
X45748571Y-41034285D01*
X45748571Y-40577142D01*
X45234285Y-41720000D02*
X45177142Y-41891428D01*
X45177142Y-42177142D01*
X45234285Y-42291428D01*
X45291428Y-42348571D01*
X45405714Y-42405714D01*
X45520000Y-42405714D01*
X45634285Y-42348571D01*
X45691428Y-42291428D01*
X45748571Y-42177142D01*
X45805714Y-41948571D01*
X45862857Y-41834285D01*
X45920000Y-41777142D01*
X46034285Y-41720000D01*
X46148571Y-41720000D01*
X46262857Y-41777142D01*
X46320000Y-41834285D01*
X46377142Y-41948571D01*
X46377142Y-42234285D01*
X46320000Y-42405714D01*
X45177142Y-43548571D02*
X45177142Y-42862857D01*
X45177142Y-43205714D02*
X46377142Y-43205714D01*
X46205714Y-43091428D01*
X46091428Y-42977142D01*
X46034285Y-42862857D01*
X45634285Y-44062857D02*
X45634285Y-44977142D01*
X45177142Y-44520000D02*
X46091428Y-44520000D01*
X45177142Y-46462857D02*
X46377142Y-46462857D01*
X46377142Y-46920000D01*
X46320000Y-47034285D01*
X46262857Y-47091428D01*
X46148571Y-47148571D01*
X45977142Y-47148571D01*
X45862857Y-47091428D01*
X45805714Y-47034285D01*
X45748571Y-46920000D01*
X45748571Y-46462857D01*
X45234285Y-47605714D02*
X45177142Y-47777142D01*
X45177142Y-48062857D01*
X45234285Y-48177142D01*
X45291428Y-48234285D01*
X45405714Y-48291428D01*
X45520000Y-48291428D01*
X45634285Y-48234285D01*
X45691428Y-48177142D01*
X45748571Y-48062857D01*
X45805714Y-47834285D01*
X45862857Y-47720000D01*
X45920000Y-47662857D01*
X46034285Y-47605714D01*
X46148571Y-47605714D01*
X46262857Y-47662857D01*
X46320000Y-47720000D01*
X46377142Y-47834285D01*
X46377142Y-48120000D01*
X46320000Y-48291428D01*
X45177142Y-49434285D02*
X45177142Y-48748571D01*
X45177142Y-49091428D02*
X46377142Y-49091428D01*
X46205714Y-48977142D01*
X46091428Y-48862857D01*
X46034285Y-48748571D01*
X45634285Y-49948571D02*
X45634285Y-50862857D01*
X45177142Y-58357142D02*
X46377142Y-58357142D01*
X46377142Y-58814285D01*
X46320000Y-58928571D01*
X46262857Y-58985714D01*
X46148571Y-59042857D01*
X45977142Y-59042857D01*
X45862857Y-58985714D01*
X45805714Y-58928571D01*
X45748571Y-58814285D01*
X45748571Y-58357142D01*
X45234285Y-59500000D02*
X45177142Y-59671428D01*
X45177142Y-59957142D01*
X45234285Y-60071428D01*
X45291428Y-60128571D01*
X45405714Y-60185714D01*
X45520000Y-60185714D01*
X45634285Y-60128571D01*
X45691428Y-60071428D01*
X45748571Y-59957142D01*
X45805714Y-59728571D01*
X45862857Y-59614285D01*
X45920000Y-59557142D01*
X46034285Y-59500000D01*
X46148571Y-59500000D01*
X46262857Y-59557142D01*
X46320000Y-59614285D01*
X46377142Y-59728571D01*
X46377142Y-60014285D01*
X46320000Y-60185714D01*
X46262857Y-60642857D02*
X46320000Y-60700000D01*
X46377142Y-60814285D01*
X46377142Y-61100000D01*
X46320000Y-61214285D01*
X46262857Y-61271428D01*
X46148571Y-61328571D01*
X46034285Y-61328571D01*
X45862857Y-61271428D01*
X45177142Y-60585714D01*
X45177142Y-61328571D01*
X45634285Y-61842857D02*
X45634285Y-62757142D01*
X45177142Y-62300000D02*
X46091428Y-62300000D01*
X45177142Y-64242857D02*
X46377142Y-64242857D01*
X46377142Y-64700000D01*
X46320000Y-64814285D01*
X46262857Y-64871428D01*
X46148571Y-64928571D01*
X45977142Y-64928571D01*
X45862857Y-64871428D01*
X45805714Y-64814285D01*
X45748571Y-64700000D01*
X45748571Y-64242857D01*
X45234285Y-65385714D02*
X45177142Y-65557142D01*
X45177142Y-65842857D01*
X45234285Y-65957142D01*
X45291428Y-66014285D01*
X45405714Y-66071428D01*
X45520000Y-66071428D01*
X45634285Y-66014285D01*
X45691428Y-65957142D01*
X45748571Y-65842857D01*
X45805714Y-65614285D01*
X45862857Y-65500000D01*
X45920000Y-65442857D01*
X46034285Y-65385714D01*
X46148571Y-65385714D01*
X46262857Y-65442857D01*
X46320000Y-65500000D01*
X46377142Y-65614285D01*
X46377142Y-65900000D01*
X46320000Y-66071428D01*
X46262857Y-66528571D02*
X46320000Y-66585714D01*
X46377142Y-66700000D01*
X46377142Y-66985714D01*
X46320000Y-67100000D01*
X46262857Y-67157142D01*
X46148571Y-67214285D01*
X46034285Y-67214285D01*
X45862857Y-67157142D01*
X45177142Y-66471428D01*
X45177142Y-67214285D01*
X45634285Y-67728571D02*
X45634285Y-68642857D01*
X45234285Y-76765714D02*
X45177142Y-76937142D01*
X45177142Y-77222857D01*
X45234285Y-77337142D01*
X45291428Y-77394285D01*
X45405714Y-77451428D01*
X45520000Y-77451428D01*
X45634285Y-77394285D01*
X45691428Y-77337142D01*
X45748571Y-77222857D01*
X45805714Y-76994285D01*
X45862857Y-76880000D01*
X45920000Y-76822857D01*
X46034285Y-76765714D01*
X46148571Y-76765714D01*
X46262857Y-76822857D01*
X46320000Y-76880000D01*
X46377142Y-76994285D01*
X46377142Y-77280000D01*
X46320000Y-77451428D01*
X45177142Y-77965714D02*
X45977142Y-77965714D01*
X46377142Y-77965714D02*
X46320000Y-77908571D01*
X46262857Y-77965714D01*
X46320000Y-78022857D01*
X46377142Y-77965714D01*
X46262857Y-77965714D01*
X45977142Y-79051428D02*
X45005714Y-79051428D01*
X44891428Y-78994285D01*
X44834285Y-78937142D01*
X44777142Y-78822857D01*
X44777142Y-78651428D01*
X44834285Y-78537142D01*
X45234285Y-79051428D02*
X45177142Y-78937142D01*
X45177142Y-78708571D01*
X45234285Y-78594285D01*
X45291428Y-78537142D01*
X45405714Y-78480000D01*
X45748571Y-78480000D01*
X45862857Y-78537142D01*
X45920000Y-78594285D01*
X45977142Y-78708571D01*
X45977142Y-78937142D01*
X45920000Y-79051428D01*
X45634285Y-79622857D02*
X45634285Y-80537142D01*
X45234285Y-81965714D02*
X45177142Y-82137142D01*
X45177142Y-82422857D01*
X45234285Y-82537142D01*
X45291428Y-82594285D01*
X45405714Y-82651428D01*
X45520000Y-82651428D01*
X45634285Y-82594285D01*
X45691428Y-82537142D01*
X45748571Y-82422857D01*
X45805714Y-82194285D01*
X45862857Y-82080000D01*
X45920000Y-82022857D01*
X46034285Y-81965714D01*
X46148571Y-81965714D01*
X46262857Y-82022857D01*
X46320000Y-82080000D01*
X46377142Y-82194285D01*
X46377142Y-82480000D01*
X46320000Y-82651428D01*
X45177142Y-83165714D02*
X45977142Y-83165714D01*
X46377142Y-83165714D02*
X46320000Y-83108571D01*
X46262857Y-83165714D01*
X46320000Y-83222857D01*
X46377142Y-83165714D01*
X46262857Y-83165714D01*
X45977142Y-84251428D02*
X45005714Y-84251428D01*
X44891428Y-84194285D01*
X44834285Y-84137142D01*
X44777142Y-84022857D01*
X44777142Y-83851428D01*
X44834285Y-83737142D01*
X45234285Y-84251428D02*
X45177142Y-84137142D01*
X45177142Y-83908571D01*
X45234285Y-83794285D01*
X45291428Y-83737142D01*
X45405714Y-83680000D01*
X45748571Y-83680000D01*
X45862857Y-83737142D01*
X45920000Y-83794285D01*
X45977142Y-83908571D01*
X45977142Y-84137142D01*
X45920000Y-84251428D01*
X45634285Y-84822857D02*
X45634285Y-85737142D01*
X45177142Y-85280000D02*
X46091428Y-85280000D01*
X47581428Y-91111428D02*
X49081428Y-91111428D01*
X49081428Y-91682857D01*
X49010000Y-91825714D01*
X48938571Y-91897142D01*
X48795714Y-91968571D01*
X48581428Y-91968571D01*
X48438571Y-91897142D01*
X48367142Y-91825714D01*
X48295714Y-91682857D01*
X48295714Y-91111428D01*
X48152857Y-92611428D02*
X48152857Y-93754285D01*
X47581428Y-93182857D02*
X48724285Y-93182857D01*
X47581428Y-96754285D02*
X49081428Y-96754285D01*
X49081428Y-97325714D01*
X49010000Y-97468571D01*
X48938571Y-97540000D01*
X48795714Y-97611428D01*
X48581428Y-97611428D01*
X48438571Y-97540000D01*
X48367142Y-97468571D01*
X48295714Y-97325714D01*
X48295714Y-96754285D01*
X48152857Y-98254285D02*
X48152857Y-99397142D01*
X47652857Y-102325714D02*
X47581428Y-102540000D01*
X47581428Y-102897142D01*
X47652857Y-103040000D01*
X47724285Y-103111428D01*
X47867142Y-103182857D01*
X48010000Y-103182857D01*
X48152857Y-103111428D01*
X48224285Y-103040000D01*
X48295714Y-102897142D01*
X48367142Y-102611428D01*
X48438571Y-102468571D01*
X48510000Y-102397142D01*
X48652857Y-102325714D01*
X48795714Y-102325714D01*
X48938571Y-102397142D01*
X49010000Y-102468571D01*
X49081428Y-102611428D01*
X49081428Y-102968571D01*
X49010000Y-103182857D01*
X47581428Y-103825714D02*
X49081428Y-103825714D01*
X47581428Y-104468571D02*
X48367142Y-104468571D01*
X48510000Y-104397142D01*
X48581428Y-104254285D01*
X48581428Y-104040000D01*
X48510000Y-103897142D01*
X48438571Y-103825714D01*
X80288571Y-124567142D02*
X81431428Y-124567142D01*
X80860000Y-125138571D02*
X80860000Y-123995714D01*
X82074285Y-123781428D02*
X82145714Y-123710000D01*
X82288571Y-123638571D01*
X82645714Y-123638571D01*
X82788571Y-123710000D01*
X82860000Y-123781428D01*
X82931428Y-123924285D01*
X82931428Y-124067142D01*
X82860000Y-124281428D01*
X82002857Y-125138571D01*
X82931428Y-125138571D01*
X84217142Y-124138571D02*
X84217142Y-125138571D01*
X83860000Y-123567142D02*
X83502857Y-124638571D01*
X84431428Y-124638571D01*
X84788571Y-123638571D02*
X85288571Y-125138571D01*
X85788571Y-123638571D01*
X89360000Y-123710000D02*
X89217142Y-123638571D01*
X89002857Y-123638571D01*
X88788571Y-123710000D01*
X88645714Y-123852857D01*
X88574285Y-123995714D01*
X88502857Y-124281428D01*
X88502857Y-124495714D01*
X88574285Y-124781428D01*
X88645714Y-124924285D01*
X88788571Y-125067142D01*
X89002857Y-125138571D01*
X89145714Y-125138571D01*
X89360000Y-125067142D01*
X89431428Y-124995714D01*
X89431428Y-124495714D01*
X89145714Y-124495714D01*
X90074285Y-125138571D02*
X90074285Y-123638571D01*
X90931428Y-125138571D01*
X90931428Y-123638571D01*
X91645714Y-125138571D02*
X91645714Y-123638571D01*
X92002857Y-123638571D01*
X92217142Y-123710000D01*
X92360000Y-123852857D01*
X92431428Y-123995714D01*
X92502857Y-124281428D01*
X92502857Y-124495714D01*
X92431428Y-124781428D01*
X92360000Y-124924285D01*
X92217142Y-125067142D01*
X92002857Y-125138571D01*
X91645714Y-125138571D01*
X66318571Y-124567142D02*
X67461428Y-124567142D01*
X66890000Y-125138571D02*
X66890000Y-123995714D01*
X68961428Y-125138571D02*
X68104285Y-125138571D01*
X68532857Y-125138571D02*
X68532857Y-123638571D01*
X68390000Y-123852857D01*
X68247142Y-123995714D01*
X68104285Y-124067142D01*
X69532857Y-123781428D02*
X69604285Y-123710000D01*
X69747142Y-123638571D01*
X70104285Y-123638571D01*
X70247142Y-123710000D01*
X70318571Y-123781428D01*
X70390000Y-123924285D01*
X70390000Y-124067142D01*
X70318571Y-124281428D01*
X69461428Y-125138571D01*
X70390000Y-125138571D01*
X70818571Y-123638571D02*
X71318571Y-125138571D01*
X71818571Y-123638571D01*
X75390000Y-123710000D02*
X75247142Y-123638571D01*
X75032857Y-123638571D01*
X74818571Y-123710000D01*
X74675714Y-123852857D01*
X74604285Y-123995714D01*
X74532857Y-124281428D01*
X74532857Y-124495714D01*
X74604285Y-124781428D01*
X74675714Y-124924285D01*
X74818571Y-125067142D01*
X75032857Y-125138571D01*
X75175714Y-125138571D01*
X75390000Y-125067142D01*
X75461428Y-124995714D01*
X75461428Y-124495714D01*
X75175714Y-124495714D01*
X76104285Y-125138571D02*
X76104285Y-123638571D01*
X76961428Y-125138571D01*
X76961428Y-123638571D01*
X77675714Y-125138571D02*
X77675714Y-123638571D01*
X78032857Y-123638571D01*
X78247142Y-123710000D01*
X78390000Y-123852857D01*
X78461428Y-123995714D01*
X78532857Y-124281428D01*
X78532857Y-124495714D01*
X78461428Y-124781428D01*
X78390000Y-124924285D01*
X78247142Y-125067142D01*
X78032857Y-125138571D01*
X77675714Y-125138571D01*
X47094285Y-122027142D02*
X48237142Y-122027142D01*
X47665714Y-122598571D02*
X47665714Y-121455714D01*
X49665714Y-121098571D02*
X48951428Y-121098571D01*
X48880000Y-121812857D01*
X48951428Y-121741428D01*
X49094285Y-121670000D01*
X49451428Y-121670000D01*
X49594285Y-121741428D01*
X49665714Y-121812857D01*
X49737142Y-121955714D01*
X49737142Y-122312857D01*
X49665714Y-122455714D01*
X49594285Y-122527142D01*
X49451428Y-122598571D01*
X49094285Y-122598571D01*
X48951428Y-122527142D01*
X48880000Y-122455714D01*
X50165714Y-121098571D02*
X50665714Y-122598571D01*
X51165714Y-121098571D01*
X54737142Y-121170000D02*
X54594285Y-121098571D01*
X54380000Y-121098571D01*
X54165714Y-121170000D01*
X54022857Y-121312857D01*
X53951428Y-121455714D01*
X53880000Y-121741428D01*
X53880000Y-121955714D01*
X53951428Y-122241428D01*
X54022857Y-122384285D01*
X54165714Y-122527142D01*
X54380000Y-122598571D01*
X54522857Y-122598571D01*
X54737142Y-122527142D01*
X54808571Y-122455714D01*
X54808571Y-121955714D01*
X54522857Y-121955714D01*
X55451428Y-122598571D02*
X55451428Y-121098571D01*
X56308571Y-122598571D01*
X56308571Y-121098571D01*
X57022857Y-122598571D02*
X57022857Y-121098571D01*
X57380000Y-121098571D01*
X57594285Y-121170000D01*
X57737142Y-121312857D01*
X57808571Y-121455714D01*
X57880000Y-121741428D01*
X57880000Y-121955714D01*
X57808571Y-122241428D01*
X57737142Y-122384285D01*
X57594285Y-122527142D01*
X57380000Y-122598571D01*
X57022857Y-122598571D01*
X60808571Y-122027142D02*
X61951428Y-122027142D01*
X63380000Y-121098571D02*
X62665714Y-121098571D01*
X62594285Y-121812857D01*
X62665714Y-121741428D01*
X62808571Y-121670000D01*
X63165714Y-121670000D01*
X63308571Y-121741428D01*
X63380000Y-121812857D01*
X63451428Y-121955714D01*
X63451428Y-122312857D01*
X63380000Y-122455714D01*
X63308571Y-122527142D01*
X63165714Y-122598571D01*
X62808571Y-122598571D01*
X62665714Y-122527142D01*
X62594285Y-122455714D01*
X63880000Y-121098571D02*
X64380000Y-122598571D01*
X64880000Y-121098571D01*
X112571250Y-111635714D02*
X112735535Y-111692857D01*
X113021250Y-111692857D01*
X113142678Y-111635714D01*
X113206964Y-111578571D01*
X113278392Y-111464285D01*
X113292678Y-111350000D01*
X113249821Y-111235714D01*
X113199821Y-111178571D01*
X113092678Y-111121428D01*
X112871250Y-111064285D01*
X112764107Y-111007142D01*
X112714107Y-110950000D01*
X112671250Y-110835714D01*
X112685535Y-110721428D01*
X112756964Y-110607142D01*
X112821250Y-110550000D01*
X112942678Y-110492857D01*
X113228392Y-110492857D01*
X113392678Y-110550000D01*
X114228392Y-111635714D02*
X114106964Y-111692857D01*
X113878392Y-111692857D01*
X113771250Y-111635714D01*
X113728392Y-111521428D01*
X113785535Y-111064285D01*
X113856964Y-110950000D01*
X113978392Y-110892857D01*
X114206964Y-110892857D01*
X114314107Y-110950000D01*
X114356964Y-111064285D01*
X114342678Y-111178571D01*
X113756964Y-111292857D01*
X114892678Y-110892857D02*
X114792678Y-111692857D01*
X114878392Y-111007142D02*
X114942678Y-110950000D01*
X115064107Y-110892857D01*
X115235535Y-110892857D01*
X115342678Y-110950000D01*
X115385535Y-111064285D01*
X115306964Y-111692857D01*
X115828392Y-111635714D02*
X115935535Y-111692857D01*
X116164107Y-111692857D01*
X116285535Y-111635714D01*
X116356964Y-111521428D01*
X116364107Y-111464285D01*
X116321250Y-111350000D01*
X116214107Y-111292857D01*
X116042678Y-111292857D01*
X115935535Y-111235714D01*
X115892678Y-111121428D01*
X115899821Y-111064285D01*
X115971250Y-110950000D01*
X116092678Y-110892857D01*
X116264107Y-110892857D01*
X116371250Y-110950000D01*
X117021250Y-111692857D02*
X116914107Y-111635714D01*
X116864107Y-111578571D01*
X116821250Y-111464285D01*
X116864107Y-111121428D01*
X116935535Y-111007142D01*
X116999821Y-110950000D01*
X117121250Y-110892857D01*
X117292678Y-110892857D01*
X117399821Y-110950000D01*
X117449821Y-111007142D01*
X117492678Y-111121428D01*
X117449821Y-111464285D01*
X117378392Y-111578571D01*
X117314107Y-111635714D01*
X117192678Y-111692857D01*
X117021250Y-111692857D01*
X117935535Y-111692857D02*
X118035535Y-110892857D01*
X118006964Y-111121428D02*
X118078392Y-111007142D01*
X118142678Y-110950000D01*
X118264107Y-110892857D01*
X118378392Y-110892857D01*
X119571250Y-110492857D02*
X120256964Y-110492857D01*
X119764107Y-111692857D02*
X119914107Y-110492857D01*
X120506964Y-111692857D02*
X120606964Y-110892857D01*
X120578392Y-111121428D02*
X120649821Y-111007142D01*
X120714107Y-110950000D01*
X120835535Y-110892857D01*
X120949821Y-110892857D01*
X121764107Y-111692857D02*
X121842678Y-111064285D01*
X121799821Y-110950000D01*
X121692678Y-110892857D01*
X121464107Y-110892857D01*
X121342678Y-110950000D01*
X121771250Y-111635714D02*
X121649821Y-111692857D01*
X121364107Y-111692857D01*
X121256964Y-111635714D01*
X121214107Y-111521428D01*
X121228392Y-111407142D01*
X121299821Y-111292857D01*
X121421250Y-111235714D01*
X121706964Y-111235714D01*
X121828392Y-111178571D01*
X122435535Y-110892857D02*
X122335535Y-111692857D01*
X122421250Y-111007142D02*
X122485535Y-110950000D01*
X122606964Y-110892857D01*
X122778392Y-110892857D01*
X122885535Y-110950000D01*
X122928392Y-111064285D01*
X122849821Y-111692857D01*
X123371250Y-111635714D02*
X123478392Y-111692857D01*
X123706964Y-111692857D01*
X123828392Y-111635714D01*
X123899821Y-111521428D01*
X123906964Y-111464285D01*
X123864107Y-111350000D01*
X123756964Y-111292857D01*
X123585535Y-111292857D01*
X123478392Y-111235714D01*
X123435535Y-111121428D01*
X123442678Y-111064285D01*
X123514107Y-110950000D01*
X123635535Y-110892857D01*
X123806964Y-110892857D01*
X123914107Y-110950000D01*
X124906964Y-111692857D02*
X125056964Y-110492857D01*
X124914107Y-111635714D02*
X124792678Y-111692857D01*
X124564107Y-111692857D01*
X124456964Y-111635714D01*
X124406964Y-111578571D01*
X124364107Y-111464285D01*
X124406964Y-111121428D01*
X124478392Y-111007142D01*
X124542678Y-110950000D01*
X124664107Y-110892857D01*
X124892678Y-110892857D01*
X124999821Y-110950000D01*
X126092678Y-110892857D02*
X125992678Y-111692857D01*
X125578392Y-110892857D02*
X125499821Y-111521428D01*
X125542678Y-111635714D01*
X125649821Y-111692857D01*
X125821250Y-111692857D01*
X125942678Y-111635714D01*
X126006964Y-111578571D01*
X127085535Y-111635714D02*
X126964107Y-111692857D01*
X126735535Y-111692857D01*
X126628392Y-111635714D01*
X126578392Y-111578571D01*
X126535535Y-111464285D01*
X126578392Y-111121428D01*
X126649821Y-111007142D01*
X126714107Y-110950000D01*
X126835535Y-110892857D01*
X127064107Y-110892857D01*
X127171250Y-110950000D01*
X128056964Y-111635714D02*
X127935535Y-111692857D01*
X127706964Y-111692857D01*
X127599821Y-111635714D01*
X127556964Y-111521428D01*
X127614107Y-111064285D01*
X127685535Y-110950000D01*
X127806964Y-110892857D01*
X128035535Y-110892857D01*
X128142678Y-110950000D01*
X128185535Y-111064285D01*
X128171250Y-111178571D01*
X127585535Y-111292857D01*
X128621250Y-111692857D02*
X128721250Y-110892857D01*
X128692678Y-111121428D02*
X128764107Y-111007142D01*
X128828392Y-110950000D01*
X128949821Y-110892857D01*
X129064107Y-110892857D01*
X100792678Y-113792857D02*
X100942678Y-112592857D01*
X101399821Y-112592857D01*
X101506964Y-112650000D01*
X101556964Y-112707142D01*
X101599821Y-112821428D01*
X101578392Y-112992857D01*
X101506964Y-113107142D01*
X101442678Y-113164285D01*
X101321250Y-113221428D01*
X100864107Y-113221428D01*
X101992678Y-113792857D02*
X102092678Y-112992857D01*
X102064107Y-113221428D02*
X102135535Y-113107142D01*
X102199821Y-113050000D01*
X102321250Y-112992857D01*
X102435535Y-112992857D01*
X103199821Y-113735714D02*
X103078392Y-113792857D01*
X102849821Y-113792857D01*
X102742678Y-113735714D01*
X102699821Y-113621428D01*
X102756964Y-113164285D01*
X102828392Y-113050000D01*
X102949821Y-112992857D01*
X103178392Y-112992857D01*
X103285535Y-113050000D01*
X103328392Y-113164285D01*
X103314107Y-113278571D01*
X102728392Y-113392857D01*
X103714107Y-113735714D02*
X103821250Y-113792857D01*
X104049821Y-113792857D01*
X104171250Y-113735714D01*
X104242678Y-113621428D01*
X104249821Y-113564285D01*
X104206964Y-113450000D01*
X104099821Y-113392857D01*
X103928392Y-113392857D01*
X103821250Y-113335714D01*
X103778392Y-113221428D01*
X103785535Y-113164285D01*
X103856964Y-113050000D01*
X103978392Y-112992857D01*
X104149821Y-112992857D01*
X104256964Y-113050000D01*
X104685535Y-113735714D02*
X104792678Y-113792857D01*
X105021250Y-113792857D01*
X105142678Y-113735714D01*
X105214107Y-113621428D01*
X105221250Y-113564285D01*
X105178392Y-113450000D01*
X105071250Y-113392857D01*
X104899821Y-113392857D01*
X104792678Y-113335714D01*
X104749821Y-113221428D01*
X104756964Y-113164285D01*
X104828392Y-113050000D01*
X104949821Y-112992857D01*
X105121250Y-112992857D01*
X105228392Y-113050000D01*
X106321250Y-112992857D02*
X106221250Y-113792857D01*
X105806964Y-112992857D02*
X105728392Y-113621428D01*
X105771250Y-113735714D01*
X105878392Y-113792857D01*
X106049821Y-113792857D01*
X106171250Y-113735714D01*
X106235535Y-113678571D01*
X106792678Y-113792857D02*
X106892678Y-112992857D01*
X106864107Y-113221428D02*
X106935535Y-113107142D01*
X106999821Y-113050000D01*
X107121250Y-112992857D01*
X107235535Y-112992857D01*
X107999821Y-113735714D02*
X107878392Y-113792857D01*
X107649821Y-113792857D01*
X107542678Y-113735714D01*
X107499821Y-113621428D01*
X107556964Y-113164285D01*
X107628392Y-113050000D01*
X107749821Y-112992857D01*
X107978392Y-112992857D01*
X108085535Y-113050000D01*
X108128392Y-113164285D01*
X108114107Y-113278571D01*
X107528392Y-113392857D01*
X109428392Y-113735714D02*
X109592678Y-113792857D01*
X109878392Y-113792857D01*
X109999821Y-113735714D01*
X110064107Y-113678571D01*
X110135535Y-113564285D01*
X110149821Y-113450000D01*
X110106964Y-113335714D01*
X110056964Y-113278571D01*
X109949821Y-113221428D01*
X109728392Y-113164285D01*
X109621250Y-113107142D01*
X109571250Y-113050000D01*
X109528392Y-112935714D01*
X109542678Y-112821428D01*
X109614107Y-112707142D01*
X109678392Y-112650000D01*
X109799821Y-112592857D01*
X110085535Y-112592857D01*
X110249821Y-112650000D01*
X111085535Y-113735714D02*
X110964107Y-113792857D01*
X110735535Y-113792857D01*
X110628392Y-113735714D01*
X110585535Y-113621428D01*
X110642678Y-113164285D01*
X110714107Y-113050000D01*
X110835535Y-112992857D01*
X111064107Y-112992857D01*
X111171250Y-113050000D01*
X111214107Y-113164285D01*
X111199821Y-113278571D01*
X110614107Y-113392857D01*
X111749821Y-112992857D02*
X111649821Y-113792857D01*
X111735535Y-113107142D02*
X111799821Y-113050000D01*
X111921250Y-112992857D01*
X112092678Y-112992857D01*
X112199821Y-113050000D01*
X112242678Y-113164285D01*
X112164107Y-113792857D01*
X112685535Y-113735714D02*
X112792678Y-113792857D01*
X113021250Y-113792857D01*
X113142678Y-113735714D01*
X113214107Y-113621428D01*
X113221250Y-113564285D01*
X113178392Y-113450000D01*
X113071250Y-113392857D01*
X112899821Y-113392857D01*
X112792678Y-113335714D01*
X112749821Y-113221428D01*
X112756964Y-113164285D01*
X112828392Y-113050000D01*
X112949821Y-112992857D01*
X113121250Y-112992857D01*
X113228392Y-113050000D01*
X113878392Y-113792857D02*
X113771250Y-113735714D01*
X113721250Y-113678571D01*
X113678392Y-113564285D01*
X113721250Y-113221428D01*
X113792678Y-113107142D01*
X113856964Y-113050000D01*
X113978392Y-112992857D01*
X114149821Y-112992857D01*
X114256964Y-113050000D01*
X114306964Y-113107142D01*
X114349821Y-113221428D01*
X114306964Y-113564285D01*
X114235535Y-113678571D01*
X114171250Y-113735714D01*
X114049821Y-113792857D01*
X113878392Y-113792857D01*
X114792678Y-113792857D02*
X114892678Y-112992857D01*
X114864107Y-113221428D02*
X114935535Y-113107142D01*
X114999821Y-113050000D01*
X115121250Y-112992857D01*
X115235535Y-112992857D01*
X117078392Y-113792857D02*
X116392678Y-113792857D01*
X116735535Y-113792857D02*
X116885535Y-112592857D01*
X116749821Y-112764285D01*
X116621250Y-112878571D01*
X116499821Y-112935714D01*
X117606964Y-113678571D02*
X117656964Y-113735714D01*
X117592678Y-113792857D01*
X117542678Y-113735714D01*
X117606964Y-113678571D01*
X117592678Y-113792857D01*
X117685535Y-113050000D02*
X117735535Y-113107142D01*
X117671250Y-113164285D01*
X117621250Y-113107142D01*
X117685535Y-113050000D01*
X117671250Y-113164285D01*
X119692678Y-112992857D02*
X119592678Y-113792857D01*
X119464107Y-112535714D02*
X119071250Y-113392857D01*
X119814107Y-113392857D01*
X121192678Y-113335714D02*
X122106964Y-113335714D01*
X123614107Y-112707142D02*
X123678392Y-112650000D01*
X123799821Y-112592857D01*
X124085535Y-112592857D01*
X124192678Y-112650000D01*
X124242678Y-112707142D01*
X124285535Y-112821428D01*
X124271250Y-112935714D01*
X124192678Y-113107142D01*
X123421250Y-113792857D01*
X124164107Y-113792857D01*
X125056964Y-112592857D02*
X125171250Y-112592857D01*
X125278392Y-112650000D01*
X125328392Y-112707142D01*
X125371250Y-112821428D01*
X125399821Y-113050000D01*
X125364107Y-113335714D01*
X125278392Y-113564285D01*
X125206964Y-113678571D01*
X125142678Y-113735714D01*
X125021250Y-113792857D01*
X124906964Y-113792857D01*
X124799821Y-113735714D01*
X124749821Y-113678571D01*
X124706964Y-113564285D01*
X124678392Y-113335714D01*
X124714107Y-113050000D01*
X124799821Y-112821428D01*
X124871250Y-112707142D01*
X124935535Y-112650000D01*
X125056964Y-112592857D01*
X126735535Y-113792857D02*
X126835535Y-112992857D01*
X126821250Y-113107142D02*
X126885535Y-113050000D01*
X127006964Y-112992857D01*
X127178392Y-112992857D01*
X127285535Y-113050000D01*
X127328392Y-113164285D01*
X127249821Y-113792857D01*
X127328392Y-113164285D02*
X127399821Y-113050000D01*
X127521250Y-112992857D01*
X127692678Y-112992857D01*
X127799821Y-113050000D01*
X127842678Y-113164285D01*
X127764107Y-113792857D01*
X128321250Y-113450000D02*
X128892678Y-113450000D01*
X128164107Y-113792857D02*
X128714107Y-112592857D01*
X128964107Y-113792857D01*
X100792678Y-115892857D02*
X100942678Y-114692857D01*
X101399821Y-114692857D01*
X101506964Y-114750000D01*
X101556964Y-114807142D01*
X101599821Y-114921428D01*
X101578392Y-115092857D01*
X101506964Y-115207142D01*
X101442678Y-115264285D01*
X101321250Y-115321428D01*
X100864107Y-115321428D01*
X101992678Y-115892857D02*
X102092678Y-115092857D01*
X102064107Y-115321428D02*
X102135535Y-115207142D01*
X102199821Y-115150000D01*
X102321250Y-115092857D01*
X102435535Y-115092857D01*
X103199821Y-115835714D02*
X103078392Y-115892857D01*
X102849821Y-115892857D01*
X102742678Y-115835714D01*
X102699821Y-115721428D01*
X102756964Y-115264285D01*
X102828392Y-115150000D01*
X102949821Y-115092857D01*
X103178392Y-115092857D01*
X103285535Y-115150000D01*
X103328392Y-115264285D01*
X103314107Y-115378571D01*
X102728392Y-115492857D01*
X103714107Y-115835714D02*
X103821250Y-115892857D01*
X104049821Y-115892857D01*
X104171250Y-115835714D01*
X104242678Y-115721428D01*
X104249821Y-115664285D01*
X104206964Y-115550000D01*
X104099821Y-115492857D01*
X103928392Y-115492857D01*
X103821250Y-115435714D01*
X103778392Y-115321428D01*
X103785535Y-115264285D01*
X103856964Y-115150000D01*
X103978392Y-115092857D01*
X104149821Y-115092857D01*
X104256964Y-115150000D01*
X104685535Y-115835714D02*
X104792678Y-115892857D01*
X105021250Y-115892857D01*
X105142678Y-115835714D01*
X105214107Y-115721428D01*
X105221250Y-115664285D01*
X105178392Y-115550000D01*
X105071250Y-115492857D01*
X104899821Y-115492857D01*
X104792678Y-115435714D01*
X104749821Y-115321428D01*
X104756964Y-115264285D01*
X104828392Y-115150000D01*
X104949821Y-115092857D01*
X105121250Y-115092857D01*
X105228392Y-115150000D01*
X106321250Y-115092857D02*
X106221250Y-115892857D01*
X105806964Y-115092857D02*
X105728392Y-115721428D01*
X105771250Y-115835714D01*
X105878392Y-115892857D01*
X106049821Y-115892857D01*
X106171250Y-115835714D01*
X106235535Y-115778571D01*
X106792678Y-115892857D02*
X106892678Y-115092857D01*
X106864107Y-115321428D02*
X106935535Y-115207142D01*
X106999821Y-115150000D01*
X107121250Y-115092857D01*
X107235535Y-115092857D01*
X107999821Y-115835714D02*
X107878392Y-115892857D01*
X107649821Y-115892857D01*
X107542678Y-115835714D01*
X107499821Y-115721428D01*
X107556964Y-115264285D01*
X107628392Y-115150000D01*
X107749821Y-115092857D01*
X107978392Y-115092857D01*
X108085535Y-115150000D01*
X108128392Y-115264285D01*
X108114107Y-115378571D01*
X107528392Y-115492857D01*
X109428392Y-115835714D02*
X109592678Y-115892857D01*
X109878392Y-115892857D01*
X109999821Y-115835714D01*
X110064107Y-115778571D01*
X110135535Y-115664285D01*
X110149821Y-115550000D01*
X110106964Y-115435714D01*
X110056964Y-115378571D01*
X109949821Y-115321428D01*
X109728392Y-115264285D01*
X109621250Y-115207142D01*
X109571250Y-115150000D01*
X109528392Y-115035714D01*
X109542678Y-114921428D01*
X109614107Y-114807142D01*
X109678392Y-114750000D01*
X109799821Y-114692857D01*
X110085535Y-114692857D01*
X110249821Y-114750000D01*
X111085535Y-115835714D02*
X110964107Y-115892857D01*
X110735535Y-115892857D01*
X110628392Y-115835714D01*
X110585535Y-115721428D01*
X110642678Y-115264285D01*
X110714107Y-115150000D01*
X110835535Y-115092857D01*
X111064107Y-115092857D01*
X111171250Y-115150000D01*
X111214107Y-115264285D01*
X111199821Y-115378571D01*
X110614107Y-115492857D01*
X111749821Y-115092857D02*
X111649821Y-115892857D01*
X111735535Y-115207142D02*
X111799821Y-115150000D01*
X111921250Y-115092857D01*
X112092678Y-115092857D01*
X112199821Y-115150000D01*
X112242678Y-115264285D01*
X112164107Y-115892857D01*
X112685535Y-115835714D02*
X112792678Y-115892857D01*
X113021250Y-115892857D01*
X113142678Y-115835714D01*
X113214107Y-115721428D01*
X113221250Y-115664285D01*
X113178392Y-115550000D01*
X113071250Y-115492857D01*
X112899821Y-115492857D01*
X112792678Y-115435714D01*
X112749821Y-115321428D01*
X112756964Y-115264285D01*
X112828392Y-115150000D01*
X112949821Y-115092857D01*
X113121250Y-115092857D01*
X113228392Y-115150000D01*
X113878392Y-115892857D02*
X113771250Y-115835714D01*
X113721250Y-115778571D01*
X113678392Y-115664285D01*
X113721250Y-115321428D01*
X113792678Y-115207142D01*
X113856964Y-115150000D01*
X113978392Y-115092857D01*
X114149821Y-115092857D01*
X114256964Y-115150000D01*
X114306964Y-115207142D01*
X114349821Y-115321428D01*
X114306964Y-115664285D01*
X114235535Y-115778571D01*
X114171250Y-115835714D01*
X114049821Y-115892857D01*
X113878392Y-115892857D01*
X114792678Y-115892857D02*
X114892678Y-115092857D01*
X114864107Y-115321428D02*
X114935535Y-115207142D01*
X114999821Y-115150000D01*
X115121250Y-115092857D01*
X115235535Y-115092857D01*
X116528392Y-114807142D02*
X116592678Y-114750000D01*
X116714107Y-114692857D01*
X116999821Y-114692857D01*
X117106964Y-114750000D01*
X117156964Y-114807142D01*
X117199821Y-114921428D01*
X117185535Y-115035714D01*
X117106964Y-115207142D01*
X116335535Y-115892857D01*
X117078392Y-115892857D01*
X117606964Y-115778571D02*
X117656964Y-115835714D01*
X117592678Y-115892857D01*
X117542678Y-115835714D01*
X117606964Y-115778571D01*
X117592678Y-115892857D01*
X117685535Y-115150000D02*
X117735535Y-115207142D01*
X117671250Y-115264285D01*
X117621250Y-115207142D01*
X117685535Y-115150000D01*
X117671250Y-115264285D01*
X119692678Y-115092857D02*
X119592678Y-115892857D01*
X119464107Y-114635714D02*
X119071250Y-115492857D01*
X119814107Y-115492857D01*
X121192678Y-115435714D02*
X122106964Y-115435714D01*
X123614107Y-114807142D02*
X123678392Y-114750000D01*
X123799821Y-114692857D01*
X124085535Y-114692857D01*
X124192678Y-114750000D01*
X124242678Y-114807142D01*
X124285535Y-114921428D01*
X124271250Y-115035714D01*
X124192678Y-115207142D01*
X123421250Y-115892857D01*
X124164107Y-115892857D01*
X125056964Y-114692857D02*
X125171250Y-114692857D01*
X125278392Y-114750000D01*
X125328392Y-114807142D01*
X125371250Y-114921428D01*
X125399821Y-115150000D01*
X125364107Y-115435714D01*
X125278392Y-115664285D01*
X125206964Y-115778571D01*
X125142678Y-115835714D01*
X125021250Y-115892857D01*
X124906964Y-115892857D01*
X124799821Y-115835714D01*
X124749821Y-115778571D01*
X124706964Y-115664285D01*
X124678392Y-115435714D01*
X124714107Y-115150000D01*
X124799821Y-114921428D01*
X124871250Y-114807142D01*
X124935535Y-114750000D01*
X125056964Y-114692857D01*
X126735535Y-115892857D02*
X126835535Y-115092857D01*
X126821250Y-115207142D02*
X126885535Y-115150000D01*
X127006964Y-115092857D01*
X127178392Y-115092857D01*
X127285535Y-115150000D01*
X127328392Y-115264285D01*
X127249821Y-115892857D01*
X127328392Y-115264285D02*
X127399821Y-115150000D01*
X127521250Y-115092857D01*
X127692678Y-115092857D01*
X127799821Y-115150000D01*
X127842678Y-115264285D01*
X127764107Y-115892857D01*
X128321250Y-115550000D02*
X128892678Y-115550000D01*
X128164107Y-115892857D02*
X128714107Y-114692857D01*
X128964107Y-115892857D01*
X101306964Y-117992857D02*
X100735535Y-117992857D01*
X100885535Y-116792857D01*
X101878392Y-117992857D02*
X101771250Y-117935714D01*
X101721250Y-117878571D01*
X101678392Y-117764285D01*
X101721250Y-117421428D01*
X101792678Y-117307142D01*
X101856964Y-117250000D01*
X101978392Y-117192857D01*
X102149821Y-117192857D01*
X102256964Y-117250000D01*
X102306964Y-117307142D01*
X102349821Y-117421428D01*
X102306964Y-117764285D01*
X102235535Y-117878571D01*
X102171250Y-117935714D01*
X102049821Y-117992857D01*
X101878392Y-117992857D01*
X103306964Y-117992857D02*
X103385535Y-117364285D01*
X103342678Y-117250000D01*
X103235535Y-117192857D01*
X103006964Y-117192857D01*
X102885535Y-117250000D01*
X103314107Y-117935714D02*
X103192678Y-117992857D01*
X102906964Y-117992857D01*
X102799821Y-117935714D01*
X102756964Y-117821428D01*
X102771250Y-117707142D01*
X102842678Y-117592857D01*
X102964107Y-117535714D01*
X103249821Y-117535714D01*
X103371250Y-117478571D01*
X104392678Y-117992857D02*
X104542678Y-116792857D01*
X104399821Y-117935714D02*
X104278392Y-117992857D01*
X104049821Y-117992857D01*
X103942678Y-117935714D01*
X103892678Y-117878571D01*
X103849821Y-117764285D01*
X103892678Y-117421428D01*
X103964107Y-117307142D01*
X104028392Y-117250000D01*
X104149821Y-117192857D01*
X104378392Y-117192857D01*
X104485535Y-117250000D01*
X106578392Y-117878571D02*
X106514107Y-117935714D01*
X106335535Y-117992857D01*
X106221250Y-117992857D01*
X106056964Y-117935714D01*
X105956964Y-117821428D01*
X105914107Y-117707142D01*
X105885535Y-117478571D01*
X105906964Y-117307142D01*
X105992678Y-117078571D01*
X106064107Y-116964285D01*
X106192678Y-116850000D01*
X106371250Y-116792857D01*
X106485535Y-116792857D01*
X106649821Y-116850000D01*
X106699821Y-116907142D01*
X107542678Y-117935714D02*
X107421250Y-117992857D01*
X107192678Y-117992857D01*
X107085535Y-117935714D01*
X107042678Y-117821428D01*
X107099821Y-117364285D01*
X107171250Y-117250000D01*
X107292678Y-117192857D01*
X107521250Y-117192857D01*
X107628392Y-117250000D01*
X107671250Y-117364285D01*
X107656964Y-117478571D01*
X107071250Y-117592857D01*
X108278392Y-117992857D02*
X108171250Y-117935714D01*
X108128392Y-117821428D01*
X108256964Y-116792857D01*
X108906964Y-117992857D02*
X108799821Y-117935714D01*
X108756964Y-117821428D01*
X108885535Y-116792857D01*
X117606964Y-117878571D02*
X117656964Y-117935714D01*
X117592678Y-117992857D01*
X117542678Y-117935714D01*
X117606964Y-117878571D01*
X117592678Y-117992857D01*
X117685535Y-117250000D02*
X117735535Y-117307142D01*
X117671250Y-117364285D01*
X117621250Y-117307142D01*
X117685535Y-117250000D01*
X117671250Y-117364285D01*
X119456964Y-116792857D02*
X119571250Y-116792857D01*
X119678392Y-116850000D01*
X119728392Y-116907142D01*
X119771250Y-117021428D01*
X119799821Y-117250000D01*
X119764107Y-117535714D01*
X119678392Y-117764285D01*
X119606964Y-117878571D01*
X119542678Y-117935714D01*
X119421250Y-117992857D01*
X119306964Y-117992857D01*
X119199821Y-117935714D01*
X119149821Y-117878571D01*
X119106964Y-117764285D01*
X119078392Y-117535714D01*
X119114107Y-117250000D01*
X119199821Y-117021428D01*
X119271250Y-116907142D01*
X119335535Y-116850000D01*
X119456964Y-116792857D01*
X121192678Y-117535714D02*
X122106964Y-117535714D01*
X124164107Y-117992857D02*
X123478392Y-117992857D01*
X123821250Y-117992857D02*
X123971250Y-116792857D01*
X123835535Y-116964285D01*
X123706964Y-117078571D01*
X123585535Y-117135714D01*
X125056964Y-116792857D02*
X125171250Y-116792857D01*
X125278392Y-116850000D01*
X125328392Y-116907142D01*
X125371250Y-117021428D01*
X125399821Y-117250000D01*
X125364107Y-117535714D01*
X125278392Y-117764285D01*
X125206964Y-117878571D01*
X125142678Y-117935714D01*
X125021250Y-117992857D01*
X124906964Y-117992857D01*
X124799821Y-117935714D01*
X124749821Y-117878571D01*
X124706964Y-117764285D01*
X124678392Y-117535714D01*
X124714107Y-117250000D01*
X124799821Y-117021428D01*
X124871249Y-116907142D01*
X124935535Y-116850000D01*
X125056964Y-116792857D01*
X126735535Y-117992857D02*
X126835535Y-117192857D01*
X126821249Y-117307142D02*
X126885535Y-117250000D01*
X127006964Y-117192857D01*
X127178392Y-117192857D01*
X127285535Y-117250000D01*
X127328392Y-117364285D01*
X127249821Y-117992857D01*
X127328392Y-117364285D02*
X127399821Y-117250000D01*
X127521249Y-117192857D01*
X127692678Y-117192857D01*
X127799821Y-117250000D01*
X127842678Y-117364285D01*
X127764107Y-117992857D01*
X128314107Y-116792857D02*
X128564107Y-117992857D01*
X129114107Y-116792857D01*
X103559285Y-122583571D02*
X103559285Y-121083571D01*
X103559285Y-121797857D02*
X104416428Y-121797857D01*
X104416428Y-122583571D02*
X104416428Y-121083571D01*
X105059285Y-122155000D02*
X105773571Y-122155000D01*
X104916428Y-122583571D02*
X105416428Y-121083571D01*
X105916428Y-122583571D01*
X106416428Y-122583571D02*
X106416428Y-121083571D01*
X107273571Y-122583571D01*
X107273571Y-121083571D01*
X107916428Y-122155000D02*
X108630714Y-122155000D01*
X107773571Y-122583571D02*
X108273571Y-121083571D01*
X108773571Y-122583571D01*
X110130714Y-122583571D02*
X109630714Y-121869285D01*
X109273571Y-122583571D02*
X109273571Y-121083571D01*
X109845000Y-121083571D01*
X109987857Y-121155000D01*
X110059285Y-121226428D01*
X110130714Y-121369285D01*
X110130714Y-121583571D01*
X110059285Y-121726428D01*
X109987857Y-121797857D01*
X109845000Y-121869285D01*
X109273571Y-121869285D01*
X111059285Y-121083571D02*
X111345000Y-121083571D01*
X111487857Y-121155000D01*
X111630714Y-121297857D01*
X111702142Y-121583571D01*
X111702142Y-122083571D01*
X111630714Y-122369285D01*
X111487857Y-122512142D01*
X111345000Y-122583571D01*
X111059285Y-122583571D01*
X110916428Y-122512142D01*
X110773571Y-122369285D01*
X110702142Y-122083571D01*
X110702142Y-121583571D01*
X110773571Y-121297857D01*
X110916428Y-121155000D01*
X111059285Y-121083571D01*
X113487857Y-122583571D02*
X113487857Y-121083571D01*
X113845000Y-121083571D01*
X114059285Y-121155000D01*
X114202142Y-121297857D01*
X114273571Y-121440714D01*
X114345000Y-121726428D01*
X114345000Y-121940714D01*
X114273571Y-122226428D01*
X114202142Y-122369285D01*
X114059285Y-122512142D01*
X113845000Y-122583571D01*
X113487857Y-122583571D01*
X114916428Y-122155000D02*
X115630714Y-122155000D01*
X114773571Y-122583571D02*
X115273571Y-121083571D01*
X115773571Y-122583571D01*
X117273571Y-122726428D02*
X117130714Y-122655000D01*
X116987857Y-122512142D01*
X116773571Y-122297857D01*
X116630714Y-122226428D01*
X116487857Y-122226428D01*
X116559285Y-122583571D02*
X116416428Y-122512142D01*
X116273571Y-122369285D01*
X116202142Y-122083571D01*
X116202142Y-121583571D01*
X116273571Y-121297857D01*
X116416428Y-121155000D01*
X116559285Y-121083571D01*
X116845000Y-121083571D01*
X116987857Y-121155000D01*
X117130714Y-121297857D01*
X117202142Y-121583571D01*
X117202142Y-122083571D01*
X117130714Y-122369285D01*
X116987857Y-122512142D01*
X116845000Y-122583571D01*
X116559285Y-122583571D01*
X118773571Y-121083571D02*
X119273571Y-122583571D01*
X119773571Y-121083571D01*
X120845000Y-122512142D02*
X120702142Y-122583571D01*
X120416428Y-122583571D01*
X120273571Y-122512142D01*
X120202142Y-122369285D01*
X120202142Y-121797857D01*
X120273571Y-121655000D01*
X120416428Y-121583571D01*
X120702142Y-121583571D01*
X120845000Y-121655000D01*
X120916428Y-121797857D01*
X120916428Y-121940714D01*
X120202142Y-122083571D01*
X121559285Y-122583571D02*
X121559285Y-121583571D01*
X121559285Y-121869285D02*
X121630714Y-121726428D01*
X121702142Y-121655000D01*
X121845000Y-121583571D01*
X121987857Y-121583571D01*
X122416428Y-122512142D02*
X122559285Y-122583571D01*
X122845000Y-122583571D01*
X122987857Y-122512142D01*
X123059285Y-122369285D01*
X123059285Y-122297857D01*
X122987857Y-122155000D01*
X122845000Y-122083571D01*
X122630714Y-122083571D01*
X122487857Y-122012142D01*
X122416428Y-121869285D01*
X122416428Y-121797857D01*
X122487857Y-121655000D01*
X122630714Y-121583571D01*
X122845000Y-121583571D01*
X122987857Y-121655000D01*
X123702142Y-122583571D02*
X123702142Y-121583571D01*
X123702142Y-121083571D02*
X123630714Y-121155000D01*
X123702142Y-121226428D01*
X123773571Y-121155000D01*
X123702142Y-121083571D01*
X123702142Y-121226428D01*
X124630714Y-122583571D02*
X124487857Y-122512142D01*
X124416428Y-122440714D01*
X124345000Y-122297857D01*
X124345000Y-121869285D01*
X124416428Y-121726428D01*
X124487857Y-121655000D01*
X124630714Y-121583571D01*
X124845000Y-121583571D01*
X124987857Y-121655000D01*
X125059285Y-121726428D01*
X125130714Y-121869285D01*
X125130714Y-122297857D01*
X125059285Y-122440714D01*
X124987857Y-122512142D01*
X124845000Y-122583571D01*
X124630714Y-122583571D01*
X125773571Y-121583571D02*
X125773571Y-122583571D01*
X125773571Y-121726428D02*
X125845000Y-121655000D01*
X125987857Y-121583571D01*
X126202142Y-121583571D01*
X126345000Y-121655000D01*
X126416428Y-121797857D01*
X126416428Y-122583571D01*
X129059285Y-122583571D02*
X128202142Y-122583571D01*
X128630714Y-122583571D02*
X128630714Y-121083571D01*
X128487857Y-121297857D01*
X128345000Y-121440714D01*
X128202142Y-121512142D01*
X115416428Y-123633571D02*
X115559285Y-123633571D01*
X115702142Y-123705000D01*
X115773571Y-123776428D01*
X115845000Y-123919285D01*
X115916428Y-124205000D01*
X115916428Y-124562142D01*
X115845000Y-124847857D01*
X115773571Y-124990714D01*
X115702142Y-125062142D01*
X115559285Y-125133571D01*
X115416428Y-125133571D01*
X115273571Y-125062142D01*
X115202142Y-124990714D01*
X115130714Y-124847857D01*
X115059285Y-124562142D01*
X115059285Y-124205000D01*
X115130714Y-123919285D01*
X115202142Y-123776428D01*
X115273571Y-123705000D01*
X115416428Y-123633571D01*
X116416428Y-123633571D02*
X117416428Y-123633571D01*
X116773571Y-125133571D01*
X119059285Y-123562142D02*
X117773571Y-125490714D01*
X119487857Y-123776428D02*
X119559285Y-123705000D01*
X119702142Y-123633571D01*
X120059285Y-123633571D01*
X120202142Y-123705000D01*
X120273571Y-123776428D01*
X120345000Y-123919285D01*
X120345000Y-124062142D01*
X120273571Y-124276428D01*
X119416428Y-125133571D01*
X120345000Y-125133571D01*
X121702142Y-123633571D02*
X120987857Y-123633571D01*
X120916428Y-124347857D01*
X120987857Y-124276428D01*
X121130714Y-124205000D01*
X121487857Y-124205000D01*
X121630714Y-124276428D01*
X121702142Y-124347857D01*
X121773571Y-124490714D01*
X121773571Y-124847857D01*
X121702142Y-124990714D01*
X121630714Y-125062142D01*
X121487857Y-125133571D01*
X121130714Y-125133571D01*
X120987857Y-125062142D01*
X120916428Y-124990714D01*
X123487857Y-123562142D02*
X122202142Y-125490714D01*
X123916428Y-123776428D02*
X123987857Y-123705000D01*
X124130714Y-123633571D01*
X124487857Y-123633571D01*
X124630714Y-123705000D01*
X124702142Y-123776428D01*
X124773571Y-123919285D01*
X124773571Y-124062142D01*
X124702142Y-124276428D01*
X123845000Y-125133571D01*
X124773571Y-125133571D01*
X125702142Y-123633571D02*
X125845000Y-123633571D01*
X125987857Y-123705000D01*
X126059285Y-123776428D01*
X126130714Y-123919285D01*
X126202142Y-124205000D01*
X126202142Y-124562142D01*
X126130714Y-124847857D01*
X126059285Y-124990714D01*
X125987857Y-125062142D01*
X125845000Y-125133571D01*
X125702142Y-125133571D01*
X125559285Y-125062142D01*
X125487857Y-124990714D01*
X125416428Y-124847857D01*
X125345000Y-124562142D01*
X125345000Y-124205000D01*
X125416428Y-123919285D01*
X125487857Y-123776428D01*
X125559285Y-123705000D01*
X125702142Y-123633571D01*
X127630714Y-125133571D02*
X126773571Y-125133571D01*
X127202142Y-125133571D02*
X127202142Y-123633571D01*
X127059285Y-123847857D01*
X126916428Y-123990714D01*
X126773571Y-124062142D01*
X128487857Y-124276428D02*
X128345000Y-124205000D01*
X128273571Y-124133571D01*
X128202142Y-123990714D01*
X128202142Y-123919285D01*
X128273571Y-123776428D01*
X128345000Y-123705000D01*
X128487857Y-123633571D01*
X128773571Y-123633571D01*
X128916428Y-123705000D01*
X128987857Y-123776428D01*
X129059285Y-123919285D01*
X129059285Y-123990714D01*
X128987857Y-124133571D01*
X128916428Y-124205000D01*
X128773571Y-124276428D01*
X128487857Y-124276428D01*
X128345000Y-124347857D01*
X128273571Y-124419285D01*
X128202142Y-124562142D01*
X128202142Y-124847857D01*
X128273571Y-124990714D01*
X128345000Y-125062142D01*
X128487857Y-125133571D01*
X128773571Y-125133571D01*
X128916428Y-125062142D01*
X128987857Y-124990714D01*
X129059285Y-124847857D01*
X129059285Y-124562142D01*
X128987857Y-124419285D01*
X128916428Y-124347857D01*
X128773571Y-124276428D01*
X118416428Y-126183571D02*
X118416428Y-127255000D01*
X118345000Y-127469285D01*
X118202142Y-127612142D01*
X117987857Y-127683571D01*
X117845000Y-127683571D01*
X119773571Y-127683571D02*
X119773571Y-126897857D01*
X119702142Y-126755000D01*
X119559285Y-126683571D01*
X119273571Y-126683571D01*
X119130714Y-126755000D01*
X119773571Y-127612142D02*
X119630714Y-127683571D01*
X119273571Y-127683571D01*
X119130714Y-127612142D01*
X119059285Y-127469285D01*
X119059285Y-127326428D01*
X119130714Y-127183571D01*
X119273571Y-127112142D01*
X119630714Y-127112142D01*
X119773571Y-127040714D01*
X121059285Y-127612142D02*
X120916428Y-127683571D01*
X120630714Y-127683571D01*
X120487857Y-127612142D01*
X120416428Y-127469285D01*
X120416428Y-126897857D01*
X120487857Y-126755000D01*
X120630714Y-126683571D01*
X120916428Y-126683571D01*
X121059285Y-126755000D01*
X121130714Y-126897857D01*
X121130714Y-127040714D01*
X120416428Y-127183571D01*
X121773571Y-127683571D02*
X121773571Y-126683571D01*
X121773571Y-126969285D02*
X121845000Y-126826428D01*
X121916428Y-126755000D01*
X122059285Y-126683571D01*
X122202142Y-126683571D01*
X122702142Y-127683571D02*
X122702142Y-126683571D01*
X122702142Y-126183571D02*
X122630714Y-126255000D01*
X122702142Y-126326428D01*
X122773571Y-126255000D01*
X122702142Y-126183571D01*
X122702142Y-126326428D01*
X123416428Y-126683571D02*
X123416428Y-127683571D01*
X123416428Y-126826428D02*
X123487857Y-126755000D01*
X123630714Y-126683571D01*
X123845000Y-126683571D01*
X123987857Y-126755000D01*
X124059285Y-126897857D01*
X124059285Y-127683571D01*
X126630714Y-127683571D02*
X125916428Y-127683571D01*
X125916428Y-126183571D01*
X127702142Y-127612142D02*
X127559285Y-127683571D01*
X127273571Y-127683571D01*
X127130714Y-127612142D01*
X127059285Y-127469285D01*
X127059285Y-126897857D01*
X127130714Y-126755000D01*
X127273571Y-126683571D01*
X127559285Y-126683571D01*
X127702142Y-126755000D01*
X127773571Y-126897857D01*
X127773571Y-127040714D01*
X127059285Y-127183571D01*
X128987857Y-127612142D02*
X128845000Y-127683571D01*
X128559285Y-127683571D01*
X128416428Y-127612142D01*
X128345000Y-127469285D01*
X128345000Y-126897857D01*
X128416428Y-126755000D01*
X128559285Y-126683571D01*
X128845000Y-126683571D01*
X128987857Y-126755000D01*
X129059285Y-126897857D01*
X129059285Y-127040714D01*
X128345000Y-127183571D01*
X100844999Y-130162142D02*
X101059285Y-130233571D01*
X101416428Y-130233571D01*
X101559285Y-130162142D01*
X101630714Y-130090714D01*
X101702142Y-129947857D01*
X101702142Y-129805000D01*
X101630714Y-129662142D01*
X101559285Y-129590714D01*
X101416428Y-129519285D01*
X101130714Y-129447857D01*
X100987857Y-129376428D01*
X100916428Y-129305000D01*
X100844999Y-129162142D01*
X100844999Y-129019285D01*
X100916428Y-128876428D01*
X100987857Y-128805000D01*
X101130714Y-128733571D01*
X101487857Y-128733571D01*
X101702142Y-128805000D01*
X102916428Y-130162142D02*
X102773571Y-130233571D01*
X102487857Y-130233571D01*
X102344999Y-130162142D01*
X102273571Y-130019285D01*
X102273571Y-129447857D01*
X102344999Y-129305000D01*
X102487857Y-129233571D01*
X102773571Y-129233571D01*
X102916428Y-129305000D01*
X102987857Y-129447857D01*
X102987857Y-129590714D01*
X102273571Y-129733571D01*
X103844999Y-130233571D02*
X103702142Y-130162142D01*
X103630714Y-130090714D01*
X103559285Y-129947857D01*
X103559285Y-129519285D01*
X103630714Y-129376428D01*
X103702142Y-129305000D01*
X103844999Y-129233571D01*
X104059285Y-129233571D01*
X104202142Y-129305000D01*
X104273571Y-129376428D01*
X104344999Y-129519285D01*
X104344999Y-129947857D01*
X104273571Y-130090714D01*
X104202142Y-130162142D01*
X104059285Y-130233571D01*
X103844999Y-130233571D01*
X105630714Y-129233571D02*
X105630714Y-130233571D01*
X104987857Y-129233571D02*
X104987857Y-130019285D01*
X105059285Y-130162142D01*
X105202142Y-130233571D01*
X105416428Y-130233571D01*
X105559285Y-130162142D01*
X105630714Y-130090714D01*
X106559285Y-130233571D02*
X106416428Y-130162142D01*
X106344999Y-130019285D01*
X106344999Y-128733571D01*
X108273571Y-130233571D02*
X108273571Y-128733571D01*
X109130714Y-130233571D01*
X109130714Y-128733571D01*
X110487857Y-130233571D02*
X110487857Y-129447857D01*
X110416428Y-129305000D01*
X110273571Y-129233571D01*
X109987857Y-129233571D01*
X109844999Y-129305000D01*
X110487857Y-130162142D02*
X110344999Y-130233571D01*
X109987857Y-130233571D01*
X109844999Y-130162142D01*
X109773571Y-130019285D01*
X109773571Y-129876428D01*
X109844999Y-129733571D01*
X109987857Y-129662142D01*
X110344999Y-129662142D01*
X110487857Y-129590714D01*
X110987857Y-129233571D02*
X111559285Y-129233571D01*
X111202142Y-128733571D02*
X111202142Y-130019285D01*
X111273571Y-130162142D01*
X111416428Y-130233571D01*
X111559285Y-130233571D01*
X112059285Y-130233571D02*
X112059285Y-129233571D01*
X112059285Y-128733571D02*
X111987857Y-128805000D01*
X112059285Y-128876428D01*
X112130714Y-128805000D01*
X112059285Y-128733571D01*
X112059285Y-128876428D01*
X112987857Y-130233571D02*
X112844999Y-130162142D01*
X112773571Y-130090714D01*
X112702142Y-129947857D01*
X112702142Y-129519285D01*
X112773571Y-129376428D01*
X112844999Y-129305000D01*
X112987857Y-129233571D01*
X113202142Y-129233571D01*
X113344999Y-129305000D01*
X113416428Y-129376428D01*
X113487857Y-129519285D01*
X113487857Y-129947857D01*
X113416428Y-130090714D01*
X113344999Y-130162142D01*
X113202142Y-130233571D01*
X112987857Y-130233571D01*
X114130714Y-129233571D02*
X114130714Y-130233571D01*
X114130714Y-129376428D02*
X114202142Y-129305000D01*
X114344999Y-129233571D01*
X114559285Y-129233571D01*
X114702142Y-129305000D01*
X114773571Y-129447857D01*
X114773571Y-130233571D01*
X116130714Y-130233571D02*
X116130714Y-129447857D01*
X116059285Y-129305000D01*
X115916428Y-129233571D01*
X115630714Y-129233571D01*
X115487857Y-129305000D01*
X116130714Y-130162142D02*
X115987857Y-130233571D01*
X115630714Y-130233571D01*
X115487857Y-130162142D01*
X115416428Y-130019285D01*
X115416428Y-129876428D01*
X115487857Y-129733571D01*
X115630714Y-129662142D01*
X115987857Y-129662142D01*
X116130714Y-129590714D01*
X117059285Y-130233571D02*
X116916428Y-130162142D01*
X116844999Y-130019285D01*
X116844999Y-128733571D01*
X118773571Y-128733571D02*
X118773571Y-129947857D01*
X118844999Y-130090714D01*
X118916428Y-130162142D01*
X119059285Y-130233571D01*
X119344999Y-130233571D01*
X119487857Y-130162142D01*
X119559285Y-130090714D01*
X119630714Y-129947857D01*
X119630714Y-128733571D01*
X120344999Y-129233571D02*
X120344999Y-130233571D01*
X120344999Y-129376428D02*
X120416428Y-129305000D01*
X120559285Y-129233571D01*
X120773571Y-129233571D01*
X120916428Y-129305000D01*
X120987857Y-129447857D01*
X120987857Y-130233571D01*
X121702142Y-130233571D02*
X121702142Y-129233571D01*
X121702142Y-128733571D02*
X121630714Y-128805000D01*
X121702142Y-128876428D01*
X121773571Y-128805000D01*
X121702142Y-128733571D01*
X121702142Y-128876428D01*
X122273571Y-129233571D02*
X122630714Y-130233571D01*
X122987857Y-129233571D01*
X124130714Y-130162142D02*
X123987857Y-130233571D01*
X123702142Y-130233571D01*
X123559285Y-130162142D01*
X123487857Y-130019285D01*
X123487857Y-129447857D01*
X123559285Y-129305000D01*
X123702142Y-129233571D01*
X123987857Y-129233571D01*
X124130714Y-129305000D01*
X124202142Y-129447857D01*
X124202142Y-129590714D01*
X123487857Y-129733571D01*
X124844999Y-130233571D02*
X124844999Y-129233571D01*
X124844999Y-129519285D02*
X124916428Y-129376428D01*
X124987857Y-129305000D01*
X125130714Y-129233571D01*
X125273571Y-129233571D01*
X125702142Y-130162142D02*
X125844999Y-130233571D01*
X126130714Y-130233571D01*
X126273571Y-130162142D01*
X126344999Y-130019285D01*
X126344999Y-129947857D01*
X126273571Y-129805000D01*
X126130714Y-129733571D01*
X125916428Y-129733571D01*
X125773571Y-129662142D01*
X125702142Y-129519285D01*
X125702142Y-129447857D01*
X125773571Y-129305000D01*
X125916428Y-129233571D01*
X126130714Y-129233571D01*
X126273571Y-129305000D01*
X126987857Y-130233571D02*
X126987857Y-129233571D01*
X126987857Y-128733571D02*
X126916428Y-128805000D01*
X126987857Y-128876428D01*
X127059285Y-128805000D01*
X126987857Y-128733571D01*
X126987857Y-128876428D01*
X127487857Y-129233571D02*
X128059285Y-129233571D01*
X127702142Y-128733571D02*
X127702142Y-130019285D01*
X127773571Y-130162142D01*
X127916428Y-130233571D01*
X128059285Y-130233571D01*
X128416428Y-129233571D02*
X128773571Y-130233571D01*
X129130714Y-129233571D02*
X128773571Y-130233571D01*
X128630714Y-130590714D01*
X128559285Y-130662142D01*
X128416428Y-130733571D01*
D11*
G04 #@! TO.C,C1*
X53490000Y-54740000D02*
X51940000Y-54740000D01*
X48160000Y-54740000D02*
X49710000Y-54740000D01*
X48920000Y-49400000D02*
X49710000Y-49400000D01*
X52730000Y-49400000D02*
X51940000Y-49400000D01*
X53490000Y-54740000D02*
X53490000Y-50160000D01*
X53490000Y-50160000D02*
X52730000Y-49400000D01*
X48920000Y-49400000D02*
X48160000Y-50160000D01*
X48160000Y-50160000D02*
X48160000Y-54740000D01*
G04 #@! TO.C,C2*
X53490000Y-72520000D02*
X51940000Y-72520000D01*
X48160000Y-72520000D02*
X49710000Y-72520000D01*
X48920000Y-67180000D02*
X49710000Y-67180000D01*
X52730000Y-67180000D02*
X51940000Y-67180000D01*
X53490000Y-72520000D02*
X53490000Y-67940000D01*
X53490000Y-67940000D02*
X52730000Y-67180000D01*
X48920000Y-67180000D02*
X48160000Y-67940000D01*
X48160000Y-67940000D02*
X48160000Y-72520000D01*
G04 #@! TO.C,C3*
X122300000Y-73280000D02*
X119620000Y-73280000D01*
X113920000Y-73280000D02*
X116600000Y-73280000D01*
X114680000Y-81660000D02*
X116600000Y-81660000D01*
X121540000Y-81660000D02*
X119620000Y-81660000D01*
X122300000Y-73280000D02*
X122300000Y-80900000D01*
X122300000Y-80900000D02*
X121540000Y-81660000D01*
X114680000Y-81660000D02*
X113920000Y-80900000D01*
X113920000Y-80900000D02*
X113920000Y-73280000D01*
G04 #@! TO.C,R1*
X101735000Y-65100000D02*
G75*
G03X101735000Y-65100000I-950000J0D01*
G01*
X106285000Y-68390000D02*
X99455000Y-68390000D01*
X106285000Y-63770000D02*
X99455000Y-63770000D01*
X106285000Y-68390000D02*
X106285000Y-67775000D01*
X106285000Y-66845000D02*
X106285000Y-63770000D01*
X99455000Y-68390000D02*
X99455000Y-67775000D01*
X99455000Y-66845000D02*
X99455000Y-63770000D01*
X100064000Y-65704000D02*
X101389000Y-64379000D01*
X100180000Y-65820000D02*
X101505000Y-64495000D01*
D12*
G04 #@! TO.C,R2*
X57150000Y-50800000D02*
X77470000Y-50800000D01*
X77470000Y-40640000D02*
X57150000Y-40640000D01*
X77470000Y-40640000D02*
X77470000Y-50800000D01*
X57150000Y-50800000D02*
X57150000Y-40640000D01*
G04 #@! TO.C,R3*
X57150000Y-68580000D02*
X77470000Y-68580000D01*
X77470000Y-58420000D02*
X57150000Y-58420000D01*
X77470000Y-58420000D02*
X77470000Y-68580000D01*
X57150000Y-68580000D02*
X57150000Y-58420000D01*
D11*
G04 #@! TO.C,R4*
X61960000Y-55680000D02*
X59960000Y-55680000D01*
X59960000Y-53540000D02*
X61960000Y-53540000D01*
G04 #@! TO.C,R5*
X61960000Y-73460000D02*
X59960000Y-73460000D01*
X59960000Y-71320000D02*
X61960000Y-71320000D01*
G04 #@! TO.C,R6*
X113230000Y-50530000D02*
X113230000Y-48530000D01*
X115370000Y-48530000D02*
X115370000Y-50530000D01*
G04 #@! TO.C,R7*
X113230000Y-59420000D02*
X113230000Y-57420000D01*
X115370000Y-57420000D02*
X115370000Y-59420000D01*
D12*
G04 #@! TO.C,U1*
X44640000Y-40720000D02*
X44640000Y-50720000D01*
X44640000Y-50720000D02*
X36640000Y-50720000D01*
X36640000Y-50720000D02*
X36640000Y-40720000D01*
X36640000Y-40720000D02*
X44640000Y-40720000D01*
G04 #@! TO.C,U2*
X44640000Y-58500000D02*
X44640000Y-68500000D01*
X44640000Y-68500000D02*
X36640000Y-68500000D01*
X36640000Y-68500000D02*
X36640000Y-58500000D01*
X36640000Y-58500000D02*
X44640000Y-58500000D01*
G04 #@! TO.C,U3*
X44640000Y-76280000D02*
X44640000Y-86280000D01*
X44640000Y-86280000D02*
X36640000Y-86280000D01*
X36640000Y-86280000D02*
X36640000Y-76280000D01*
X36640000Y-76280000D02*
X44640000Y-76280000D01*
G04 #@! TO.C,U4*
X46990000Y-105410000D02*
X36830000Y-105410000D01*
X36830000Y-105410000D02*
X36830000Y-90170000D01*
X36830000Y-90170000D02*
X46990000Y-90170000D01*
X46990000Y-90170000D02*
X46990000Y-105410000D01*
D11*
G04 #@! TO.C,U5*
X105140000Y-72330000D02*
G75*
G02X103140000Y-72330000I-1000000J0D01*
G01*
X103140000Y-72330000D02*
X101490000Y-72330000D01*
X101490000Y-72330000D02*
X101490000Y-82610000D01*
X101490000Y-82610000D02*
X106790000Y-82610000D01*
X106790000Y-82610000D02*
X106790000Y-72330000D01*
X106790000Y-72330000D02*
X105140000Y-72330000D01*
X99000000Y-72270000D02*
X99000000Y-82670000D01*
X99000000Y-82670000D02*
X109280000Y-82670000D01*
X109280000Y-82670000D02*
X109280000Y-72270000D01*
X109280000Y-72270000D02*
X99000000Y-72270000D01*
D12*
G04 #@! TO.C,U6*
X81360000Y-125540000D02*
X91360000Y-125540000D01*
X91360000Y-125540000D02*
X91360000Y-133540000D01*
X91360000Y-133540000D02*
X81360000Y-133540000D01*
X81360000Y-133540000D02*
X81360000Y-125540000D01*
G04 #@! TO.C,U7*
X67390000Y-125540000D02*
X77390000Y-125540000D01*
X77390000Y-125540000D02*
X77390000Y-133540000D01*
X77390000Y-133540000D02*
X67390000Y-133540000D01*
X67390000Y-133540000D02*
X67390000Y-125540000D01*
G04 #@! TO.C,U8*
X63500000Y-123190000D02*
X63500000Y-133350000D01*
X63500000Y-133350000D02*
X48260000Y-133350000D01*
X48260000Y-133350000D02*
X48260000Y-123190000D01*
X48260000Y-123190000D02*
X63500000Y-123190000D01*
D11*
G04 #@! TO.C,U9*
X105140000Y-40580000D02*
G75*
G02X103140000Y-40580000I-1000000J0D01*
G01*
X103140000Y-40580000D02*
X101490000Y-40580000D01*
X101490000Y-40580000D02*
X101490000Y-58480000D01*
X101490000Y-58480000D02*
X106790000Y-58480000D01*
X106790000Y-58480000D02*
X106790000Y-40580000D01*
X106790000Y-40580000D02*
X105140000Y-40580000D01*
X99000000Y-40520000D02*
X99000000Y-58540000D01*
X99000000Y-58540000D02*
X109280000Y-58540000D01*
X109280000Y-58540000D02*
X109280000Y-40520000D01*
X109280000Y-40520000D02*
X99000000Y-40520000D01*
D12*
G04 #@! TO.C,U10*
X121920000Y-39370000D02*
X132080000Y-39370000D01*
X132080000Y-39370000D02*
X132080000Y-54610000D01*
X132080000Y-54610000D02*
X121920000Y-54610000D01*
X121920000Y-54610000D02*
X121920000Y-39370000D01*
D13*
G04 #@! TO.C,G\002A\002A\002A*
G36*
X61762569Y-105659259D02*
X61791508Y-105880508D01*
X61805729Y-106215283D01*
X61806667Y-106341333D01*
X61802605Y-106676915D01*
X61791725Y-106937089D01*
X61775986Y-107084075D01*
X61767171Y-107103333D01*
X61701614Y-107040596D01*
X61561383Y-106873483D01*
X61372659Y-106633645D01*
X61301505Y-106540373D01*
X60875333Y-105977414D01*
X60875333Y-106498040D01*
X60862759Y-106773759D01*
X60829765Y-106961247D01*
X60790667Y-107018667D01*
X60749434Y-106939075D01*
X60720235Y-106720169D01*
X60706576Y-106391754D01*
X60706000Y-106299000D01*
X60710290Y-105973764D01*
X60721740Y-105725031D01*
X60738214Y-105591675D01*
X60745495Y-105579333D01*
X60811052Y-105642070D01*
X60951283Y-105809183D01*
X61140008Y-106049022D01*
X61211162Y-106142293D01*
X61637333Y-106705253D01*
X61637333Y-106142293D01*
X61649054Y-105849751D01*
X61680216Y-105648899D01*
X61722000Y-105579333D01*
X61762569Y-105659259D01*
X61762569Y-105659259D01*
G37*
X61762569Y-105659259D02*
X61791508Y-105880508D01*
X61805729Y-106215283D01*
X61806667Y-106341333D01*
X61802605Y-106676915D01*
X61791725Y-106937089D01*
X61775986Y-107084075D01*
X61767171Y-107103333D01*
X61701614Y-107040596D01*
X61561383Y-106873483D01*
X61372659Y-106633645D01*
X61301505Y-106540373D01*
X60875333Y-105977414D01*
X60875333Y-106498040D01*
X60862759Y-106773759D01*
X60829765Y-106961247D01*
X60790667Y-107018667D01*
X60749434Y-106939075D01*
X60720235Y-106720169D01*
X60706576Y-106391754D01*
X60706000Y-106299000D01*
X60710290Y-105973764D01*
X60721740Y-105725031D01*
X60738214Y-105591675D01*
X60745495Y-105579333D01*
X60811052Y-105642070D01*
X60951283Y-105809183D01*
X61140008Y-106049022D01*
X61211162Y-106142293D01*
X61637333Y-106705253D01*
X61637333Y-106142293D01*
X61649054Y-105849751D01*
X61680216Y-105648899D01*
X61722000Y-105579333D01*
X61762569Y-105659259D01*
G36*
X55485048Y-105610581D02*
X55541333Y-105670727D01*
X55469797Y-105724586D01*
X55306852Y-105710620D01*
X55069800Y-105709092D01*
X54890251Y-105795334D01*
X54812620Y-105940201D01*
X54826117Y-106026067D01*
X54946619Y-106143711D01*
X55065886Y-106172000D01*
X55297070Y-106226669D01*
X55500829Y-106360999D01*
X55617080Y-106530471D01*
X55626000Y-106587012D01*
X55566686Y-106759641D01*
X55471166Y-106878544D01*
X55292476Y-106969443D01*
X55052566Y-107012952D01*
X54819806Y-107005449D01*
X54662561Y-106943317D01*
X54645091Y-106922281D01*
X54654950Y-106863683D01*
X54805613Y-106866218D01*
X54872927Y-106877118D01*
X55152568Y-106878580D01*
X55349211Y-106786696D01*
X55430402Y-106622985D01*
X55416307Y-106516884D01*
X55305488Y-106376569D01*
X55118342Y-106341333D01*
X54851829Y-106285379D01*
X54680281Y-106142567D01*
X54626122Y-105950477D01*
X54711774Y-105746685D01*
X54743047Y-105712381D01*
X54888373Y-105635134D01*
X55099964Y-105590358D01*
X55318596Y-105581144D01*
X55485048Y-105610581D01*
X55485048Y-105610581D01*
G37*
X55485048Y-105610581D02*
X55541333Y-105670727D01*
X55469797Y-105724586D01*
X55306852Y-105710620D01*
X55069800Y-105709092D01*
X54890251Y-105795334D01*
X54812620Y-105940201D01*
X54826117Y-106026067D01*
X54946619Y-106143711D01*
X55065886Y-106172000D01*
X55297070Y-106226669D01*
X55500829Y-106360999D01*
X55617080Y-106530471D01*
X55626000Y-106587012D01*
X55566686Y-106759641D01*
X55471166Y-106878544D01*
X55292476Y-106969443D01*
X55052566Y-107012952D01*
X54819806Y-107005449D01*
X54662561Y-106943317D01*
X54645091Y-106922281D01*
X54654950Y-106863683D01*
X54805613Y-106866218D01*
X54872927Y-106877118D01*
X55152568Y-106878580D01*
X55349211Y-106786696D01*
X55430402Y-106622985D01*
X55416307Y-106516884D01*
X55305488Y-106376569D01*
X55118342Y-106341333D01*
X54851829Y-106285379D01*
X54680281Y-106142567D01*
X54626122Y-105950477D01*
X54711774Y-105746685D01*
X54743047Y-105712381D01*
X54888373Y-105635134D01*
X55099964Y-105590358D01*
X55318596Y-105581144D01*
X55485048Y-105610581D01*
G36*
X56155167Y-105931550D02*
X56358656Y-105941649D01*
X56401611Y-105953653D01*
X56292804Y-105972503D01*
X56239833Y-105979247D01*
X56040545Y-106042399D01*
X55967401Y-106141676D01*
X56031308Y-106238131D01*
X56155167Y-106281581D01*
X56345667Y-106318273D01*
X56155167Y-106329803D01*
X56023771Y-106367197D01*
X55971317Y-106490701D01*
X55964667Y-106632556D01*
X55978624Y-106824946D01*
X56053891Y-106914528D01*
X56240563Y-106952489D01*
X56282167Y-106956990D01*
X56454826Y-106977075D01*
X56479599Y-106989418D01*
X56348188Y-106998668D01*
X56197500Y-107004434D01*
X55795333Y-107018667D01*
X55795333Y-105918000D01*
X56155167Y-105931550D01*
X56155167Y-105931550D01*
G37*
X56155167Y-105931550D02*
X56358656Y-105941649D01*
X56401611Y-105953653D01*
X56292804Y-105972503D01*
X56239833Y-105979247D01*
X56040545Y-106042399D01*
X55967401Y-106141676D01*
X56031308Y-106238131D01*
X56155167Y-106281581D01*
X56345667Y-106318273D01*
X56155167Y-106329803D01*
X56023771Y-106367197D01*
X55971317Y-106490701D01*
X55964667Y-106632556D01*
X55978624Y-106824946D01*
X56053891Y-106914528D01*
X56240563Y-106952489D01*
X56282167Y-106956990D01*
X56454826Y-106977075D01*
X56479599Y-106989418D01*
X56348188Y-106998668D01*
X56197500Y-107004434D01*
X55795333Y-107018667D01*
X55795333Y-105918000D01*
X56155167Y-105931550D01*
G36*
X57460148Y-105980559D02*
X57665764Y-106158710D01*
X57742500Y-106438164D01*
X57742667Y-106453833D01*
X57672221Y-106725282D01*
X57491123Y-106914183D01*
X57244731Y-107003827D01*
X56978406Y-106977503D01*
X56741425Y-106822710D01*
X56585185Y-106559991D01*
X56581332Y-106432047D01*
X56726667Y-106432047D01*
X56780581Y-106595019D01*
X56907039Y-106774901D01*
X57053108Y-106906009D01*
X57131161Y-106934000D01*
X57243130Y-106889914D01*
X57385161Y-106802199D01*
X57532839Y-106615123D01*
X57558367Y-106389218D01*
X57477438Y-106177830D01*
X57305740Y-106034306D01*
X57150000Y-106002667D01*
X56936668Y-106076455D01*
X56775511Y-106255035D01*
X56726667Y-106432047D01*
X56581332Y-106432047D01*
X56577367Y-106300416D01*
X56700841Y-106082707D01*
X56938475Y-105945584D01*
X57141678Y-105918000D01*
X57460148Y-105980559D01*
X57460148Y-105980559D01*
G37*
X57460148Y-105980559D02*
X57665764Y-106158710D01*
X57742500Y-106438164D01*
X57742667Y-106453833D01*
X57672221Y-106725282D01*
X57491123Y-106914183D01*
X57244731Y-107003827D01*
X56978406Y-106977503D01*
X56741425Y-106822710D01*
X56585185Y-106559991D01*
X56581332Y-106432047D01*
X56726667Y-106432047D01*
X56780581Y-106595019D01*
X56907039Y-106774901D01*
X57053108Y-106906009D01*
X57131161Y-106934000D01*
X57243130Y-106889914D01*
X57385161Y-106802199D01*
X57532839Y-106615123D01*
X57558367Y-106389218D01*
X57477438Y-106177830D01*
X57305740Y-106034306D01*
X57150000Y-106002667D01*
X56936668Y-106076455D01*
X56775511Y-106255035D01*
X56726667Y-106432047D01*
X56581332Y-106432047D01*
X56577367Y-106300416D01*
X56700841Y-106082707D01*
X56938475Y-105945584D01*
X57141678Y-105918000D01*
X57460148Y-105980559D01*
G36*
X58892454Y-105946200D02*
X58923422Y-106056836D01*
X58913720Y-106288957D01*
X58909137Y-106338524D01*
X58864460Y-106611580D01*
X58797033Y-106826391D01*
X58760998Y-106888857D01*
X58569616Y-107002797D01*
X58328600Y-107005536D01*
X58110618Y-106902987D01*
X58043801Y-106830494D01*
X57971032Y-106658936D01*
X57926525Y-106426580D01*
X57913138Y-106188795D01*
X57933732Y-106000947D01*
X57991167Y-105918404D01*
X57996667Y-105918000D01*
X58047499Y-105993600D01*
X58077704Y-106184557D01*
X58081333Y-106292952D01*
X58121161Y-106596249D01*
X58226860Y-106811800D01*
X58377753Y-106908315D01*
X58480175Y-106896536D01*
X58609918Y-106854292D01*
X58638591Y-106849333D01*
X58657988Y-106772732D01*
X58670849Y-106575146D01*
X58674000Y-106383667D01*
X58683912Y-106107949D01*
X58720716Y-105964937D01*
X58795018Y-105918790D01*
X58811772Y-105918000D01*
X58892454Y-105946200D01*
X58892454Y-105946200D01*
G37*
X58892454Y-105946200D02*
X58923422Y-106056836D01*
X58913720Y-106288957D01*
X58909137Y-106338524D01*
X58864460Y-106611580D01*
X58797033Y-106826391D01*
X58760998Y-106888857D01*
X58569616Y-107002797D01*
X58328600Y-107005536D01*
X58110618Y-106902987D01*
X58043801Y-106830494D01*
X57971032Y-106658936D01*
X57926525Y-106426580D01*
X57913138Y-106188795D01*
X57933732Y-106000947D01*
X57991167Y-105918404D01*
X57996667Y-105918000D01*
X58047499Y-105993600D01*
X58077704Y-106184557D01*
X58081333Y-106292952D01*
X58121161Y-106596249D01*
X58226860Y-106811800D01*
X58377753Y-106908315D01*
X58480175Y-106896536D01*
X58609918Y-106854292D01*
X58638591Y-106849333D01*
X58657988Y-106772732D01*
X58670849Y-106575146D01*
X58674000Y-106383667D01*
X58683912Y-106107949D01*
X58720716Y-105964937D01*
X58795018Y-105918790D01*
X58811772Y-105918000D01*
X58892454Y-105946200D01*
G36*
X59311871Y-105995036D02*
X59342481Y-106195905D01*
X59351333Y-106420889D01*
X59351333Y-106923778D01*
X59668833Y-106956990D01*
X59841493Y-106977075D01*
X59866265Y-106989418D01*
X59734855Y-106998668D01*
X59584167Y-107004434D01*
X59182000Y-107018667D01*
X59182000Y-106468333D01*
X59193963Y-106180751D01*
X59225652Y-105983857D01*
X59266667Y-105918000D01*
X59311871Y-105995036D01*
X59311871Y-105995036D01*
G37*
X59311871Y-105995036D02*
X59342481Y-106195905D01*
X59351333Y-106420889D01*
X59351333Y-106923778D01*
X59668833Y-106956990D01*
X59841493Y-106977075D01*
X59866265Y-106989418D01*
X59734855Y-106998668D01*
X59584167Y-107004434D01*
X59182000Y-107018667D01*
X59182000Y-106468333D01*
X59193963Y-106180751D01*
X59225652Y-105983857D01*
X59266667Y-105918000D01*
X59311871Y-105995036D01*
G36*
X62489924Y-105988152D02*
X62585602Y-106165261D01*
X62698343Y-106399310D01*
X62804925Y-106640280D01*
X62882130Y-106838153D01*
X62907333Y-106936509D01*
X62870212Y-107022410D01*
X62788891Y-106991035D01*
X62708432Y-106869004D01*
X62688101Y-106807000D01*
X62588911Y-106635400D01*
X62441667Y-106595333D01*
X62269526Y-106656784D01*
X62195232Y-106807000D01*
X62126328Y-106955552D01*
X62040096Y-107023124D01*
X61981596Y-106983118D01*
X61976000Y-106936414D01*
X62007722Y-106815786D01*
X62087773Y-106608492D01*
X62193482Y-106364886D01*
X62204634Y-106341333D01*
X62357000Y-106341333D01*
X62363713Y-106419352D01*
X62394336Y-106426000D01*
X62480554Y-106364539D01*
X62484000Y-106341333D01*
X62455113Y-106258868D01*
X62446663Y-106256667D01*
X62374377Y-106315995D01*
X62357000Y-106341333D01*
X62204634Y-106341333D01*
X62302180Y-106135322D01*
X62391194Y-105970153D01*
X62434526Y-105918000D01*
X62489924Y-105988152D01*
X62489924Y-105988152D01*
G37*
X62489924Y-105988152D02*
X62585602Y-106165261D01*
X62698343Y-106399310D01*
X62804925Y-106640280D01*
X62882130Y-106838153D01*
X62907333Y-106936509D01*
X62870212Y-107022410D01*
X62788891Y-106991035D01*
X62708432Y-106869004D01*
X62688101Y-106807000D01*
X62588911Y-106635400D01*
X62441667Y-106595333D01*
X62269526Y-106656784D01*
X62195232Y-106807000D01*
X62126328Y-106955552D01*
X62040096Y-107023124D01*
X61981596Y-106983118D01*
X61976000Y-106936414D01*
X62007722Y-106815786D01*
X62087773Y-106608492D01*
X62193482Y-106364886D01*
X62204634Y-106341333D01*
X62357000Y-106341333D01*
X62363713Y-106419352D01*
X62394336Y-106426000D01*
X62480554Y-106364539D01*
X62484000Y-106341333D01*
X62455113Y-106258868D01*
X62446663Y-106256667D01*
X62374377Y-106315995D01*
X62357000Y-106341333D01*
X62204634Y-106341333D01*
X62302180Y-106135322D01*
X62391194Y-105970153D01*
X62434526Y-105918000D01*
X62489924Y-105988152D01*
G36*
X63520333Y-105946210D02*
X63633346Y-105959685D01*
X63605833Y-105977752D01*
X63498878Y-106015258D01*
X63441571Y-106103543D01*
X63418813Y-106285311D01*
X63415333Y-106516555D01*
X63401053Y-106833247D01*
X63355157Y-106993111D01*
X63273067Y-107006481D01*
X63217778Y-106962222D01*
X63185884Y-106851836D01*
X63165420Y-106630250D01*
X63161333Y-106460111D01*
X63152943Y-106196028D01*
X63115813Y-106055505D01*
X63032001Y-105993112D01*
X62970833Y-105977752D01*
X62945112Y-105959064D01*
X63063060Y-105945848D01*
X63288333Y-105941060D01*
X63520333Y-105946210D01*
X63520333Y-105946210D01*
G37*
X63520333Y-105946210D02*
X63633346Y-105959685D01*
X63605833Y-105977752D01*
X63498878Y-106015258D01*
X63441571Y-106103543D01*
X63418813Y-106285311D01*
X63415333Y-106516555D01*
X63401053Y-106833247D01*
X63355157Y-106993111D01*
X63273067Y-107006481D01*
X63217778Y-106962222D01*
X63185884Y-106851836D01*
X63165420Y-106630250D01*
X63161333Y-106460111D01*
X63152943Y-106196028D01*
X63115813Y-106055505D01*
X63032001Y-105993112D01*
X62970833Y-105977752D01*
X62945112Y-105959064D01*
X63063060Y-105945848D01*
X63288333Y-105941060D01*
X63520333Y-105946210D01*
G36*
X63967577Y-105995757D02*
X63997868Y-106201740D01*
X64008000Y-106468333D01*
X64005299Y-106778956D01*
X63992867Y-106948701D01*
X63964205Y-107005991D01*
X63912816Y-106979251D01*
X63895111Y-106962222D01*
X63858409Y-106848245D01*
X63840852Y-106636716D01*
X63840945Y-106382921D01*
X63857195Y-106142146D01*
X63888106Y-105969676D01*
X63923333Y-105918000D01*
X63967577Y-105995757D01*
X63967577Y-105995757D01*
G37*
X63967577Y-105995757D02*
X63997868Y-106201740D01*
X64008000Y-106468333D01*
X64005299Y-106778956D01*
X63992867Y-106948701D01*
X63964205Y-107005991D01*
X63912816Y-106979251D01*
X63895111Y-106962222D01*
X63858409Y-106848245D01*
X63840852Y-106636716D01*
X63840945Y-106382921D01*
X63857195Y-106142146D01*
X63888106Y-105969676D01*
X63923333Y-105918000D01*
X63967577Y-105995757D01*
G36*
X65119572Y-105953903D02*
X65307211Y-106072833D01*
X65429246Y-106314906D01*
X65416992Y-106576188D01*
X65292443Y-106810709D01*
X65077595Y-106972496D01*
X64854667Y-107018667D01*
X64628269Y-106961363D01*
X64447298Y-106846035D01*
X64287984Y-106598490D01*
X64289025Y-106432047D01*
X64431333Y-106432047D01*
X64485248Y-106595019D01*
X64611705Y-106774901D01*
X64757775Y-106906009D01*
X64835828Y-106934000D01*
X64947796Y-106889914D01*
X65089828Y-106802199D01*
X65237505Y-106615123D01*
X65263034Y-106389218D01*
X65182104Y-106177830D01*
X65010407Y-106034306D01*
X64854667Y-106002667D01*
X64641334Y-106076455D01*
X64480178Y-106255035D01*
X64431333Y-106432047D01*
X64289025Y-106432047D01*
X64289740Y-106317920D01*
X64393801Y-106106172D01*
X64584876Y-105964281D01*
X64850300Y-105912667D01*
X65119572Y-105953903D01*
X65119572Y-105953903D01*
G37*
X65119572Y-105953903D02*
X65307211Y-106072833D01*
X65429246Y-106314906D01*
X65416992Y-106576188D01*
X65292443Y-106810709D01*
X65077595Y-106972496D01*
X64854667Y-107018667D01*
X64628269Y-106961363D01*
X64447298Y-106846035D01*
X64287984Y-106598490D01*
X64289025Y-106432047D01*
X64431333Y-106432047D01*
X64485248Y-106595019D01*
X64611705Y-106774901D01*
X64757775Y-106906009D01*
X64835828Y-106934000D01*
X64947796Y-106889914D01*
X65089828Y-106802199D01*
X65237505Y-106615123D01*
X65263034Y-106389218D01*
X65182104Y-106177830D01*
X65010407Y-106034306D01*
X64854667Y-106002667D01*
X64641334Y-106076455D01*
X64480178Y-106255035D01*
X64431333Y-106432047D01*
X64289025Y-106432047D01*
X64289740Y-106317920D01*
X64393801Y-106106172D01*
X64584876Y-105964281D01*
X64850300Y-105912667D01*
X65119572Y-105953903D01*
G36*
X66378667Y-106633030D02*
X66378667Y-106228185D01*
X66394100Y-105983969D01*
X66436722Y-105874685D01*
X66463333Y-105875667D01*
X66504020Y-105975014D01*
X66531823Y-106180252D01*
X66545769Y-106438951D01*
X66544885Y-106698683D01*
X66528196Y-106907018D01*
X66494729Y-107011529D01*
X66484500Y-107015364D01*
X66403778Y-106950823D01*
X66259943Y-106787046D01*
X66124667Y-106613198D01*
X65828333Y-106214333D01*
X65802528Y-106616500D01*
X65770436Y-106890353D01*
X65726419Y-107007767D01*
X65680355Y-106980224D01*
X65642123Y-106819209D01*
X65621600Y-106536206D01*
X65620461Y-106404833D01*
X65624255Y-105791000D01*
X66378667Y-106633030D01*
X66378667Y-106633030D01*
G37*
X66378667Y-106633030D02*
X66378667Y-106228185D01*
X66394100Y-105983969D01*
X66436722Y-105874685D01*
X66463333Y-105875667D01*
X66504020Y-105975014D01*
X66531823Y-106180252D01*
X66545769Y-106438951D01*
X66544885Y-106698683D01*
X66528196Y-106907018D01*
X66494729Y-107011529D01*
X66484500Y-107015364D01*
X66403778Y-106950823D01*
X66259943Y-106787046D01*
X66124667Y-106613198D01*
X65828333Y-106214333D01*
X65802528Y-106616500D01*
X65770436Y-106890353D01*
X65726419Y-107007767D01*
X65680355Y-106980224D01*
X65642123Y-106819209D01*
X65621600Y-106536206D01*
X65620461Y-106404833D01*
X65624255Y-105791000D01*
X66378667Y-106633030D01*
G36*
X67202305Y-105988005D02*
X67296745Y-106165348D01*
X67411329Y-106401522D01*
X67523297Y-106647898D01*
X67609888Y-106855848D01*
X67648344Y-106976747D01*
X67648667Y-106981914D01*
X67608914Y-107030213D01*
X67519046Y-106970119D01*
X67423149Y-106833950D01*
X67410072Y-106807000D01*
X67303531Y-106678612D01*
X67156294Y-106599660D01*
X67026264Y-106589044D01*
X66971333Y-106663818D01*
X66933884Y-106771180D01*
X66850565Y-106890784D01*
X66764922Y-106971807D01*
X66720501Y-106963424D01*
X66720026Y-106957134D01*
X66748103Y-106823285D01*
X66822175Y-106606121D01*
X66921150Y-106356520D01*
X66927902Y-106341333D01*
X67098333Y-106341333D01*
X67105046Y-106419352D01*
X67135670Y-106426000D01*
X67221888Y-106364539D01*
X67225333Y-106341333D01*
X67196446Y-106258868D01*
X67187997Y-106256667D01*
X67115711Y-106315995D01*
X67098333Y-106341333D01*
X66927902Y-106341333D01*
X67023937Y-106125359D01*
X67109442Y-105963513D01*
X67150766Y-105918118D01*
X67202305Y-105988005D01*
X67202305Y-105988005D01*
G37*
X67202305Y-105988005D02*
X67296745Y-106165348D01*
X67411329Y-106401522D01*
X67523297Y-106647898D01*
X67609888Y-106855848D01*
X67648344Y-106976747D01*
X67648667Y-106981914D01*
X67608914Y-107030213D01*
X67519046Y-106970119D01*
X67423149Y-106833950D01*
X67410072Y-106807000D01*
X67303531Y-106678612D01*
X67156294Y-106599660D01*
X67026264Y-106589044D01*
X66971333Y-106663818D01*
X66933884Y-106771180D01*
X66850565Y-106890784D01*
X66764922Y-106971807D01*
X66720501Y-106963424D01*
X66720026Y-106957134D01*
X66748103Y-106823285D01*
X66822175Y-106606121D01*
X66921150Y-106356520D01*
X66927902Y-106341333D01*
X67098333Y-106341333D01*
X67105046Y-106419352D01*
X67135670Y-106426000D01*
X67221888Y-106364539D01*
X67225333Y-106341333D01*
X67196446Y-106258868D01*
X67187997Y-106256667D01*
X67115711Y-106315995D01*
X67098333Y-106341333D01*
X66927902Y-106341333D01*
X67023937Y-106125359D01*
X67109442Y-105963513D01*
X67150766Y-105918118D01*
X67202305Y-105988005D01*
G36*
X67947871Y-105995036D02*
X67978481Y-106195905D01*
X67987333Y-106420889D01*
X67987333Y-106923778D01*
X68304833Y-106956990D01*
X68477493Y-106977075D01*
X68502265Y-106989418D01*
X68370855Y-106998668D01*
X68220167Y-107004434D01*
X67818000Y-107018667D01*
X67818000Y-106468333D01*
X67829963Y-106180751D01*
X67861652Y-105983857D01*
X67902667Y-105918000D01*
X67947871Y-105995036D01*
X67947871Y-105995036D01*
G37*
X67947871Y-105995036D02*
X67978481Y-106195905D01*
X67987333Y-106420889D01*
X67987333Y-106923778D01*
X68304833Y-106956990D01*
X68477493Y-106977075D01*
X68502265Y-106989418D01*
X68370855Y-106998668D01*
X68220167Y-107004434D01*
X67818000Y-107018667D01*
X67818000Y-106468333D01*
X67829963Y-106180751D01*
X67861652Y-105983857D01*
X67902667Y-105918000D01*
X67947871Y-105995036D01*
G36*
X70401522Y-105657584D02*
X70431564Y-105867054D01*
X70442667Y-106167199D01*
X70435715Y-106488740D01*
X70406822Y-106687349D01*
X70343930Y-106809136D01*
X70254494Y-106886866D01*
X70046555Y-106988272D01*
X69892333Y-107018667D01*
X69690157Y-106970820D01*
X69530172Y-106886866D01*
X69429199Y-106794684D01*
X69372126Y-106665333D01*
X69347051Y-106452971D01*
X69342000Y-106162202D01*
X69352945Y-105838174D01*
X69384231Y-105654857D01*
X69426667Y-105621667D01*
X69472502Y-105728520D01*
X69503248Y-105950567D01*
X69511333Y-106163874D01*
X69526405Y-106478446D01*
X69580799Y-106677723D01*
X69681489Y-106807744D01*
X69828986Y-106909313D01*
X69972410Y-106892880D01*
X70062489Y-106848893D01*
X70175007Y-106773612D01*
X70238427Y-106669185D01*
X70266582Y-106490262D01*
X70273307Y-106191496D01*
X70273333Y-106157693D01*
X70284771Y-105859167D01*
X70315312Y-105653517D01*
X70358000Y-105579333D01*
X70401522Y-105657584D01*
X70401522Y-105657584D01*
G37*
X70401522Y-105657584D02*
X70431564Y-105867054D01*
X70442667Y-106167199D01*
X70435715Y-106488740D01*
X70406822Y-106687349D01*
X70343930Y-106809136D01*
X70254494Y-106886866D01*
X70046555Y-106988272D01*
X69892333Y-107018667D01*
X69690157Y-106970820D01*
X69530172Y-106886866D01*
X69429199Y-106794684D01*
X69372126Y-106665333D01*
X69347051Y-106452971D01*
X69342000Y-106162202D01*
X69352945Y-105838174D01*
X69384231Y-105654857D01*
X69426667Y-105621667D01*
X69472502Y-105728520D01*
X69503248Y-105950567D01*
X69511333Y-106163874D01*
X69526405Y-106478446D01*
X69580799Y-106677723D01*
X69681489Y-106807744D01*
X69828986Y-106909313D01*
X69972410Y-106892880D01*
X70062489Y-106848893D01*
X70175007Y-106773612D01*
X70238427Y-106669185D01*
X70266582Y-106490262D01*
X70273307Y-106191496D01*
X70273333Y-106157693D01*
X70284771Y-105859167D01*
X70315312Y-105653517D01*
X70358000Y-105579333D01*
X70401522Y-105657584D01*
G36*
X70841343Y-105899838D02*
X70985984Y-106062503D01*
X71120000Y-106232698D01*
X71416333Y-106626827D01*
X71442139Y-106230080D01*
X71474388Y-105958597D01*
X71518601Y-105843458D01*
X71564956Y-105873085D01*
X71603630Y-106035897D01*
X71624803Y-106320313D01*
X71626258Y-106447167D01*
X71624517Y-107061000D01*
X71248511Y-106637667D01*
X70872506Y-106214333D01*
X70869253Y-106616500D01*
X70851368Y-106850988D01*
X70809522Y-106995923D01*
X70781333Y-107018667D01*
X70737901Y-106940357D01*
X70707890Y-106730471D01*
X70696667Y-106426575D01*
X70696667Y-106426000D01*
X70704963Y-106134350D01*
X70726798Y-105923603D01*
X70757589Y-105836331D01*
X70760167Y-105835951D01*
X70841343Y-105899838D01*
X70841343Y-105899838D01*
G37*
X70841343Y-105899838D02*
X70985984Y-106062503D01*
X71120000Y-106232698D01*
X71416333Y-106626827D01*
X71442139Y-106230080D01*
X71474388Y-105958597D01*
X71518601Y-105843458D01*
X71564956Y-105873085D01*
X71603630Y-106035897D01*
X71624803Y-106320313D01*
X71626258Y-106447167D01*
X71624517Y-107061000D01*
X71248511Y-106637667D01*
X70872506Y-106214333D01*
X70869253Y-106616500D01*
X70851368Y-106850988D01*
X70809522Y-106995923D01*
X70781333Y-107018667D01*
X70737901Y-106940357D01*
X70707890Y-106730471D01*
X70696667Y-106426575D01*
X70696667Y-106426000D01*
X70704963Y-106134350D01*
X70726798Y-105923603D01*
X70757589Y-105836331D01*
X70760167Y-105835951D01*
X70841343Y-105899838D01*
G36*
X71995569Y-105954740D02*
X72035163Y-106086022D01*
X72050403Y-106343435D01*
X72051333Y-106468333D01*
X72038815Y-106801541D01*
X71998025Y-106979177D01*
X71924110Y-107013375D01*
X71853778Y-106962222D01*
X71823300Y-106853027D01*
X71802805Y-106628881D01*
X71797333Y-106411889D01*
X71807588Y-106121583D01*
X71843826Y-105967738D01*
X71914261Y-105918416D01*
X71924333Y-105918000D01*
X71995569Y-105954740D01*
X71995569Y-105954740D01*
G37*
X71995569Y-105954740D02*
X72035163Y-106086022D01*
X72050403Y-106343435D01*
X72051333Y-106468333D01*
X72038815Y-106801541D01*
X71998025Y-106979177D01*
X71924110Y-107013375D01*
X71853778Y-106962222D01*
X71823300Y-106853027D01*
X71802805Y-106628881D01*
X71797333Y-106411889D01*
X71807588Y-106121583D01*
X71843826Y-105967738D01*
X71914261Y-105918416D01*
X71924333Y-105918000D01*
X71995569Y-105954740D01*
G36*
X73234436Y-105942801D02*
X73236667Y-105950102D01*
X73201481Y-106057192D01*
X73112873Y-106258835D01*
X72996265Y-106503060D01*
X72877081Y-106737897D01*
X72780744Y-106911375D01*
X72737252Y-106971027D01*
X72673365Y-106921414D01*
X72571570Y-106752105D01*
X72467551Y-106530563D01*
X72355218Y-106266624D01*
X72269944Y-106066379D01*
X72234778Y-105983917D01*
X72267577Y-105919873D01*
X72285419Y-105918000D01*
X72364992Y-105988178D01*
X72472656Y-106164896D01*
X72517000Y-106256667D01*
X72620248Y-106461949D01*
X72701401Y-106582243D01*
X72721552Y-106595333D01*
X72783457Y-106525155D01*
X72878404Y-106348439D01*
X72920109Y-106256667D01*
X73027264Y-106050225D01*
X73123811Y-105930275D01*
X73151748Y-105918000D01*
X73234436Y-105942801D01*
X73234436Y-105942801D01*
G37*
X73234436Y-105942801D02*
X73236667Y-105950102D01*
X73201481Y-106057192D01*
X73112873Y-106258835D01*
X72996265Y-106503060D01*
X72877081Y-106737897D01*
X72780744Y-106911375D01*
X72737252Y-106971027D01*
X72673365Y-106921414D01*
X72571570Y-106752105D01*
X72467551Y-106530563D01*
X72355218Y-106266624D01*
X72269944Y-106066379D01*
X72234778Y-105983917D01*
X72267577Y-105919873D01*
X72285419Y-105918000D01*
X72364992Y-105988178D01*
X72472656Y-106164896D01*
X72517000Y-106256667D01*
X72620248Y-106461949D01*
X72701401Y-106582243D01*
X72721552Y-106595333D01*
X72783457Y-106525155D01*
X72878404Y-106348439D01*
X72920109Y-106256667D01*
X73027264Y-106050225D01*
X73123811Y-105930275D01*
X73151748Y-105918000D01*
X73234436Y-105942801D01*
G36*
X74650948Y-105966415D02*
X74797914Y-106103604D01*
X74800093Y-106317476D01*
X74769927Y-106397152D01*
X74714303Y-106583327D01*
X74771604Y-106726647D01*
X74813405Y-106776164D01*
X74902580Y-106913873D01*
X74902444Y-106989778D01*
X74820225Y-106968405D01*
X74690691Y-106844163D01*
X74671040Y-106819925D01*
X74489443Y-106643351D01*
X74346084Y-106605095D01*
X74263787Y-106705864D01*
X74252667Y-106807000D01*
X74240579Y-106928226D01*
X74176690Y-106991347D01*
X74019563Y-107015199D01*
X73787000Y-107018667D01*
X73321333Y-107018667D01*
X73321333Y-105918000D01*
X73681167Y-105932233D01*
X74041000Y-105946465D01*
X73723500Y-105979677D01*
X73500174Y-106037129D01*
X73408573Y-106128240D01*
X73457713Y-106220951D01*
X73638833Y-106280690D01*
X73871667Y-106315962D01*
X73638833Y-106328647D01*
X73481482Y-106357621D01*
X73417234Y-106456203D01*
X73406000Y-106637667D01*
X73416253Y-106827398D01*
X73479557Y-106911716D01*
X73644734Y-106933337D01*
X73744667Y-106934000D01*
X74083333Y-106934000D01*
X74083333Y-106214333D01*
X74252667Y-106214333D01*
X74278777Y-106376104D01*
X74385233Y-106416387D01*
X74443167Y-106410722D01*
X74602450Y-106326612D01*
X74633667Y-106214333D01*
X74564492Y-106062923D01*
X74443167Y-106017945D01*
X74302085Y-106028534D01*
X74254851Y-106146692D01*
X74252667Y-106214333D01*
X74083333Y-106214333D01*
X74083333Y-105918000D01*
X74369300Y-105918000D01*
X74650948Y-105966415D01*
X74650948Y-105966415D01*
G37*
X74650948Y-105966415D02*
X74797914Y-106103604D01*
X74800093Y-106317476D01*
X74769927Y-106397152D01*
X74714303Y-106583327D01*
X74771604Y-106726647D01*
X74813405Y-106776164D01*
X74902580Y-106913873D01*
X74902444Y-106989778D01*
X74820225Y-106968405D01*
X74690691Y-106844163D01*
X74671040Y-106819925D01*
X74489443Y-106643351D01*
X74346084Y-106605095D01*
X74263787Y-106705864D01*
X74252667Y-106807000D01*
X74240579Y-106928226D01*
X74176690Y-106991347D01*
X74019563Y-107015199D01*
X73787000Y-107018667D01*
X73321333Y-107018667D01*
X73321333Y-105918000D01*
X73681167Y-105932233D01*
X74041000Y-105946465D01*
X73723500Y-105979677D01*
X73500174Y-106037129D01*
X73408573Y-106128240D01*
X73457713Y-106220951D01*
X73638833Y-106280690D01*
X73871667Y-106315962D01*
X73638833Y-106328647D01*
X73481482Y-106357621D01*
X73417234Y-106456203D01*
X73406000Y-106637667D01*
X73416253Y-106827398D01*
X73479557Y-106911716D01*
X73644734Y-106933337D01*
X73744667Y-106934000D01*
X74083333Y-106934000D01*
X74083333Y-106214333D01*
X74252667Y-106214333D01*
X74278777Y-106376104D01*
X74385233Y-106416387D01*
X74443167Y-106410722D01*
X74602450Y-106326612D01*
X74633667Y-106214333D01*
X74564492Y-106062923D01*
X74443167Y-106017945D01*
X74302085Y-106028534D01*
X74254851Y-106146692D01*
X74252667Y-106214333D01*
X74083333Y-106214333D01*
X74083333Y-105918000D01*
X74369300Y-105918000D01*
X74650948Y-105966415D01*
G36*
X75752637Y-105960759D02*
X75776667Y-106004280D01*
X75708028Y-106054330D01*
X75586167Y-106045770D01*
X75388813Y-106041226D01*
X75245170Y-106106469D01*
X75205915Y-106213584D01*
X75220483Y-106247200D01*
X75345873Y-106327446D01*
X75436949Y-106341333D01*
X75612211Y-106396440D01*
X75777258Y-106523561D01*
X75860288Y-106665395D01*
X75861333Y-106680000D01*
X75807546Y-106791979D01*
X75728286Y-106885619D01*
X75580070Y-106967043D01*
X75374869Y-107010511D01*
X75174011Y-107012654D01*
X75038827Y-106970103D01*
X75014667Y-106924821D01*
X75084749Y-106868862D01*
X75234432Y-106886134D01*
X75449612Y-106887660D01*
X75623472Y-106804574D01*
X75692000Y-106672054D01*
X75619279Y-106604123D01*
X75442349Y-106535655D01*
X75423805Y-106530679D01*
X75167483Y-106419241D01*
X75042051Y-106265147D01*
X75064485Y-106092990D01*
X75093443Y-106052097D01*
X75226297Y-105971702D01*
X75422447Y-105926741D01*
X75618893Y-105921624D01*
X75752637Y-105960759D01*
X75752637Y-105960759D01*
G37*
X75752637Y-105960759D02*
X75776667Y-106004280D01*
X75708028Y-106054330D01*
X75586167Y-106045770D01*
X75388813Y-106041226D01*
X75245170Y-106106469D01*
X75205915Y-106213584D01*
X75220483Y-106247200D01*
X75345873Y-106327446D01*
X75436949Y-106341333D01*
X75612211Y-106396440D01*
X75777258Y-106523561D01*
X75860288Y-106665395D01*
X75861333Y-106680000D01*
X75807546Y-106791979D01*
X75728286Y-106885619D01*
X75580070Y-106967043D01*
X75374869Y-107010511D01*
X75174011Y-107012654D01*
X75038827Y-106970103D01*
X75014667Y-106924821D01*
X75084749Y-106868862D01*
X75234432Y-106886134D01*
X75449612Y-106887660D01*
X75623472Y-106804574D01*
X75692000Y-106672054D01*
X75619279Y-106604123D01*
X75442349Y-106535655D01*
X75423805Y-106530679D01*
X75167483Y-106419241D01*
X75042051Y-106265147D01*
X75064485Y-106092990D01*
X75093443Y-106052097D01*
X75226297Y-105971702D01*
X75422447Y-105926741D01*
X75618893Y-105921624D01*
X75752637Y-105960759D01*
G36*
X76074910Y-105995757D02*
X76105201Y-106201740D01*
X76115333Y-106468333D01*
X76112633Y-106778956D01*
X76100200Y-106948701D01*
X76071538Y-107005991D01*
X76020150Y-106979251D01*
X76002444Y-106962222D01*
X75965743Y-106848245D01*
X75948186Y-106636716D01*
X75948279Y-106382921D01*
X75964528Y-106142146D01*
X75995439Y-105969676D01*
X76030667Y-105918000D01*
X76074910Y-105995757D01*
X76074910Y-105995757D01*
G37*
X76074910Y-105995757D02*
X76105201Y-106201740D01*
X76115333Y-106468333D01*
X76112633Y-106778956D01*
X76100200Y-106948701D01*
X76071538Y-107005991D01*
X76020150Y-106979251D01*
X76002444Y-106962222D01*
X75965743Y-106848245D01*
X75948186Y-106636716D01*
X75948279Y-106382921D01*
X75964528Y-106142146D01*
X75995439Y-105969676D01*
X76030667Y-105918000D01*
X76074910Y-105995757D01*
G36*
X77032055Y-105947916D02*
X77149158Y-105959890D01*
X77121563Y-105976803D01*
X77110167Y-105978643D01*
X76980492Y-106008524D01*
X76910883Y-106076581D01*
X76882708Y-106225833D01*
X76877337Y-106499302D01*
X76877333Y-106516290D01*
X76864352Y-106784579D01*
X76830509Y-106966223D01*
X76792667Y-107018667D01*
X76747451Y-106941639D01*
X76716838Y-106740830D01*
X76708000Y-106516290D01*
X76703255Y-106235778D01*
X76676600Y-106081546D01*
X76609405Y-106010575D01*
X76483040Y-105979844D01*
X76475167Y-105978643D01*
X76432104Y-105961377D01*
X76535947Y-105948806D01*
X76764283Y-105943419D01*
X76792667Y-105943371D01*
X77032055Y-105947916D01*
X77032055Y-105947916D01*
G37*
X77032055Y-105947916D02*
X77149158Y-105959890D01*
X77121563Y-105976803D01*
X77110167Y-105978643D01*
X76980492Y-106008524D01*
X76910883Y-106076581D01*
X76882708Y-106225833D01*
X76877337Y-106499302D01*
X76877333Y-106516290D01*
X76864352Y-106784579D01*
X76830509Y-106966223D01*
X76792667Y-107018667D01*
X76747451Y-106941639D01*
X76716838Y-106740830D01*
X76708000Y-106516290D01*
X76703255Y-106235778D01*
X76676600Y-106081546D01*
X76609405Y-106010575D01*
X76483040Y-105979844D01*
X76475167Y-105978643D01*
X76432104Y-105961377D01*
X76535947Y-105948806D01*
X76764283Y-105943419D01*
X76792667Y-105943371D01*
X77032055Y-105947916D01*
G36*
X78275058Y-105924152D02*
X78188344Y-106118279D01*
X78117942Y-106236165D01*
X77981330Y-106493165D01*
X77892119Y-106736209D01*
X77878997Y-106802621D01*
X77840186Y-106948411D01*
X77787500Y-106970345D01*
X77741580Y-106846667D01*
X77721307Y-106644722D01*
X77679105Y-106399696D01*
X77594307Y-106219318D01*
X77496486Y-106047348D01*
X77470000Y-105944151D01*
X77519420Y-105845090D01*
X77606623Y-105853720D01*
X77642026Y-105939167D01*
X77691910Y-106086172D01*
X77766357Y-106205699D01*
X77858669Y-106309543D01*
X77916483Y-106277852D01*
X77970108Y-106150423D01*
X78064708Y-105967602D01*
X78147744Y-105875413D01*
X78261887Y-105838807D01*
X78275058Y-105924152D01*
X78275058Y-105924152D01*
G37*
X78275058Y-105924152D02*
X78188344Y-106118279D01*
X78117942Y-106236165D01*
X77981330Y-106493165D01*
X77892119Y-106736209D01*
X77878997Y-106802621D01*
X77840186Y-106948411D01*
X77787500Y-106970345D01*
X77741580Y-106846667D01*
X77721307Y-106644722D01*
X77679105Y-106399696D01*
X77594307Y-106219318D01*
X77496486Y-106047348D01*
X77470000Y-105944151D01*
X77519420Y-105845090D01*
X77606623Y-105853720D01*
X77642026Y-105939167D01*
X77691910Y-106086172D01*
X77766357Y-106205699D01*
X77858669Y-106309543D01*
X77916483Y-106277852D01*
X77970108Y-106150423D01*
X78064708Y-105967602D01*
X78147744Y-105875413D01*
X78261887Y-105838807D01*
X78275058Y-105924152D01*
G36*
X79637453Y-105604607D02*
X79806526Y-105666835D01*
X79823733Y-105680933D01*
X79908537Y-105863952D01*
X79915307Y-106102242D01*
X79843958Y-106301031D01*
X79824314Y-106323819D01*
X79779850Y-106426809D01*
X79841797Y-106578050D01*
X79916437Y-106686074D01*
X80043806Y-106893216D01*
X80056460Y-106991852D01*
X79975018Y-106975253D01*
X79820099Y-106836688D01*
X79740485Y-106743500D01*
X79521960Y-106510333D01*
X79366643Y-106433402D01*
X79275184Y-106512737D01*
X79248000Y-106722333D01*
X79226734Y-106918201D01*
X79174445Y-107016107D01*
X79163333Y-107018667D01*
X79122101Y-106939075D01*
X79092902Y-106720169D01*
X79079243Y-106391754D01*
X79078667Y-106299000D01*
X79078667Y-106002667D01*
X79248000Y-106002667D01*
X79258353Y-106223986D01*
X79305198Y-106318561D01*
X79412211Y-106328497D01*
X79429853Y-106326055D01*
X79621172Y-106238479D01*
X79704587Y-106150833D01*
X79743694Y-105956617D01*
X79647652Y-105782707D01*
X79447427Y-105682253D01*
X79429853Y-105679278D01*
X79314206Y-105682024D01*
X79261512Y-105764458D01*
X79248095Y-105968683D01*
X79248000Y-106002667D01*
X79078667Y-106002667D01*
X79078667Y-105579333D01*
X79400400Y-105579333D01*
X79637453Y-105604607D01*
X79637453Y-105604607D01*
G37*
X79637453Y-105604607D02*
X79806526Y-105666835D01*
X79823733Y-105680933D01*
X79908537Y-105863952D01*
X79915307Y-106102242D01*
X79843958Y-106301031D01*
X79824314Y-106323819D01*
X79779850Y-106426809D01*
X79841797Y-106578050D01*
X79916437Y-106686074D01*
X80043806Y-106893216D01*
X80056460Y-106991852D01*
X79975018Y-106975253D01*
X79820099Y-106836688D01*
X79740485Y-106743500D01*
X79521960Y-106510333D01*
X79366643Y-106433402D01*
X79275184Y-106512737D01*
X79248000Y-106722333D01*
X79226734Y-106918201D01*
X79174445Y-107016107D01*
X79163333Y-107018667D01*
X79122101Y-106939075D01*
X79092902Y-106720169D01*
X79079243Y-106391754D01*
X79078667Y-106299000D01*
X79078667Y-106002667D01*
X79248000Y-106002667D01*
X79258353Y-106223986D01*
X79305198Y-106318561D01*
X79412211Y-106328497D01*
X79429853Y-106326055D01*
X79621172Y-106238479D01*
X79704587Y-106150833D01*
X79743694Y-105956617D01*
X79647652Y-105782707D01*
X79447427Y-105682253D01*
X79429853Y-105679278D01*
X79314206Y-105682024D01*
X79261512Y-105764458D01*
X79248095Y-105968683D01*
X79248000Y-106002667D01*
X79078667Y-106002667D01*
X79078667Y-105579333D01*
X79400400Y-105579333D01*
X79637453Y-105604607D01*
G36*
X80957680Y-105955128D02*
X81146805Y-106090567D01*
X81189188Y-106141085D01*
X81334138Y-106375165D01*
X81337306Y-106566921D01*
X81196077Y-106770498D01*
X81156848Y-106810848D01*
X80896161Y-106977604D01*
X80615000Y-107009186D01*
X80363908Y-106903375D01*
X80305344Y-106848241D01*
X80183332Y-106611856D01*
X80170123Y-106462734D01*
X80343802Y-106462734D01*
X80378294Y-106689147D01*
X80496833Y-106842551D01*
X80635274Y-106916442D01*
X80731163Y-106912572D01*
X80860292Y-106847393D01*
X81035475Y-106699948D01*
X81111705Y-106593393D01*
X81152637Y-106374750D01*
X81064688Y-106186060D01*
X80888243Y-106062048D01*
X80663689Y-106037443D01*
X80521198Y-106085622D01*
X80392221Y-106237174D01*
X80343802Y-106462734D01*
X80170123Y-106462734D01*
X80158379Y-106330169D01*
X80235051Y-106084091D01*
X80260256Y-106049511D01*
X80424297Y-105956523D01*
X80679209Y-105918078D01*
X80691555Y-105918000D01*
X80957680Y-105955128D01*
X80957680Y-105955128D01*
G37*
X80957680Y-105955128D02*
X81146805Y-106090567D01*
X81189188Y-106141085D01*
X81334138Y-106375165D01*
X81337306Y-106566921D01*
X81196077Y-106770498D01*
X81156848Y-106810848D01*
X80896161Y-106977604D01*
X80615000Y-107009186D01*
X80363908Y-106903375D01*
X80305344Y-106848241D01*
X80183332Y-106611856D01*
X80170123Y-106462734D01*
X80343802Y-106462734D01*
X80378294Y-106689147D01*
X80496833Y-106842551D01*
X80635274Y-106916442D01*
X80731163Y-106912572D01*
X80860292Y-106847393D01*
X81035475Y-106699948D01*
X81111705Y-106593393D01*
X81152637Y-106374750D01*
X81064688Y-106186060D01*
X80888243Y-106062048D01*
X80663689Y-106037443D01*
X80521198Y-106085622D01*
X80392221Y-106237174D01*
X80343802Y-106462734D01*
X80170123Y-106462734D01*
X80158379Y-106330169D01*
X80235051Y-106084091D01*
X80260256Y-106049511D01*
X80424297Y-105956523D01*
X80679209Y-105918078D01*
X80691555Y-105918000D01*
X80957680Y-105955128D01*
G36*
X82203143Y-105936920D02*
X82342069Y-106009204D01*
X82345965Y-106015015D01*
X82341405Y-106074995D01*
X82197273Y-106059560D01*
X82179891Y-106055299D01*
X81908893Y-106052598D01*
X81714364Y-106168730D01*
X81617399Y-106362507D01*
X81639090Y-106592739D01*
X81792736Y-106811286D01*
X81943569Y-106915143D01*
X82078405Y-106895754D01*
X82139647Y-106860875D01*
X82301334Y-106793198D01*
X82373576Y-106827763D01*
X82341815Y-106928367D01*
X82207648Y-107004156D01*
X81988947Y-107009852D01*
X81753445Y-106949448D01*
X81637505Y-106886866D01*
X81495754Y-106696149D01*
X81447618Y-106435166D01*
X81497974Y-106177874D01*
X81582381Y-106051047D01*
X81751338Y-105961238D01*
X81982246Y-105922064D01*
X82203143Y-105936920D01*
X82203143Y-105936920D01*
G37*
X82203143Y-105936920D02*
X82342069Y-106009204D01*
X82345965Y-106015015D01*
X82341405Y-106074995D01*
X82197273Y-106059560D01*
X82179891Y-106055299D01*
X81908893Y-106052598D01*
X81714364Y-106168730D01*
X81617399Y-106362507D01*
X81639090Y-106592739D01*
X81792736Y-106811286D01*
X81943569Y-106915143D01*
X82078405Y-106895754D01*
X82139647Y-106860875D01*
X82301334Y-106793198D01*
X82373576Y-106827763D01*
X82341815Y-106928367D01*
X82207648Y-107004156D01*
X81988947Y-107009852D01*
X81753445Y-106949448D01*
X81637505Y-106886866D01*
X81495754Y-106696149D01*
X81447618Y-106435166D01*
X81497974Y-106177874D01*
X81582381Y-106051047D01*
X81751338Y-105961238D01*
X81982246Y-105922064D01*
X82203143Y-105936920D01*
G36*
X82789248Y-105985773D02*
X82804000Y-106045000D01*
X82837454Y-106158331D01*
X82945802Y-106132707D01*
X83073019Y-106031408D01*
X83208344Y-105943043D01*
X83279955Y-105942399D01*
X83256461Y-106024083D01*
X83133752Y-106162431D01*
X83089589Y-106202098D01*
X82847640Y-106410214D01*
X83141548Y-106666824D01*
X83302712Y-106830240D01*
X83377530Y-106953168D01*
X83372844Y-106986044D01*
X83279403Y-106973134D01*
X83121803Y-106864906D01*
X83064193Y-106812933D01*
X82818152Y-106577211D01*
X82789909Y-106770140D01*
X82726536Y-106935995D01*
X82655833Y-106997924D01*
X82595349Y-106967232D01*
X82561503Y-106811721D01*
X82550073Y-106510548D01*
X82550000Y-106475389D01*
X82558294Y-106164452D01*
X82587965Y-105990729D01*
X82646195Y-105922697D01*
X82677000Y-105918000D01*
X82789248Y-105985773D01*
X82789248Y-105985773D01*
G37*
X82789248Y-105985773D02*
X82804000Y-106045000D01*
X82837454Y-106158331D01*
X82945802Y-106132707D01*
X83073019Y-106031408D01*
X83208344Y-105943043D01*
X83279955Y-105942399D01*
X83256461Y-106024083D01*
X83133752Y-106162431D01*
X83089589Y-106202098D01*
X82847640Y-106410214D01*
X83141548Y-106666824D01*
X83302712Y-106830240D01*
X83377530Y-106953168D01*
X83372844Y-106986044D01*
X83279403Y-106973134D01*
X83121803Y-106864906D01*
X83064193Y-106812933D01*
X82818152Y-106577211D01*
X82789909Y-106770140D01*
X82726536Y-106935995D01*
X82655833Y-106997924D01*
X82595349Y-106967232D01*
X82561503Y-106811721D01*
X82550073Y-106510548D01*
X82550000Y-106475389D01*
X82558294Y-106164452D01*
X82587965Y-105990729D01*
X82646195Y-105922697D01*
X82677000Y-105918000D01*
X82789248Y-105985773D01*
G36*
X83925833Y-105931550D02*
X84129322Y-105941649D01*
X84172277Y-105953653D01*
X84063471Y-105972503D01*
X84010500Y-105979247D01*
X83811212Y-106042399D01*
X83738068Y-106141676D01*
X83801975Y-106238131D01*
X83925833Y-106281581D01*
X84116333Y-106318273D01*
X83925833Y-106329803D01*
X83794437Y-106367197D01*
X83741984Y-106490701D01*
X83735333Y-106632556D01*
X83749290Y-106824946D01*
X83824557Y-106914528D01*
X84011229Y-106952489D01*
X84052833Y-106956990D01*
X84225493Y-106977075D01*
X84250265Y-106989418D01*
X84118855Y-106998668D01*
X83968167Y-107004434D01*
X83566000Y-107018667D01*
X83566000Y-105918000D01*
X83925833Y-105931550D01*
X83925833Y-105931550D01*
G37*
X83925833Y-105931550D02*
X84129322Y-105941649D01*
X84172277Y-105953653D01*
X84063471Y-105972503D01*
X84010500Y-105979247D01*
X83811212Y-106042399D01*
X83738068Y-106141676D01*
X83801975Y-106238131D01*
X83925833Y-106281581D01*
X84116333Y-106318273D01*
X83925833Y-106329803D01*
X83794437Y-106367197D01*
X83741984Y-106490701D01*
X83735333Y-106632556D01*
X83749290Y-106824946D01*
X83824557Y-106914528D01*
X84011229Y-106952489D01*
X84052833Y-106956990D01*
X84225493Y-106977075D01*
X84250265Y-106989418D01*
X84118855Y-106998668D01*
X83968167Y-107004434D01*
X83566000Y-107018667D01*
X83566000Y-105918000D01*
X83925833Y-105931550D01*
G36*
X85075388Y-105947916D02*
X85192491Y-105959890D01*
X85164897Y-105976803D01*
X85153500Y-105978643D01*
X85023826Y-106008524D01*
X84954216Y-106076581D01*
X84926041Y-106225833D01*
X84920671Y-106499302D01*
X84920667Y-106516290D01*
X84907685Y-106784579D01*
X84873842Y-106966223D01*
X84836000Y-107018667D01*
X84790785Y-106941639D01*
X84760172Y-106740830D01*
X84751333Y-106516290D01*
X84746588Y-106235778D01*
X84719934Y-106081546D01*
X84652739Y-106010575D01*
X84526373Y-105979844D01*
X84518500Y-105978643D01*
X84475437Y-105961377D01*
X84579280Y-105948806D01*
X84807616Y-105943419D01*
X84836000Y-105943371D01*
X85075388Y-105947916D01*
X85075388Y-105947916D01*
G37*
X85075388Y-105947916D02*
X85192491Y-105959890D01*
X85164897Y-105976803D01*
X85153500Y-105978643D01*
X85023826Y-106008524D01*
X84954216Y-106076581D01*
X84926041Y-106225833D01*
X84920671Y-106499302D01*
X84920667Y-106516290D01*
X84907685Y-106784579D01*
X84873842Y-106966223D01*
X84836000Y-107018667D01*
X84790785Y-106941639D01*
X84760172Y-106740830D01*
X84751333Y-106516290D01*
X84746588Y-106235778D01*
X84719934Y-106081546D01*
X84652739Y-106010575D01*
X84526373Y-105979844D01*
X84518500Y-105978643D01*
X84475437Y-105961377D01*
X84579280Y-105948806D01*
X84807616Y-105943419D01*
X84836000Y-105943371D01*
X85075388Y-105947916D01*
G36*
X87099064Y-105610052D02*
X87253956Y-105619726D01*
X87269445Y-105633680D01*
X87227833Y-105640581D01*
X86952667Y-105674729D01*
X86952667Y-106346698D01*
X86946606Y-106692655D01*
X86924629Y-106899726D01*
X86881038Y-106998049D01*
X86825667Y-107018667D01*
X86760282Y-106986602D01*
X86721146Y-106870318D01*
X86702563Y-106639674D01*
X86698667Y-106346698D01*
X86698667Y-105674729D01*
X86423500Y-105640581D01*
X86372370Y-105625327D01*
X86469665Y-105613588D01*
X86694483Y-105607138D01*
X86825667Y-105606433D01*
X87099064Y-105610052D01*
X87099064Y-105610052D01*
G37*
X87099064Y-105610052D02*
X87253956Y-105619726D01*
X87269445Y-105633680D01*
X87227833Y-105640581D01*
X86952667Y-105674729D01*
X86952667Y-106346698D01*
X86946606Y-106692655D01*
X86924629Y-106899726D01*
X86881038Y-106998049D01*
X86825667Y-107018667D01*
X86760282Y-106986602D01*
X86721146Y-106870318D01*
X86702563Y-106639674D01*
X86698667Y-106346698D01*
X86698667Y-105674729D01*
X86423500Y-105640581D01*
X86372370Y-105625327D01*
X86469665Y-105613588D01*
X86694483Y-105607138D01*
X86825667Y-105606433D01*
X87099064Y-105610052D01*
G36*
X88785862Y-105965081D02*
X88867587Y-106117327D01*
X88992113Y-106391239D01*
X89167300Y-106803321D01*
X89212870Y-106912833D01*
X89227713Y-107013643D01*
X89167845Y-107011732D01*
X89074628Y-106927669D01*
X89000072Y-106807000D01*
X88861774Y-106639257D01*
X88730386Y-106595333D01*
X88559615Y-106672988D01*
X88476667Y-106807000D01*
X88412283Y-106929600D01*
X88306910Y-106993000D01*
X88111398Y-107016175D01*
X87928429Y-107018667D01*
X87460667Y-107018667D01*
X87460667Y-105918000D01*
X87862833Y-105931550D01*
X88073967Y-105942129D01*
X88123237Y-105955891D01*
X88018112Y-105975638D01*
X87989833Y-105979247D01*
X87790545Y-106042399D01*
X87717401Y-106141676D01*
X87781308Y-106238131D01*
X87905167Y-106281581D01*
X88095667Y-106318273D01*
X87905167Y-106329803D01*
X87774653Y-106366470D01*
X87721876Y-106487904D01*
X87714667Y-106637667D01*
X87728049Y-106836377D01*
X87801255Y-106917878D01*
X87983868Y-106933982D01*
X87998257Y-106934000D01*
X88156355Y-106922962D01*
X88264117Y-106865728D01*
X88356114Y-106726115D01*
X88466917Y-106467942D01*
X88483625Y-106426000D01*
X88519739Y-106341333D01*
X88688333Y-106341333D01*
X88695046Y-106419352D01*
X88725670Y-106426000D01*
X88811888Y-106364539D01*
X88815333Y-106341333D01*
X88786446Y-106258868D01*
X88777997Y-106256667D01*
X88705711Y-106315995D01*
X88688333Y-106341333D01*
X88519739Y-106341333D01*
X88594708Y-106165573D01*
X88687453Y-105982349D01*
X88739079Y-105918000D01*
X88785862Y-105965081D01*
X88785862Y-105965081D01*
G37*
X88785862Y-105965081D02*
X88867587Y-106117327D01*
X88992113Y-106391239D01*
X89167300Y-106803321D01*
X89212870Y-106912833D01*
X89227713Y-107013643D01*
X89167845Y-107011732D01*
X89074628Y-106927669D01*
X89000072Y-106807000D01*
X88861774Y-106639257D01*
X88730386Y-106595333D01*
X88559615Y-106672988D01*
X88476667Y-106807000D01*
X88412283Y-106929600D01*
X88306910Y-106993000D01*
X88111398Y-107016175D01*
X87928429Y-107018667D01*
X87460667Y-107018667D01*
X87460667Y-105918000D01*
X87862833Y-105931550D01*
X88073967Y-105942129D01*
X88123237Y-105955891D01*
X88018112Y-105975638D01*
X87989833Y-105979247D01*
X87790545Y-106042399D01*
X87717401Y-106141676D01*
X87781308Y-106238131D01*
X87905167Y-106281581D01*
X88095667Y-106318273D01*
X87905167Y-106329803D01*
X87774653Y-106366470D01*
X87721876Y-106487904D01*
X87714667Y-106637667D01*
X87728049Y-106836377D01*
X87801255Y-106917878D01*
X87983868Y-106933982D01*
X87998257Y-106934000D01*
X88156355Y-106922962D01*
X88264117Y-106865728D01*
X88356114Y-106726115D01*
X88466917Y-106467942D01*
X88483625Y-106426000D01*
X88519739Y-106341333D01*
X88688333Y-106341333D01*
X88695046Y-106419352D01*
X88725670Y-106426000D01*
X88811888Y-106364539D01*
X88815333Y-106341333D01*
X88786446Y-106258868D01*
X88777997Y-106256667D01*
X88705711Y-106315995D01*
X88688333Y-106341333D01*
X88519739Y-106341333D01*
X88594708Y-106165573D01*
X88687453Y-105982349D01*
X88739079Y-105918000D01*
X88785862Y-105965081D01*
G36*
X90389138Y-105910835D02*
X90413690Y-106114792D01*
X90423946Y-106402382D01*
X90424000Y-106426000D01*
X90416531Y-106748006D01*
X90389676Y-106932300D01*
X90336760Y-107010026D01*
X90297000Y-107018667D01*
X90210214Y-106964824D01*
X90173154Y-106784748D01*
X90170000Y-106666878D01*
X90164777Y-106450567D01*
X90135428Y-106375721D01*
X90061427Y-106414510D01*
X90014409Y-106455896D01*
X89892566Y-106545096D01*
X89796158Y-106517706D01*
X89696909Y-106416760D01*
X89535000Y-106236816D01*
X89492667Y-106635751D01*
X89456613Y-106853688D01*
X89411540Y-106967654D01*
X89386833Y-106970231D01*
X89351066Y-106852636D01*
X89330280Y-106628317D01*
X89324848Y-106358640D01*
X89335142Y-106104965D01*
X89361536Y-105928655D01*
X89380262Y-105889293D01*
X89463354Y-105911821D01*
X89604025Y-106036242D01*
X89662594Y-106102359D01*
X89887996Y-106372354D01*
X90087253Y-106102844D01*
X90229832Y-105931379D01*
X90337686Y-105838680D01*
X90355255Y-105833333D01*
X90389138Y-105910835D01*
X90389138Y-105910835D01*
G37*
X90389138Y-105910835D02*
X90413690Y-106114792D01*
X90423946Y-106402382D01*
X90424000Y-106426000D01*
X90416531Y-106748006D01*
X90389676Y-106932300D01*
X90336760Y-107010026D01*
X90297000Y-107018667D01*
X90210214Y-106964824D01*
X90173154Y-106784748D01*
X90170000Y-106666878D01*
X90164777Y-106450567D01*
X90135428Y-106375721D01*
X90061427Y-106414510D01*
X90014409Y-106455896D01*
X89892566Y-106545096D01*
X89796158Y-106517706D01*
X89696909Y-106416760D01*
X89535000Y-106236816D01*
X89492667Y-106635751D01*
X89456613Y-106853688D01*
X89411540Y-106967654D01*
X89386833Y-106970231D01*
X89351066Y-106852636D01*
X89330280Y-106628317D01*
X89324848Y-106358640D01*
X89335142Y-106104965D01*
X89361536Y-105928655D01*
X89380262Y-105889293D01*
X89463354Y-105911821D01*
X89604025Y-106036242D01*
X89662594Y-106102359D01*
X89887996Y-106372354D01*
X90087253Y-106102844D01*
X90229832Y-105931379D01*
X90337686Y-105838680D01*
X90355255Y-105833333D01*
X90389138Y-105910835D01*
G36*
X61953069Y-95876180D02*
X61927818Y-95914662D01*
X61841944Y-95920649D01*
X61751602Y-95899972D01*
X61790792Y-95869496D01*
X61923115Y-95859403D01*
X61953069Y-95876180D01*
X61953069Y-95876180D01*
G37*
X61953069Y-95876180D02*
X61927818Y-95914662D01*
X61841944Y-95920649D01*
X61751602Y-95899972D01*
X61790792Y-95869496D01*
X61923115Y-95859403D01*
X61953069Y-95876180D01*
G36*
X72961891Y-94662215D02*
X73362659Y-94673106D01*
X73831787Y-94691248D01*
X74395445Y-94716889D01*
X75079802Y-94750276D01*
X75776667Y-94784966D01*
X76460478Y-94825592D01*
X77177879Y-94879889D01*
X77904252Y-94944957D01*
X78614978Y-95017893D01*
X79285440Y-95095796D01*
X79891020Y-95175765D01*
X80407099Y-95254898D01*
X80809060Y-95330293D01*
X81072285Y-95399049D01*
X81110667Y-95413641D01*
X81170863Y-95440302D01*
X81199595Y-95460208D01*
X81181187Y-95472765D01*
X81099964Y-95477377D01*
X80940250Y-95473450D01*
X80686370Y-95460388D01*
X80322648Y-95437596D01*
X79833409Y-95404480D01*
X79202977Y-95360443D01*
X78613000Y-95318828D01*
X78087645Y-95288230D01*
X77442831Y-95260863D01*
X76728421Y-95238238D01*
X75994279Y-95221863D01*
X75290271Y-95213251D01*
X75099333Y-95212421D01*
X74452678Y-95211459D01*
X73952499Y-95213123D01*
X73575942Y-95219238D01*
X73300151Y-95231628D01*
X73102271Y-95252118D01*
X72959448Y-95282531D01*
X72848826Y-95324693D01*
X72747551Y-95380427D01*
X72710720Y-95403082D01*
X72396440Y-95598497D01*
X72154633Y-95419722D01*
X71892454Y-95290904D01*
X71543051Y-95205033D01*
X71452028Y-95193388D01*
X71220151Y-95183595D01*
X70849562Y-95184763D01*
X70370433Y-95195506D01*
X69812934Y-95214436D01*
X69207238Y-95240168D01*
X68583514Y-95271314D01*
X67971935Y-95306489D01*
X67402671Y-95344305D01*
X66905893Y-95383375D01*
X66539519Y-95419158D01*
X66142851Y-95461515D01*
X65652493Y-95510774D01*
X65143483Y-95559508D01*
X64854667Y-95585914D01*
X63768529Y-95699237D01*
X62712148Y-95845788D01*
X62462833Y-95885367D01*
X62295327Y-95889938D01*
X62230000Y-95849608D01*
X62249463Y-95797806D01*
X62322313Y-95749831D01*
X62470246Y-95700011D01*
X62714955Y-95642673D01*
X63078133Y-95572144D01*
X63581476Y-95482752D01*
X63733164Y-95456549D01*
X65149912Y-95232411D01*
X66567561Y-95049586D01*
X68032942Y-94903101D01*
X69592888Y-94787984D01*
X70527333Y-94735259D01*
X71067507Y-94707849D01*
X71519022Y-94686203D01*
X71908049Y-94670569D01*
X72260756Y-94661194D01*
X72603313Y-94658327D01*
X72961891Y-94662215D01*
X72961891Y-94662215D01*
G37*
X72961891Y-94662215D02*
X73362659Y-94673106D01*
X73831787Y-94691248D01*
X74395445Y-94716889D01*
X75079802Y-94750276D01*
X75776667Y-94784966D01*
X76460478Y-94825592D01*
X77177879Y-94879889D01*
X77904252Y-94944957D01*
X78614978Y-95017893D01*
X79285440Y-95095796D01*
X79891020Y-95175765D01*
X80407099Y-95254898D01*
X80809060Y-95330293D01*
X81072285Y-95399049D01*
X81110667Y-95413641D01*
X81170863Y-95440302D01*
X81199595Y-95460208D01*
X81181187Y-95472765D01*
X81099964Y-95477377D01*
X80940250Y-95473450D01*
X80686370Y-95460388D01*
X80322648Y-95437596D01*
X79833409Y-95404480D01*
X79202977Y-95360443D01*
X78613000Y-95318828D01*
X78087645Y-95288230D01*
X77442831Y-95260863D01*
X76728421Y-95238238D01*
X75994279Y-95221863D01*
X75290271Y-95213251D01*
X75099333Y-95212421D01*
X74452678Y-95211459D01*
X73952499Y-95213123D01*
X73575942Y-95219238D01*
X73300151Y-95231628D01*
X73102271Y-95252118D01*
X72959448Y-95282531D01*
X72848826Y-95324693D01*
X72747551Y-95380427D01*
X72710720Y-95403082D01*
X72396440Y-95598497D01*
X72154633Y-95419722D01*
X71892454Y-95290904D01*
X71543051Y-95205033D01*
X71452028Y-95193388D01*
X71220151Y-95183595D01*
X70849562Y-95184763D01*
X70370433Y-95195506D01*
X69812934Y-95214436D01*
X69207238Y-95240168D01*
X68583514Y-95271314D01*
X67971935Y-95306489D01*
X67402671Y-95344305D01*
X66905893Y-95383375D01*
X66539519Y-95419158D01*
X66142851Y-95461515D01*
X65652493Y-95510774D01*
X65143483Y-95559508D01*
X64854667Y-95585914D01*
X63768529Y-95699237D01*
X62712148Y-95845788D01*
X62462833Y-95885367D01*
X62295327Y-95889938D01*
X62230000Y-95849608D01*
X62249463Y-95797806D01*
X62322313Y-95749831D01*
X62470246Y-95700011D01*
X62714955Y-95642673D01*
X63078133Y-95572144D01*
X63581476Y-95482752D01*
X63733164Y-95456549D01*
X65149912Y-95232411D01*
X66567561Y-95049586D01*
X68032942Y-94903101D01*
X69592888Y-94787984D01*
X70527333Y-94735259D01*
X71067507Y-94707849D01*
X71519022Y-94686203D01*
X71908049Y-94670569D01*
X72260756Y-94661194D01*
X72603313Y-94658327D01*
X72961891Y-94662215D01*
G36*
X67362868Y-87193161D02*
X67495070Y-87345168D01*
X67700962Y-87598329D01*
X67985401Y-87958841D01*
X68353249Y-88432900D01*
X68809364Y-89026704D01*
X69358605Y-89746449D01*
X69743676Y-90252918D01*
X70128612Y-90759816D01*
X70425059Y-91149846D01*
X70647078Y-91440891D01*
X70808728Y-91650832D01*
X70924070Y-91797552D01*
X71007165Y-91898931D01*
X71072073Y-91972852D01*
X71132855Y-92037196D01*
X71203570Y-92109847D01*
X71204667Y-92110975D01*
X71416333Y-92329000D01*
X71458667Y-89831333D01*
X71501000Y-87333667D01*
X71924333Y-87333667D01*
X71946546Y-90503387D01*
X71949890Y-91220300D01*
X71949755Y-91883793D01*
X71946390Y-92474846D01*
X71940044Y-92974438D01*
X71930966Y-93363550D01*
X71919405Y-93623161D01*
X71905610Y-93734252D01*
X71904213Y-93736371D01*
X71830626Y-93699696D01*
X71683329Y-93550482D01*
X71486110Y-93314640D01*
X71331667Y-93112664D01*
X71096326Y-92799725D01*
X70880224Y-92521766D01*
X70714535Y-92318450D01*
X70654333Y-92250888D01*
X70555197Y-92133645D01*
X70372050Y-91902855D01*
X70122079Y-91580738D01*
X69822470Y-91189516D01*
X69490409Y-90751408D01*
X69339975Y-90551542D01*
X68994582Y-90094401D01*
X68669670Y-89669444D01*
X68383535Y-89300206D01*
X68154474Y-89010219D01*
X68000782Y-88823019D01*
X67964142Y-88781803D01*
X67733333Y-88536607D01*
X67733333Y-93387333D01*
X67225333Y-93387333D01*
X67225333Y-90247611D01*
X67227259Y-89519381D01*
X67232764Y-88856955D01*
X67241435Y-88277598D01*
X67252861Y-87798573D01*
X67266631Y-87437145D01*
X67282333Y-87210578D01*
X67299494Y-87136111D01*
X67362868Y-87193161D01*
X67362868Y-87193161D01*
G37*
X67362868Y-87193161D02*
X67495070Y-87345168D01*
X67700962Y-87598329D01*
X67985401Y-87958841D01*
X68353249Y-88432900D01*
X68809364Y-89026704D01*
X69358605Y-89746449D01*
X69743676Y-90252918D01*
X70128612Y-90759816D01*
X70425059Y-91149846D01*
X70647078Y-91440891D01*
X70808728Y-91650832D01*
X70924070Y-91797552D01*
X71007165Y-91898931D01*
X71072073Y-91972852D01*
X71132855Y-92037196D01*
X71203570Y-92109847D01*
X71204667Y-92110975D01*
X71416333Y-92329000D01*
X71458667Y-89831333D01*
X71501000Y-87333667D01*
X71924333Y-87333667D01*
X71946546Y-90503387D01*
X71949890Y-91220300D01*
X71949755Y-91883793D01*
X71946390Y-92474846D01*
X71940044Y-92974438D01*
X71930966Y-93363550D01*
X71919405Y-93623161D01*
X71905610Y-93734252D01*
X71904213Y-93736371D01*
X71830626Y-93699696D01*
X71683329Y-93550482D01*
X71486110Y-93314640D01*
X71331667Y-93112664D01*
X71096326Y-92799725D01*
X70880224Y-92521766D01*
X70714535Y-92318450D01*
X70654333Y-92250888D01*
X70555197Y-92133645D01*
X70372050Y-91902855D01*
X70122079Y-91580738D01*
X69822470Y-91189516D01*
X69490409Y-90751408D01*
X69339975Y-90551542D01*
X68994582Y-90094401D01*
X68669670Y-89669444D01*
X68383535Y-89300206D01*
X68154474Y-89010219D01*
X68000782Y-88823019D01*
X67964142Y-88781803D01*
X67733333Y-88536607D01*
X67733333Y-93387333D01*
X67225333Y-93387333D01*
X67225333Y-90247611D01*
X67227259Y-89519381D01*
X67232764Y-88856955D01*
X67241435Y-88277598D01*
X67252861Y-87798573D01*
X67266631Y-87437145D01*
X67282333Y-87210578D01*
X67299494Y-87136111D01*
X67362868Y-87193161D01*
G36*
X55983509Y-88413167D02*
X56007000Y-89619667D01*
X57636833Y-89642661D01*
X59266667Y-89665656D01*
X59266667Y-89113495D01*
X59275097Y-88804221D01*
X59305228Y-88632091D01*
X59364324Y-88565532D01*
X59393667Y-88561333D01*
X59430734Y-88579722D01*
X59459962Y-88646426D01*
X59482241Y-88778754D01*
X59498466Y-88994014D01*
X59509528Y-89309514D01*
X59516320Y-89742563D01*
X59519735Y-90310468D01*
X59520667Y-91023722D01*
X59519192Y-91761645D01*
X59514344Y-92344861D01*
X59505486Y-92787978D01*
X59491980Y-93105599D01*
X59473190Y-93312330D01*
X59448480Y-93422776D01*
X59417212Y-93451544D01*
X59414833Y-93450901D01*
X59374729Y-93390073D01*
X59343282Y-93226948D01*
X59319274Y-92945813D01*
X59301483Y-92530952D01*
X59288692Y-91966650D01*
X59285999Y-91791023D01*
X59262997Y-90166356D01*
X57634999Y-90189345D01*
X56007000Y-90212333D01*
X55964667Y-91862282D01*
X55948108Y-92440140D01*
X55930784Y-92869855D01*
X55910502Y-93172615D01*
X55885068Y-93369606D01*
X55852287Y-93482013D01*
X55809966Y-93531021D01*
X55791205Y-93537376D01*
X55640678Y-93526839D01*
X55600705Y-93503149D01*
X55587202Y-93407754D01*
X55574777Y-93162180D01*
X55563787Y-92785583D01*
X55554590Y-92297116D01*
X55547544Y-91715932D01*
X55543006Y-91061186D01*
X55541335Y-90352032D01*
X55541333Y-90325222D01*
X55541333Y-87206667D01*
X55960017Y-87206667D01*
X55983509Y-88413167D01*
X55983509Y-88413167D01*
G37*
X55983509Y-88413167D02*
X56007000Y-89619667D01*
X57636833Y-89642661D01*
X59266667Y-89665656D01*
X59266667Y-89113495D01*
X59275097Y-88804221D01*
X59305228Y-88632091D01*
X59364324Y-88565532D01*
X59393667Y-88561333D01*
X59430734Y-88579722D01*
X59459962Y-88646426D01*
X59482241Y-88778754D01*
X59498466Y-88994014D01*
X59509528Y-89309514D01*
X59516320Y-89742563D01*
X59519735Y-90310468D01*
X59520667Y-91023722D01*
X59519192Y-91761645D01*
X59514344Y-92344861D01*
X59505486Y-92787978D01*
X59491980Y-93105599D01*
X59473190Y-93312330D01*
X59448480Y-93422776D01*
X59417212Y-93451544D01*
X59414833Y-93450901D01*
X59374729Y-93390073D01*
X59343282Y-93226948D01*
X59319274Y-92945813D01*
X59301483Y-92530952D01*
X59288692Y-91966650D01*
X59285999Y-91791023D01*
X59262997Y-90166356D01*
X57634999Y-90189345D01*
X56007000Y-90212333D01*
X55964667Y-91862282D01*
X55948108Y-92440140D01*
X55930784Y-92869855D01*
X55910502Y-93172615D01*
X55885068Y-93369606D01*
X55852287Y-93482013D01*
X55809966Y-93531021D01*
X55791205Y-93537376D01*
X55640678Y-93526839D01*
X55600705Y-93503149D01*
X55587202Y-93407754D01*
X55574777Y-93162180D01*
X55563787Y-92785583D01*
X55554590Y-92297116D01*
X55547544Y-91715932D01*
X55543006Y-91061186D01*
X55541335Y-90352032D01*
X55541333Y-90325222D01*
X55541333Y-87206667D01*
X55960017Y-87206667D01*
X55983509Y-88413167D01*
G36*
X64057513Y-87665314D02*
X64212741Y-88004743D01*
X64370444Y-88381241D01*
X64428651Y-88531267D01*
X64537940Y-88809079D01*
X64637616Y-89038808D01*
X64683958Y-89130952D01*
X64764271Y-89294964D01*
X64887317Y-89575782D01*
X65035976Y-89931809D01*
X65193128Y-90321449D01*
X65341655Y-90703104D01*
X65442619Y-90974333D01*
X65570093Y-91304910D01*
X65724919Y-91677324D01*
X65806869Y-91863333D01*
X65963594Y-92213345D01*
X66137846Y-92608741D01*
X66236691Y-92836141D01*
X66455409Y-93343283D01*
X66269120Y-93442982D01*
X66060614Y-93489131D01*
X65904494Y-93375043D01*
X65822330Y-93189187D01*
X65758535Y-93018047D01*
X65647315Y-92755271D01*
X65531387Y-92498333D01*
X65368698Y-92141628D01*
X65201103Y-91764008D01*
X65106909Y-91545833D01*
X64918481Y-91101333D01*
X62813298Y-91101333D01*
X62601912Y-91588167D01*
X62466899Y-91895743D01*
X62339781Y-92179815D01*
X62271304Y-92329000D01*
X62171687Y-92547555D01*
X62039491Y-92845513D01*
X61941700Y-93069833D01*
X61795418Y-93367053D01*
X61665482Y-93518235D01*
X61527365Y-93541666D01*
X61392395Y-93479392D01*
X61347699Y-93416966D01*
X61353874Y-93296327D01*
X61417949Y-93088656D01*
X61546952Y-92765131D01*
X61593396Y-92655188D01*
X61740159Y-92306177D01*
X61929626Y-91849606D01*
X62141360Y-91335035D01*
X62354923Y-90812024D01*
X62443663Y-90593333D01*
X62445036Y-90589960D01*
X62992000Y-90589960D01*
X63073697Y-90633018D01*
X63307732Y-90662573D01*
X63677520Y-90676901D01*
X63838667Y-90678000D01*
X64194058Y-90670727D01*
X64475995Y-90651116D01*
X64648642Y-90622479D01*
X64685333Y-90599730D01*
X64655662Y-90489032D01*
X64576898Y-90264881D01*
X64464414Y-89970406D01*
X64431333Y-89887126D01*
X64312636Y-89582082D01*
X64223587Y-89336827D01*
X64179527Y-89194132D01*
X64177333Y-89178964D01*
X64141718Y-89062447D01*
X64052973Y-88862847D01*
X64020097Y-88796729D01*
X63862862Y-88488320D01*
X63690788Y-88842327D01*
X63554852Y-89150827D01*
X63434432Y-89470022D01*
X63413233Y-89535000D01*
X63299482Y-89848726D01*
X63163107Y-90161038D01*
X63149876Y-90187794D01*
X63050410Y-90405500D01*
X62995673Y-90563788D01*
X62992000Y-90589960D01*
X62445036Y-90589960D01*
X62781624Y-89763282D01*
X63074114Y-89055744D01*
X63336077Y-88435045D01*
X63582462Y-87865510D01*
X63667484Y-87672333D01*
X63854607Y-87249000D01*
X64057513Y-87665314D01*
X64057513Y-87665314D01*
G37*
X64057513Y-87665314D02*
X64212741Y-88004743D01*
X64370444Y-88381241D01*
X64428651Y-88531267D01*
X64537940Y-88809079D01*
X64637616Y-89038808D01*
X64683958Y-89130952D01*
X64764271Y-89294964D01*
X64887317Y-89575782D01*
X65035976Y-89931809D01*
X65193128Y-90321449D01*
X65341655Y-90703104D01*
X65442619Y-90974333D01*
X65570093Y-91304910D01*
X65724919Y-91677324D01*
X65806869Y-91863333D01*
X65963594Y-92213345D01*
X66137846Y-92608741D01*
X66236691Y-92836141D01*
X66455409Y-93343283D01*
X66269120Y-93442982D01*
X66060614Y-93489131D01*
X65904494Y-93375043D01*
X65822330Y-93189187D01*
X65758535Y-93018047D01*
X65647315Y-92755271D01*
X65531387Y-92498333D01*
X65368698Y-92141628D01*
X65201103Y-91764008D01*
X65106909Y-91545833D01*
X64918481Y-91101333D01*
X62813298Y-91101333D01*
X62601912Y-91588167D01*
X62466899Y-91895743D01*
X62339781Y-92179815D01*
X62271304Y-92329000D01*
X62171687Y-92547555D01*
X62039491Y-92845513D01*
X61941700Y-93069833D01*
X61795418Y-93367053D01*
X61665482Y-93518235D01*
X61527365Y-93541666D01*
X61392395Y-93479392D01*
X61347699Y-93416966D01*
X61353874Y-93296327D01*
X61417949Y-93088656D01*
X61546952Y-92765131D01*
X61593396Y-92655188D01*
X61740159Y-92306177D01*
X61929626Y-91849606D01*
X62141360Y-91335035D01*
X62354923Y-90812024D01*
X62443663Y-90593333D01*
X62445036Y-90589960D01*
X62992000Y-90589960D01*
X63073697Y-90633018D01*
X63307732Y-90662573D01*
X63677520Y-90676901D01*
X63838667Y-90678000D01*
X64194058Y-90670727D01*
X64475995Y-90651116D01*
X64648642Y-90622479D01*
X64685333Y-90599730D01*
X64655662Y-90489032D01*
X64576898Y-90264881D01*
X64464414Y-89970406D01*
X64431333Y-89887126D01*
X64312636Y-89582082D01*
X64223587Y-89336827D01*
X64179527Y-89194132D01*
X64177333Y-89178964D01*
X64141718Y-89062447D01*
X64052973Y-88862847D01*
X64020097Y-88796729D01*
X63862862Y-88488320D01*
X63690788Y-88842327D01*
X63554852Y-89150827D01*
X63434432Y-89470022D01*
X63413233Y-89535000D01*
X63299482Y-89848726D01*
X63163107Y-90161038D01*
X63149876Y-90187794D01*
X63050410Y-90405500D01*
X62995673Y-90563788D01*
X62992000Y-90589960D01*
X62445036Y-90589960D01*
X62781624Y-89763282D01*
X63074114Y-89055744D01*
X63336077Y-88435045D01*
X63582462Y-87865510D01*
X63667484Y-87672333D01*
X63854607Y-87249000D01*
X64057513Y-87665314D01*
G36*
X75457146Y-87358035D02*
X75491816Y-87434133D01*
X75550909Y-87588401D01*
X75660053Y-87858230D01*
X75802520Y-88203574D01*
X75961585Y-88584383D01*
X76120522Y-88960611D01*
X76262604Y-89292207D01*
X76369247Y-89535000D01*
X76459474Y-89745957D01*
X76592868Y-90070741D01*
X76751525Y-90465244D01*
X76917535Y-90885357D01*
X76919222Y-90889667D01*
X77078368Y-91289186D01*
X77224480Y-91643127D01*
X77342160Y-91915030D01*
X77416011Y-92068441D01*
X77419866Y-92075000D01*
X77501134Y-92240790D01*
X77611817Y-92506756D01*
X77718108Y-92788482D01*
X77818590Y-93078275D01*
X77862206Y-93252118D01*
X77851814Y-93352512D01*
X77790272Y-93421960D01*
X77762124Y-93443214D01*
X77582996Y-93497436D01*
X77431253Y-93392243D01*
X77337078Y-93189187D01*
X77278212Y-93035712D01*
X77164957Y-92773171D01*
X77016390Y-92445063D01*
X76922724Y-92244333D01*
X76761786Y-91897081D01*
X76624409Y-91589363D01*
X76529995Y-91365201D01*
X76502886Y-91291833D01*
X76470802Y-91213749D01*
X76413669Y-91160562D01*
X76302690Y-91127499D01*
X76109066Y-91109788D01*
X75804002Y-91102657D01*
X75358698Y-91101333D01*
X75353333Y-91101333D01*
X74906520Y-91102607D01*
X74600326Y-91109609D01*
X74406039Y-91127110D01*
X74294947Y-91159883D01*
X74238337Y-91212700D01*
X74207499Y-91290331D01*
X74207049Y-91291833D01*
X74142177Y-91467531D01*
X74030486Y-91733924D01*
X73915750Y-91990333D01*
X73748184Y-92364590D01*
X73571403Y-92775887D01*
X73476215Y-93005949D01*
X73323068Y-93330373D01*
X73180244Y-93502076D01*
X73030661Y-93535438D01*
X72910106Y-93482464D01*
X72850655Y-93416514D01*
X72841120Y-93306307D01*
X72888346Y-93124641D01*
X72999176Y-92844315D01*
X73163586Y-92475046D01*
X73284633Y-92204221D01*
X73371529Y-91999249D01*
X73405968Y-91903356D01*
X73406000Y-91902624D01*
X73438361Y-91807865D01*
X73520354Y-91614826D01*
X73571057Y-91502577D01*
X73705151Y-91197755D01*
X73849522Y-90850461D01*
X73901250Y-90720333D01*
X73958816Y-90573699D01*
X74533237Y-90573699D01*
X74554421Y-90628955D01*
X74646086Y-90660149D01*
X74836896Y-90674158D01*
X75155514Y-90677862D01*
X75347628Y-90678000D01*
X75704347Y-90674984D01*
X75987715Y-90666850D01*
X76162008Y-90654965D01*
X76200000Y-90645342D01*
X76172365Y-90554934D01*
X76098274Y-90342354D01*
X75990946Y-90043901D01*
X75863600Y-89695872D01*
X75729456Y-89334567D01*
X75601731Y-88996283D01*
X75556669Y-88878833D01*
X75460415Y-88650367D01*
X75383545Y-88504818D01*
X75356237Y-88476997D01*
X75312897Y-88550557D01*
X75224533Y-88747426D01*
X75105257Y-89032243D01*
X74969181Y-89369646D01*
X74830418Y-89724273D01*
X74703081Y-90060762D01*
X74601281Y-90343751D01*
X74553871Y-90487500D01*
X74533237Y-90573699D01*
X73958816Y-90573699D01*
X74169014Y-90038279D01*
X74379964Y-89510751D01*
X74535877Y-89133401D01*
X74638530Y-88901883D01*
X74668902Y-88842176D01*
X74739980Y-88693823D01*
X74852084Y-88436837D01*
X74984052Y-88120080D01*
X75019668Y-88032320D01*
X75181080Y-87652026D01*
X75301359Y-87421036D01*
X75390163Y-87327117D01*
X75457146Y-87358035D01*
X75457146Y-87358035D01*
G37*
X75457146Y-87358035D02*
X75491816Y-87434133D01*
X75550909Y-87588401D01*
X75660053Y-87858230D01*
X75802520Y-88203574D01*
X75961585Y-88584383D01*
X76120522Y-88960611D01*
X76262604Y-89292207D01*
X76369247Y-89535000D01*
X76459474Y-89745957D01*
X76592868Y-90070741D01*
X76751525Y-90465244D01*
X76917535Y-90885357D01*
X76919222Y-90889667D01*
X77078368Y-91289186D01*
X77224480Y-91643127D01*
X77342160Y-91915030D01*
X77416011Y-92068441D01*
X77419866Y-92075000D01*
X77501134Y-92240790D01*
X77611817Y-92506756D01*
X77718108Y-92788482D01*
X77818590Y-93078275D01*
X77862206Y-93252118D01*
X77851814Y-93352512D01*
X77790272Y-93421960D01*
X77762124Y-93443214D01*
X77582996Y-93497436D01*
X77431253Y-93392243D01*
X77337078Y-93189187D01*
X77278212Y-93035712D01*
X77164957Y-92773171D01*
X77016390Y-92445063D01*
X76922724Y-92244333D01*
X76761786Y-91897081D01*
X76624409Y-91589363D01*
X76529995Y-91365201D01*
X76502886Y-91291833D01*
X76470802Y-91213749D01*
X76413669Y-91160562D01*
X76302690Y-91127499D01*
X76109066Y-91109788D01*
X75804002Y-91102657D01*
X75358698Y-91101333D01*
X75353333Y-91101333D01*
X74906520Y-91102607D01*
X74600326Y-91109609D01*
X74406039Y-91127110D01*
X74294947Y-91159883D01*
X74238337Y-91212700D01*
X74207499Y-91290331D01*
X74207049Y-91291833D01*
X74142177Y-91467531D01*
X74030486Y-91733924D01*
X73915750Y-91990333D01*
X73748184Y-92364590D01*
X73571403Y-92775887D01*
X73476215Y-93005949D01*
X73323068Y-93330373D01*
X73180244Y-93502076D01*
X73030661Y-93535438D01*
X72910106Y-93482464D01*
X72850655Y-93416514D01*
X72841120Y-93306307D01*
X72888346Y-93124641D01*
X72999176Y-92844315D01*
X73163586Y-92475046D01*
X73284633Y-92204221D01*
X73371529Y-91999249D01*
X73405968Y-91903356D01*
X73406000Y-91902624D01*
X73438361Y-91807865D01*
X73520354Y-91614826D01*
X73571057Y-91502577D01*
X73705151Y-91197755D01*
X73849522Y-90850461D01*
X73901250Y-90720333D01*
X73958816Y-90573699D01*
X74533237Y-90573699D01*
X74554421Y-90628955D01*
X74646086Y-90660149D01*
X74836896Y-90674158D01*
X75155514Y-90677862D01*
X75347628Y-90678000D01*
X75704347Y-90674984D01*
X75987715Y-90666850D01*
X76162008Y-90654965D01*
X76200000Y-90645342D01*
X76172365Y-90554934D01*
X76098274Y-90342354D01*
X75990946Y-90043901D01*
X75863600Y-89695872D01*
X75729456Y-89334567D01*
X75601731Y-88996283D01*
X75556669Y-88878833D01*
X75460415Y-88650367D01*
X75383545Y-88504818D01*
X75356237Y-88476997D01*
X75312897Y-88550557D01*
X75224533Y-88747426D01*
X75105257Y-89032243D01*
X74969181Y-89369646D01*
X74830418Y-89724273D01*
X74703081Y-90060762D01*
X74601281Y-90343751D01*
X74553871Y-90487500D01*
X74533237Y-90573699D01*
X73958816Y-90573699D01*
X74169014Y-90038279D01*
X74379964Y-89510751D01*
X74535877Y-89133401D01*
X74638530Y-88901883D01*
X74668902Y-88842176D01*
X74739980Y-88693823D01*
X74852084Y-88436837D01*
X74984052Y-88120080D01*
X75019668Y-88032320D01*
X75181080Y-87652026D01*
X75301359Y-87421036D01*
X75390163Y-87327117D01*
X75457146Y-87358035D01*
G36*
X87427660Y-87380243D02*
X87814833Y-87509240D01*
X88471498Y-87854021D01*
X89022269Y-88307880D01*
X89453117Y-88851447D01*
X89750014Y-89465350D01*
X89898931Y-90130220D01*
X89913930Y-90407674D01*
X89879938Y-90843078D01*
X89784748Y-91280437D01*
X89645544Y-91651684D01*
X89564465Y-91791737D01*
X89456333Y-91960209D01*
X89408159Y-92061287D01*
X89408000Y-92063653D01*
X89346541Y-92169499D01*
X89186113Y-92344929D01*
X88962633Y-92557163D01*
X88712021Y-92773422D01*
X88470198Y-92960924D01*
X88307333Y-93068120D01*
X88029846Y-93200163D01*
X87676005Y-93331318D01*
X87302540Y-93444505D01*
X86966176Y-93522643D01*
X86723640Y-93548654D01*
X86712995Y-93548165D01*
X86558768Y-93526205D01*
X86300199Y-93477679D01*
X86043684Y-93423952D01*
X85631221Y-93318316D01*
X85304341Y-93188420D01*
X85003814Y-93002485D01*
X84670412Y-92728732D01*
X84556505Y-92625991D01*
X84110782Y-92158689D01*
X83805596Y-91687166D01*
X83616342Y-91169748D01*
X83570262Y-90955506D01*
X83532451Y-90373019D01*
X84074000Y-90373019D01*
X84140509Y-91030535D01*
X84344573Y-91598359D01*
X84692999Y-92087514D01*
X85192592Y-92509027D01*
X85513333Y-92704565D01*
X85773355Y-92836465D01*
X86000942Y-92913958D01*
X86260007Y-92951161D01*
X86614463Y-92962193D01*
X86680873Y-92962466D01*
X87096223Y-92951221D01*
X87400910Y-92908944D01*
X87652242Y-92826032D01*
X87739206Y-92785135D01*
X88008693Y-92632054D01*
X88326136Y-92426766D01*
X88533119Y-92279714D01*
X88921950Y-91899291D01*
X89183112Y-91427859D01*
X89322308Y-90852167D01*
X89350229Y-90381667D01*
X89294560Y-89786384D01*
X89117005Y-89273863D01*
X88802772Y-88816817D01*
X88337066Y-88387960D01*
X88222667Y-88301868D01*
X87854587Y-88068687D01*
X87489533Y-87926916D01*
X87068272Y-87859532D01*
X86642902Y-87847811D01*
X86278436Y-87857826D01*
X86020512Y-87890329D01*
X85806485Y-87960712D01*
X85573712Y-88084367D01*
X85499902Y-88128654D01*
X84928790Y-88530017D01*
X84514052Y-88953650D01*
X84242736Y-89419935D01*
X84101895Y-89949255D01*
X84074000Y-90373019D01*
X83532451Y-90373019D01*
X83524966Y-90257722D01*
X83638773Y-89589433D01*
X83901848Y-88968536D01*
X84304359Y-88412927D01*
X84836472Y-87940502D01*
X85411673Y-87604229D01*
X86093318Y-87362466D01*
X86761787Y-87287943D01*
X87427660Y-87380243D01*
X87427660Y-87380243D01*
G37*
X87427660Y-87380243D02*
X87814833Y-87509240D01*
X88471498Y-87854021D01*
X89022269Y-88307880D01*
X89453117Y-88851447D01*
X89750014Y-89465350D01*
X89898931Y-90130220D01*
X89913930Y-90407674D01*
X89879938Y-90843078D01*
X89784748Y-91280437D01*
X89645544Y-91651684D01*
X89564465Y-91791737D01*
X89456333Y-91960209D01*
X89408159Y-92061287D01*
X89408000Y-92063653D01*
X89346541Y-92169499D01*
X89186113Y-92344929D01*
X88962633Y-92557163D01*
X88712021Y-92773422D01*
X88470198Y-92960924D01*
X88307333Y-93068120D01*
X88029846Y-93200163D01*
X87676005Y-93331318D01*
X87302540Y-93444505D01*
X86966176Y-93522643D01*
X86723640Y-93548654D01*
X86712995Y-93548165D01*
X86558768Y-93526205D01*
X86300199Y-93477679D01*
X86043684Y-93423952D01*
X85631221Y-93318316D01*
X85304341Y-93188420D01*
X85003814Y-93002485D01*
X84670412Y-92728732D01*
X84556505Y-92625991D01*
X84110782Y-92158689D01*
X83805596Y-91687166D01*
X83616342Y-91169748D01*
X83570262Y-90955506D01*
X83532451Y-90373019D01*
X84074000Y-90373019D01*
X84140509Y-91030535D01*
X84344573Y-91598359D01*
X84692999Y-92087514D01*
X85192592Y-92509027D01*
X85513333Y-92704565D01*
X85773355Y-92836465D01*
X86000942Y-92913958D01*
X86260007Y-92951161D01*
X86614463Y-92962193D01*
X86680873Y-92962466D01*
X87096223Y-92951221D01*
X87400910Y-92908944D01*
X87652242Y-92826032D01*
X87739206Y-92785135D01*
X88008693Y-92632054D01*
X88326136Y-92426766D01*
X88533119Y-92279714D01*
X88921950Y-91899291D01*
X89183112Y-91427859D01*
X89322308Y-90852167D01*
X89350229Y-90381667D01*
X89294560Y-89786384D01*
X89117005Y-89273863D01*
X88802772Y-88816817D01*
X88337066Y-88387960D01*
X88222667Y-88301868D01*
X87854587Y-88068687D01*
X87489533Y-87926916D01*
X87068272Y-87859532D01*
X86642902Y-87847811D01*
X86278436Y-87857826D01*
X86020512Y-87890329D01*
X85806485Y-87960712D01*
X85573712Y-88084367D01*
X85499902Y-88128654D01*
X84928790Y-88530017D01*
X84514052Y-88953650D01*
X84242736Y-89419935D01*
X84101895Y-89949255D01*
X84074000Y-90373019D01*
X83532451Y-90373019D01*
X83524966Y-90257722D01*
X83638773Y-89589433D01*
X83901848Y-88968536D01*
X84304359Y-88412927D01*
X84836472Y-87940502D01*
X85411673Y-87604229D01*
X86093318Y-87362466D01*
X86761787Y-87287943D01*
X87427660Y-87380243D01*
G36*
X59910057Y-88565924D02*
X59948664Y-88591864D01*
X59977567Y-88657400D01*
X59997880Y-88780783D01*
X60010716Y-88980261D01*
X60017190Y-89274082D01*
X60018415Y-89680497D01*
X60015507Y-90217754D01*
X60009578Y-90904102D01*
X60008798Y-90988478D01*
X60000301Y-91732400D01*
X59989042Y-92321789D01*
X59973436Y-92771437D01*
X59951893Y-93096142D01*
X59922828Y-93310697D01*
X59884653Y-93429898D01*
X59835781Y-93468539D01*
X59774623Y-93441415D01*
X59748208Y-93417319D01*
X59733183Y-93320747D01*
X59719596Y-93076834D01*
X59707970Y-92707568D01*
X59698824Y-92234938D01*
X59692679Y-91680933D01*
X59690058Y-91067543D01*
X59690000Y-90960222D01*
X59690349Y-90261063D01*
X59692268Y-89712882D01*
X59697062Y-89297328D01*
X59706037Y-88996046D01*
X59720497Y-88790682D01*
X59741748Y-88662882D01*
X59771097Y-88594294D01*
X59809847Y-88566562D01*
X59859306Y-88561334D01*
X59860632Y-88561333D01*
X59910057Y-88565924D01*
X59910057Y-88565924D01*
G37*
X59910057Y-88565924D02*
X59948664Y-88591864D01*
X59977567Y-88657400D01*
X59997880Y-88780783D01*
X60010716Y-88980261D01*
X60017190Y-89274082D01*
X60018415Y-89680497D01*
X60015507Y-90217754D01*
X60009578Y-90904102D01*
X60008798Y-90988478D01*
X60000301Y-91732400D01*
X59989042Y-92321789D01*
X59973436Y-92771437D01*
X59951893Y-93096142D01*
X59922828Y-93310697D01*
X59884653Y-93429898D01*
X59835781Y-93468539D01*
X59774623Y-93441415D01*
X59748208Y-93417319D01*
X59733183Y-93320747D01*
X59719596Y-93076834D01*
X59707970Y-92707568D01*
X59698824Y-92234938D01*
X59692679Y-91680933D01*
X59690058Y-91067543D01*
X59690000Y-90960222D01*
X59690349Y-90261063D01*
X59692268Y-89712882D01*
X59697062Y-89297328D01*
X59706037Y-88996046D01*
X59720497Y-88790682D01*
X59741748Y-88662882D01*
X59771097Y-88594294D01*
X59809847Y-88566562D01*
X59859306Y-88561334D01*
X59860632Y-88561333D01*
X59910057Y-88565924D01*
G36*
X60418057Y-88565924D02*
X60456664Y-88591864D01*
X60485567Y-88657400D01*
X60505880Y-88780783D01*
X60518716Y-88980261D01*
X60525190Y-89274082D01*
X60526415Y-89680497D01*
X60523507Y-90217754D01*
X60517578Y-90904102D01*
X60516798Y-90988478D01*
X60508301Y-91732400D01*
X60497042Y-92321789D01*
X60481436Y-92771437D01*
X60459893Y-93096142D01*
X60430828Y-93310697D01*
X60392653Y-93429898D01*
X60343781Y-93468539D01*
X60282623Y-93441415D01*
X60256208Y-93417319D01*
X60241183Y-93320747D01*
X60227596Y-93076834D01*
X60215970Y-92707568D01*
X60206824Y-92234938D01*
X60200679Y-91680933D01*
X60198058Y-91067543D01*
X60198000Y-90960222D01*
X60198349Y-90261063D01*
X60200268Y-89712882D01*
X60205062Y-89297328D01*
X60214037Y-88996046D01*
X60228497Y-88790682D01*
X60249748Y-88662882D01*
X60279097Y-88594294D01*
X60317847Y-88566562D01*
X60367306Y-88561334D01*
X60368632Y-88561333D01*
X60418057Y-88565924D01*
X60418057Y-88565924D01*
G37*
X60418057Y-88565924D02*
X60456664Y-88591864D01*
X60485567Y-88657400D01*
X60505880Y-88780783D01*
X60518716Y-88980261D01*
X60525190Y-89274082D01*
X60526415Y-89680497D01*
X60523507Y-90217754D01*
X60517578Y-90904102D01*
X60516798Y-90988478D01*
X60508301Y-91732400D01*
X60497042Y-92321789D01*
X60481436Y-92771437D01*
X60459893Y-93096142D01*
X60430828Y-93310697D01*
X60392653Y-93429898D01*
X60343781Y-93468539D01*
X60282623Y-93441415D01*
X60256208Y-93417319D01*
X60241183Y-93320747D01*
X60227596Y-93076834D01*
X60215970Y-92707568D01*
X60206824Y-92234938D01*
X60200679Y-91680933D01*
X60198058Y-91067543D01*
X60198000Y-90960222D01*
X60198349Y-90261063D01*
X60200268Y-89712882D01*
X60205062Y-89297328D01*
X60214037Y-88996046D01*
X60228497Y-88790682D01*
X60249748Y-88662882D01*
X60279097Y-88594294D01*
X60317847Y-88566562D01*
X60367306Y-88561334D01*
X60368632Y-88561333D01*
X60418057Y-88565924D01*
G36*
X80237583Y-87336214D02*
X80551394Y-87348753D01*
X80783638Y-87378628D01*
X80978189Y-87433183D01*
X81178920Y-87519761D01*
X81315706Y-87587667D01*
X81798083Y-87915675D01*
X82139621Y-88332081D01*
X82333973Y-88822388D01*
X82374788Y-89372105D01*
X82297185Y-89828264D01*
X82141145Y-90168447D01*
X81878111Y-90512816D01*
X81557822Y-90801461D01*
X81410950Y-90895720D01*
X81350991Y-90936648D01*
X81325526Y-90990003D01*
X81346073Y-91073973D01*
X81424150Y-91206749D01*
X81571276Y-91406520D01*
X81798969Y-91691477D01*
X82118746Y-92079809D01*
X82296000Y-92293423D01*
X82630369Y-92695903D01*
X82866951Y-92985469D01*
X83014785Y-93180591D01*
X83082908Y-93299743D01*
X83080356Y-93361395D01*
X83016168Y-93384020D01*
X82899381Y-93386090D01*
X82830163Y-93385225D01*
X82657084Y-93372316D01*
X82518994Y-93317033D01*
X82376538Y-93190548D01*
X82190362Y-92964033D01*
X82107796Y-92856058D01*
X81878414Y-92561120D01*
X81653497Y-92284131D01*
X81479846Y-92082656D01*
X81472796Y-92075000D01*
X81266429Y-91837703D01*
X81048285Y-91566401D01*
X81000524Y-91503500D01*
X80763382Y-91186000D01*
X79248000Y-91186000D01*
X79248000Y-93387333D01*
X78737861Y-93387333D01*
X78778290Y-87884000D01*
X79248000Y-87884000D01*
X79248000Y-90593333D01*
X80082146Y-90593333D01*
X80484327Y-90588508D01*
X80761232Y-90569002D01*
X80956765Y-90527266D01*
X81114832Y-90455752D01*
X81201964Y-90400818D01*
X81579230Y-90061114D01*
X81804624Y-89657086D01*
X81872667Y-89238667D01*
X81791951Y-88784809D01*
X81553826Y-88385681D01*
X81201964Y-88076515D01*
X81045775Y-87985346D01*
X80876336Y-87928119D01*
X80649743Y-87897285D01*
X80322090Y-87885296D01*
X80082146Y-87884000D01*
X79248000Y-87884000D01*
X78778290Y-87884000D01*
X78782333Y-87333667D01*
X79798333Y-87333667D01*
X80237583Y-87336214D01*
X80237583Y-87336214D01*
G37*
X80237583Y-87336214D02*
X80551394Y-87348753D01*
X80783638Y-87378628D01*
X80978189Y-87433183D01*
X81178920Y-87519761D01*
X81315706Y-87587667D01*
X81798083Y-87915675D01*
X82139621Y-88332081D01*
X82333973Y-88822388D01*
X82374788Y-89372105D01*
X82297185Y-89828264D01*
X82141145Y-90168447D01*
X81878111Y-90512816D01*
X81557822Y-90801461D01*
X81410950Y-90895720D01*
X81350991Y-90936648D01*
X81325526Y-90990003D01*
X81346073Y-91073973D01*
X81424150Y-91206749D01*
X81571276Y-91406520D01*
X81798969Y-91691477D01*
X82118746Y-92079809D01*
X82296000Y-92293423D01*
X82630369Y-92695903D01*
X82866951Y-92985469D01*
X83014785Y-93180591D01*
X83082908Y-93299743D01*
X83080356Y-93361395D01*
X83016168Y-93384020D01*
X82899381Y-93386090D01*
X82830163Y-93385225D01*
X82657084Y-93372316D01*
X82518994Y-93317033D01*
X82376538Y-93190548D01*
X82190362Y-92964033D01*
X82107796Y-92856058D01*
X81878414Y-92561120D01*
X81653497Y-92284131D01*
X81479846Y-92082656D01*
X81472796Y-92075000D01*
X81266429Y-91837703D01*
X81048285Y-91566401D01*
X81000524Y-91503500D01*
X80763382Y-91186000D01*
X79248000Y-91186000D01*
X79248000Y-93387333D01*
X78737861Y-93387333D01*
X78778290Y-87884000D01*
X79248000Y-87884000D01*
X79248000Y-90593333D01*
X80082146Y-90593333D01*
X80484327Y-90588508D01*
X80761232Y-90569002D01*
X80956765Y-90527266D01*
X81114832Y-90455752D01*
X81201964Y-90400818D01*
X81579230Y-90061114D01*
X81804624Y-89657086D01*
X81872667Y-89238667D01*
X81791951Y-88784809D01*
X81553826Y-88385681D01*
X81201964Y-88076515D01*
X81045775Y-87985346D01*
X80876336Y-87928119D01*
X80649743Y-87897285D01*
X80322090Y-87885296D01*
X80082146Y-87884000D01*
X79248000Y-87884000D01*
X78778290Y-87884000D01*
X78782333Y-87333667D01*
X79798333Y-87333667D01*
X80237583Y-87336214D01*
G36*
X59890604Y-84098370D02*
X59961786Y-84180046D01*
X60017672Y-84379938D01*
X60059400Y-84709143D01*
X60088109Y-85178761D01*
X60104939Y-85799889D01*
X60109700Y-86233000D01*
X60114472Y-86745357D01*
X60123656Y-87119462D01*
X60141246Y-87386395D01*
X60171233Y-87577237D01*
X60217610Y-87723068D01*
X60284368Y-87854968D01*
X60327208Y-87926333D01*
X60475482Y-88184047D01*
X60523011Y-88345653D01*
X60452565Y-88433435D01*
X60246914Y-88469677D01*
X59901667Y-88476667D01*
X59545003Y-88466619D01*
X59339352Y-88434559D01*
X59267479Y-88377613D01*
X59266983Y-88370833D01*
X59310155Y-88237061D01*
X59417372Y-88033538D01*
X59457483Y-87968667D01*
X59524752Y-87854529D01*
X59574051Y-87734436D01*
X59608208Y-87581023D01*
X59630051Y-87366923D01*
X59642408Y-87064769D01*
X59648106Y-86647196D01*
X59649945Y-86106000D01*
X59655839Y-85424972D01*
X59672353Y-84899852D01*
X59701069Y-84517455D01*
X59743566Y-84264599D01*
X59801425Y-84128098D01*
X59876227Y-84094770D01*
X59890604Y-84098370D01*
X59890604Y-84098370D01*
G37*
X59890604Y-84098370D02*
X59961786Y-84180046D01*
X60017672Y-84379938D01*
X60059400Y-84709143D01*
X60088109Y-85178761D01*
X60104939Y-85799889D01*
X60109700Y-86233000D01*
X60114472Y-86745357D01*
X60123656Y-87119462D01*
X60141246Y-87386395D01*
X60171233Y-87577237D01*
X60217610Y-87723068D01*
X60284368Y-87854968D01*
X60327208Y-87926333D01*
X60475482Y-88184047D01*
X60523011Y-88345653D01*
X60452565Y-88433435D01*
X60246914Y-88469677D01*
X59901667Y-88476667D01*
X59545003Y-88466619D01*
X59339352Y-88434559D01*
X59267479Y-88377613D01*
X59266983Y-88370833D01*
X59310155Y-88237061D01*
X59417372Y-88033538D01*
X59457483Y-87968667D01*
X59524752Y-87854529D01*
X59574051Y-87734436D01*
X59608208Y-87581023D01*
X59630051Y-87366923D01*
X59642408Y-87064769D01*
X59648106Y-86647196D01*
X59649945Y-86106000D01*
X59655839Y-85424972D01*
X59672353Y-84899852D01*
X59701069Y-84517455D01*
X59743566Y-84264599D01*
X59801425Y-84128098D01*
X59876227Y-84094770D01*
X59890604Y-84098370D01*
G04 #@! TO.C,C1*
D12*
X47237142Y-52236666D02*
X47284761Y-52284285D01*
X47332380Y-52427142D01*
X47332380Y-52522380D01*
X47284761Y-52665238D01*
X47189523Y-52760476D01*
X47094285Y-52808095D01*
X46903809Y-52855714D01*
X46760952Y-52855714D01*
X46570476Y-52808095D01*
X46475238Y-52760476D01*
X46380000Y-52665238D01*
X46332380Y-52522380D01*
X46332380Y-52427142D01*
X46380000Y-52284285D01*
X46427619Y-52236666D01*
X47332380Y-51284285D02*
X47332380Y-51855714D01*
X47332380Y-51570000D02*
X46332380Y-51570000D01*
X46475238Y-51665238D01*
X46570476Y-51760476D01*
X46618095Y-51855714D01*
X48531428Y-49070952D02*
X48531428Y-48309047D01*
X48912380Y-48690000D02*
X48150476Y-48690000D01*
G04 #@! TO.C,C2*
X47237142Y-70016666D02*
X47284761Y-70064285D01*
X47332380Y-70207142D01*
X47332380Y-70302380D01*
X47284761Y-70445238D01*
X47189523Y-70540476D01*
X47094285Y-70588095D01*
X46903809Y-70635714D01*
X46760952Y-70635714D01*
X46570476Y-70588095D01*
X46475238Y-70540476D01*
X46380000Y-70445238D01*
X46332380Y-70302380D01*
X46332380Y-70207142D01*
X46380000Y-70064285D01*
X46427619Y-70016666D01*
X46427619Y-69635714D02*
X46380000Y-69588095D01*
X46332380Y-69492857D01*
X46332380Y-69254761D01*
X46380000Y-69159523D01*
X46427619Y-69111904D01*
X46522857Y-69064285D01*
X46618095Y-69064285D01*
X46760952Y-69111904D01*
X47332380Y-69683333D01*
X47332380Y-69064285D01*
X48531428Y-66850952D02*
X48531428Y-66089047D01*
X48912380Y-66470000D02*
X48150476Y-66470000D01*
G04 #@! TO.C,C3*
X123917142Y-77636666D02*
X123964761Y-77684285D01*
X124012380Y-77827142D01*
X124012380Y-77922380D01*
X123964761Y-78065238D01*
X123869523Y-78160476D01*
X123774285Y-78208095D01*
X123583809Y-78255714D01*
X123440952Y-78255714D01*
X123250476Y-78208095D01*
X123155238Y-78160476D01*
X123060000Y-78065238D01*
X123012380Y-77922380D01*
X123012380Y-77827142D01*
X123060000Y-77684285D01*
X123107619Y-77636666D01*
X123012380Y-77303333D02*
X123012380Y-76684285D01*
X123393333Y-77017619D01*
X123393333Y-76874761D01*
X123440952Y-76779523D01*
X123488571Y-76731904D01*
X123583809Y-76684285D01*
X123821904Y-76684285D01*
X123917142Y-76731904D01*
X123964761Y-76779523D01*
X124012380Y-76874761D01*
X124012380Y-77160476D01*
X123964761Y-77255714D01*
X123917142Y-77303333D01*
X122081428Y-82630952D02*
X122081428Y-81869047D01*
X122462380Y-82250000D02*
X121700476Y-82250000D01*
G04 #@! TO.C,R1*
X102703333Y-70032380D02*
X102370000Y-69556190D01*
X102131904Y-70032380D02*
X102131904Y-69032380D01*
X102512857Y-69032380D01*
X102608095Y-69080000D01*
X102655714Y-69127619D01*
X102703333Y-69222857D01*
X102703333Y-69365714D01*
X102655714Y-69460952D01*
X102608095Y-69508571D01*
X102512857Y-69556190D01*
X102131904Y-69556190D01*
X103655714Y-70032380D02*
X103084285Y-70032380D01*
X103370000Y-70032380D02*
X103370000Y-69032380D01*
X103274761Y-69175238D01*
X103179523Y-69270476D01*
X103084285Y-69318095D01*
G04 #@! TO.C,R2*
X67143333Y-50482380D02*
X66810000Y-50006190D01*
X66571904Y-50482380D02*
X66571904Y-49482380D01*
X66952857Y-49482380D01*
X67048095Y-49530000D01*
X67095714Y-49577619D01*
X67143333Y-49672857D01*
X67143333Y-49815714D01*
X67095714Y-49910952D01*
X67048095Y-49958571D01*
X66952857Y-50006190D01*
X66571904Y-50006190D01*
X67524285Y-49577619D02*
X67571904Y-49530000D01*
X67667142Y-49482380D01*
X67905238Y-49482380D01*
X68000476Y-49530000D01*
X68048095Y-49577619D01*
X68095714Y-49672857D01*
X68095714Y-49768095D01*
X68048095Y-49910952D01*
X67476666Y-50482380D01*
X68095714Y-50482380D01*
G04 #@! TO.C,R3*
X67143333Y-68262380D02*
X66810000Y-67786190D01*
X66571904Y-68262380D02*
X66571904Y-67262380D01*
X66952857Y-67262380D01*
X67048095Y-67310000D01*
X67095714Y-67357619D01*
X67143333Y-67452857D01*
X67143333Y-67595714D01*
X67095714Y-67690952D01*
X67048095Y-67738571D01*
X66952857Y-67786190D01*
X66571904Y-67786190D01*
X67476666Y-67262380D02*
X68095714Y-67262380D01*
X67762380Y-67643333D01*
X67905238Y-67643333D01*
X68000476Y-67690952D01*
X68048095Y-67738571D01*
X68095714Y-67833809D01*
X68095714Y-68071904D01*
X68048095Y-68167142D01*
X68000476Y-68214761D01*
X67905238Y-68262380D01*
X67619523Y-68262380D01*
X67524285Y-68214761D01*
X67476666Y-68167142D01*
G04 #@! TO.C,R4*
X60793333Y-53212380D02*
X60460000Y-52736190D01*
X60221904Y-53212380D02*
X60221904Y-52212380D01*
X60602857Y-52212380D01*
X60698095Y-52260000D01*
X60745714Y-52307619D01*
X60793333Y-52402857D01*
X60793333Y-52545714D01*
X60745714Y-52640952D01*
X60698095Y-52688571D01*
X60602857Y-52736190D01*
X60221904Y-52736190D01*
X61650476Y-52545714D02*
X61650476Y-53212380D01*
X61412380Y-52164761D02*
X61174285Y-52879047D01*
X61793333Y-52879047D01*
G04 #@! TO.C,R5*
X60793333Y-70992380D02*
X60460000Y-70516190D01*
X60221904Y-70992380D02*
X60221904Y-69992380D01*
X60602857Y-69992380D01*
X60698095Y-70040000D01*
X60745714Y-70087619D01*
X60793333Y-70182857D01*
X60793333Y-70325714D01*
X60745714Y-70420952D01*
X60698095Y-70468571D01*
X60602857Y-70516190D01*
X60221904Y-70516190D01*
X61698095Y-69992380D02*
X61221904Y-69992380D01*
X61174285Y-70468571D01*
X61221904Y-70420952D01*
X61317142Y-70373333D01*
X61555238Y-70373333D01*
X61650476Y-70420952D01*
X61698095Y-70468571D01*
X61745714Y-70563809D01*
X61745714Y-70801904D01*
X61698095Y-70897142D01*
X61650476Y-70944761D01*
X61555238Y-70992380D01*
X61317142Y-70992380D01*
X61221904Y-70944761D01*
X61174285Y-70897142D01*
G04 #@! TO.C,R6*
X116602380Y-49696666D02*
X116126190Y-50030000D01*
X116602380Y-50268095D02*
X115602380Y-50268095D01*
X115602380Y-49887142D01*
X115650000Y-49791904D01*
X115697619Y-49744285D01*
X115792857Y-49696666D01*
X115935714Y-49696666D01*
X116030952Y-49744285D01*
X116078571Y-49791904D01*
X116126190Y-49887142D01*
X116126190Y-50268095D01*
X115602380Y-48839523D02*
X115602380Y-49030000D01*
X115650000Y-49125238D01*
X115697619Y-49172857D01*
X115840476Y-49268095D01*
X116030952Y-49315714D01*
X116411904Y-49315714D01*
X116507142Y-49268095D01*
X116554761Y-49220476D01*
X116602380Y-49125238D01*
X116602380Y-48934761D01*
X116554761Y-48839523D01*
X116507142Y-48791904D01*
X116411904Y-48744285D01*
X116173809Y-48744285D01*
X116078571Y-48791904D01*
X116030952Y-48839523D01*
X115983333Y-48934761D01*
X115983333Y-49125238D01*
X116030952Y-49220476D01*
X116078571Y-49268095D01*
X116173809Y-49315714D01*
G04 #@! TO.C,R7*
X116602380Y-58586666D02*
X116126190Y-58920000D01*
X116602380Y-59158095D02*
X115602380Y-59158095D01*
X115602380Y-58777142D01*
X115650000Y-58681904D01*
X115697619Y-58634285D01*
X115792857Y-58586666D01*
X115935714Y-58586666D01*
X116030952Y-58634285D01*
X116078571Y-58681904D01*
X116126190Y-58777142D01*
X116126190Y-59158095D01*
X115602380Y-58253333D02*
X115602380Y-57586666D01*
X116602380Y-58015238D01*
G04 #@! TO.C,U1*
X37552380Y-46481904D02*
X38361904Y-46481904D01*
X38457142Y-46434285D01*
X38504761Y-46386666D01*
X38552380Y-46291428D01*
X38552380Y-46100952D01*
X38504761Y-46005714D01*
X38457142Y-45958095D01*
X38361904Y-45910476D01*
X37552380Y-45910476D01*
X38552380Y-44910476D02*
X38552380Y-45481904D01*
X38552380Y-45196190D02*
X37552380Y-45196190D01*
X37695238Y-45291428D01*
X37790476Y-45386666D01*
X37838095Y-45481904D01*
G04 #@! TO.C,U2*
X37552380Y-64261904D02*
X38361904Y-64261904D01*
X38457142Y-64214285D01*
X38504761Y-64166666D01*
X38552380Y-64071428D01*
X38552380Y-63880952D01*
X38504761Y-63785714D01*
X38457142Y-63738095D01*
X38361904Y-63690476D01*
X37552380Y-63690476D01*
X37647619Y-63261904D02*
X37600000Y-63214285D01*
X37552380Y-63119047D01*
X37552380Y-62880952D01*
X37600000Y-62785714D01*
X37647619Y-62738095D01*
X37742857Y-62690476D01*
X37838095Y-62690476D01*
X37980952Y-62738095D01*
X38552380Y-63309523D01*
X38552380Y-62690476D01*
G04 #@! TO.C,U3*
X37552380Y-82041904D02*
X38361904Y-82041904D01*
X38457142Y-81994285D01*
X38504761Y-81946666D01*
X38552380Y-81851428D01*
X38552380Y-81660952D01*
X38504761Y-81565714D01*
X38457142Y-81518095D01*
X38361904Y-81470476D01*
X37552380Y-81470476D01*
X37552380Y-81089523D02*
X37552380Y-80470476D01*
X37933333Y-80803809D01*
X37933333Y-80660952D01*
X37980952Y-80565714D01*
X38028571Y-80518095D01*
X38123809Y-80470476D01*
X38361904Y-80470476D01*
X38457142Y-80518095D01*
X38504761Y-80565714D01*
X38552380Y-80660952D01*
X38552380Y-80946666D01*
X38504761Y-81041904D01*
X38457142Y-81089523D01*
G04 #@! TO.C,U4*
X37552380Y-98551904D02*
X38361904Y-98551904D01*
X38457142Y-98504285D01*
X38504761Y-98456666D01*
X38552380Y-98361428D01*
X38552380Y-98170952D01*
X38504761Y-98075714D01*
X38457142Y-98028095D01*
X38361904Y-97980476D01*
X37552380Y-97980476D01*
X37885714Y-97075714D02*
X38552380Y-97075714D01*
X37504761Y-97313809D02*
X38219047Y-97551904D01*
X38219047Y-96932857D01*
G04 #@! TO.C,U5*
X103378095Y-70782380D02*
X103378095Y-71591904D01*
X103425714Y-71687142D01*
X103473333Y-71734761D01*
X103568571Y-71782380D01*
X103759047Y-71782380D01*
X103854285Y-71734761D01*
X103901904Y-71687142D01*
X103949523Y-71591904D01*
X103949523Y-70782380D01*
X104901904Y-70782380D02*
X104425714Y-70782380D01*
X104378095Y-71258571D01*
X104425714Y-71210952D01*
X104520952Y-71163333D01*
X104759047Y-71163333D01*
X104854285Y-71210952D01*
X104901904Y-71258571D01*
X104949523Y-71353809D01*
X104949523Y-71591904D01*
X104901904Y-71687142D01*
X104854285Y-71734761D01*
X104759047Y-71782380D01*
X104520952Y-71782380D01*
X104425714Y-71734761D01*
X104378095Y-71687142D01*
G04 #@! TO.C,U6*
X85598095Y-131532380D02*
X85598095Y-132341904D01*
X85645714Y-132437142D01*
X85693333Y-132484761D01*
X85788571Y-132532380D01*
X85979047Y-132532380D01*
X86074285Y-132484761D01*
X86121904Y-132437142D01*
X86169523Y-132341904D01*
X86169523Y-131532380D01*
X87074285Y-131532380D02*
X86883809Y-131532380D01*
X86788571Y-131580000D01*
X86740952Y-131627619D01*
X86645714Y-131770476D01*
X86598095Y-131960952D01*
X86598095Y-132341904D01*
X86645714Y-132437142D01*
X86693333Y-132484761D01*
X86788571Y-132532380D01*
X86979047Y-132532380D01*
X87074285Y-132484761D01*
X87121904Y-132437142D01*
X87169523Y-132341904D01*
X87169523Y-132103809D01*
X87121904Y-132008571D01*
X87074285Y-131960952D01*
X86979047Y-131913333D01*
X86788571Y-131913333D01*
X86693333Y-131960952D01*
X86645714Y-132008571D01*
X86598095Y-132103809D01*
G04 #@! TO.C,U7*
X71628095Y-131532380D02*
X71628095Y-132341904D01*
X71675714Y-132437142D01*
X71723333Y-132484761D01*
X71818571Y-132532380D01*
X72009047Y-132532380D01*
X72104285Y-132484761D01*
X72151904Y-132437142D01*
X72199523Y-132341904D01*
X72199523Y-131532380D01*
X72580476Y-131532380D02*
X73247142Y-131532380D01*
X72818571Y-132532380D01*
G04 #@! TO.C,U8*
X55118095Y-131532380D02*
X55118095Y-132341904D01*
X55165714Y-132437142D01*
X55213333Y-132484761D01*
X55308571Y-132532380D01*
X55499047Y-132532380D01*
X55594285Y-132484761D01*
X55641904Y-132437142D01*
X55689523Y-132341904D01*
X55689523Y-131532380D01*
X56308571Y-131960952D02*
X56213333Y-131913333D01*
X56165714Y-131865714D01*
X56118095Y-131770476D01*
X56118095Y-131722857D01*
X56165714Y-131627619D01*
X56213333Y-131580000D01*
X56308571Y-131532380D01*
X56499047Y-131532380D01*
X56594285Y-131580000D01*
X56641904Y-131627619D01*
X56689523Y-131722857D01*
X56689523Y-131770476D01*
X56641904Y-131865714D01*
X56594285Y-131913333D01*
X56499047Y-131960952D01*
X56308571Y-131960952D01*
X56213333Y-132008571D01*
X56165714Y-132056190D01*
X56118095Y-132151428D01*
X56118095Y-132341904D01*
X56165714Y-132437142D01*
X56213333Y-132484761D01*
X56308571Y-132532380D01*
X56499047Y-132532380D01*
X56594285Y-132484761D01*
X56641904Y-132437142D01*
X56689523Y-132341904D01*
X56689523Y-132151428D01*
X56641904Y-132056190D01*
X56594285Y-132008571D01*
X56499047Y-131960952D01*
G04 #@! TO.C,U9*
X103378095Y-39032380D02*
X103378095Y-39841904D01*
X103425714Y-39937142D01*
X103473333Y-39984761D01*
X103568571Y-40032380D01*
X103759047Y-40032380D01*
X103854285Y-39984761D01*
X103901904Y-39937142D01*
X103949523Y-39841904D01*
X103949523Y-39032380D01*
X104473333Y-40032380D02*
X104663809Y-40032380D01*
X104759047Y-39984761D01*
X104806666Y-39937142D01*
X104901904Y-39794285D01*
X104949523Y-39603809D01*
X104949523Y-39222857D01*
X104901904Y-39127619D01*
X104854285Y-39080000D01*
X104759047Y-39032380D01*
X104568571Y-39032380D01*
X104473333Y-39080000D01*
X104425714Y-39127619D01*
X104378095Y-39222857D01*
X104378095Y-39460952D01*
X104425714Y-39556190D01*
X104473333Y-39603809D01*
X104568571Y-39651428D01*
X104759047Y-39651428D01*
X104854285Y-39603809D01*
X104901904Y-39556190D01*
X104949523Y-39460952D01*
G04 #@! TO.C,U10*
X132802380Y-48228095D02*
X133611904Y-48228095D01*
X133707142Y-48180476D01*
X133754761Y-48132857D01*
X133802380Y-48037619D01*
X133802380Y-47847142D01*
X133754761Y-47751904D01*
X133707142Y-47704285D01*
X133611904Y-47656666D01*
X132802380Y-47656666D01*
X133802380Y-46656666D02*
X133802380Y-47228095D01*
X133802380Y-46942380D02*
X132802380Y-46942380D01*
X132945238Y-47037619D01*
X133040476Y-47132857D01*
X133088095Y-47228095D01*
X132802380Y-46037619D02*
X132802380Y-45942380D01*
X132850000Y-45847142D01*
X132897619Y-45799523D01*
X132992857Y-45751904D01*
X133183333Y-45704285D01*
X133421428Y-45704285D01*
X133611904Y-45751904D01*
X133707142Y-45799523D01*
X133754761Y-45847142D01*
X133802380Y-45942380D01*
X133802380Y-46037619D01*
X133754761Y-46132857D01*
X133707142Y-46180476D01*
X133611904Y-46228095D01*
X133421428Y-46275714D01*
X133183333Y-46275714D01*
X132992857Y-46228095D01*
X132897619Y-46180476D01*
X132850000Y-46132857D01*
X132802380Y-46037619D01*
G04 #@! TD*
M02*
