G04 #@! TF.GenerationSoftware,KiCad,Pcbnew,(5.0.0)*
G04 #@! TF.CreationDate,2018-07-28T16:03:29+09:00*
G04 #@! TF.ProjectId,sensor-transducer,73656E736F722D7472616E7364756365,rev?*
G04 #@! TF.SameCoordinates,Original*
G04 #@! TF.FileFunction,Copper,L1,Top,Signal*
G04 #@! TF.FilePolarity,Positive*
%FSLAX46Y46*%
G04 Gerber Fmt 4.6, Leading zero omitted, Abs format (unit mm)*
G04 Created by KiCad (PCBNEW (5.0.0)) date 07/28/18 16:03:29*
%MOMM*%
%LPD*%
G01*
G04 APERTURE LIST*
G04 #@! TA.AperFunction,SMDPad,CuDef*
%ADD10R,1.600000X3.000000*%
G04 #@! TD*
G04 #@! TA.AperFunction,SMDPad,CuDef*
%ADD11R,2.500000X4.000000*%
G04 #@! TD*
G04 #@! TA.AperFunction,ComponentPad*
%ADD12C,1.440000*%
G04 #@! TD*
G04 #@! TA.AperFunction,ComponentPad*
%ADD13C,1.524000*%
G04 #@! TD*
G04 #@! TA.AperFunction,SMDPad,CuDef*
%ADD14R,2.000000X1.700000*%
G04 #@! TD*
G04 #@! TA.AperFunction,SMDPad,CuDef*
%ADD15R,1.700000X2.000000*%
G04 #@! TD*
G04 #@! TA.AperFunction,ComponentPad*
%ADD16R,1.600000X1.600000*%
G04 #@! TD*
G04 #@! TA.AperFunction,ComponentPad*
%ADD17O,1.600000X1.600000*%
G04 #@! TD*
G04 #@! TA.AperFunction,ViaPad*
%ADD18C,0.600000*%
G04 #@! TD*
G04 #@! TA.AperFunction,Conductor*
%ADD19C,0.500000*%
G04 #@! TD*
G04 #@! TA.AperFunction,Conductor*
%ADD20C,0.250000*%
G04 #@! TD*
G04 #@! TA.AperFunction,Conductor*
%ADD21C,1.000000*%
G04 #@! TD*
G04 APERTURE END LIST*
D10*
G04 #@! TO.P,C1,1*
G04 #@! TO.N,/PS1-*
X50800000Y-49870000D03*
G04 #@! TO.P,C1,2*
G04 #@! TO.N,Net-(C1-Pad2)*
X50800000Y-54270000D03*
G04 #@! TD*
G04 #@! TO.P,C2,1*
G04 #@! TO.N,/PS2-*
X50800000Y-67650000D03*
G04 #@! TO.P,C2,2*
G04 #@! TO.N,Net-(C2-Pad2)*
X50800000Y-72050000D03*
G04 #@! TD*
D11*
G04 #@! TO.P,C3,1*
G04 #@! TO.N,/LCout*
X118110000Y-80520000D03*
G04 #@! TO.P,C3,2*
G04 #@! TO.N,GND*
X118110000Y-74420000D03*
G04 #@! TD*
D12*
G04 #@! TO.P,R1,1*
G04 #@! TO.N,Net-(R1-Pad1)*
X100330000Y-67310000D03*
G04 #@! TO.P,R1,2*
G04 #@! TO.N,Net-(R1-Pad2)*
X102870000Y-64770000D03*
G04 #@! TO.P,R1,3*
G04 #@! TO.N,N/C*
X105410000Y-67310000D03*
G04 #@! TD*
D13*
G04 #@! TO.P,R2,1*
G04 #@! TO.N,/PS1-*
X54610000Y-45720000D03*
G04 #@! TO.P,R2,2*
G04 #@! TO.N,GND*
X80010000Y-45720000D03*
G04 #@! TD*
G04 #@! TO.P,R3,1*
G04 #@! TO.N,/PS2-*
X54610000Y-63500000D03*
G04 #@! TO.P,R3,2*
G04 #@! TO.N,GND*
X80010000Y-63500000D03*
G04 #@! TD*
D14*
G04 #@! TO.P,R4,1*
G04 #@! TO.N,Net-(C1-Pad2)*
X58960000Y-54610000D03*
G04 #@! TO.P,R4,2*
G04 #@! TO.N,GND*
X62960000Y-54610000D03*
G04 #@! TD*
G04 #@! TO.P,R5,1*
G04 #@! TO.N,Net-(C2-Pad2)*
X58960000Y-72390000D03*
G04 #@! TO.P,R5,2*
G04 #@! TO.N,GND*
X62960000Y-72390000D03*
G04 #@! TD*
D15*
G04 #@! TO.P,R6,1*
G04 #@! TO.N,+5V*
X114300000Y-47530000D03*
G04 #@! TO.P,R6,2*
G04 #@! TO.N,Net-(R6-Pad2)*
X114300000Y-51530000D03*
G04 #@! TD*
G04 #@! TO.P,R7,1*
G04 #@! TO.N,Net-(R6-Pad2)*
X114300000Y-56420000D03*
G04 #@! TO.P,R7,2*
G04 #@! TO.N,GND*
X114300000Y-60420000D03*
G04 #@! TD*
D13*
G04 #@! TO.P,U1,1*
G04 #@! TO.N,/24V+*
X40640000Y-43180000D03*
G04 #@! TO.P,U1,2*
G04 #@! TO.N,/PS1-*
X40640000Y-48260000D03*
G04 #@! TD*
G04 #@! TO.P,U2,1*
G04 #@! TO.N,/24V+*
X40640000Y-60960000D03*
G04 #@! TO.P,U2,2*
G04 #@! TO.N,/PS2-*
X40640000Y-66040000D03*
G04 #@! TD*
G04 #@! TO.P,U3,1*
G04 #@! TO.N,/LCSig-*
X40640000Y-78740000D03*
G04 #@! TO.P,U3,2*
G04 #@! TO.N,/LCSig+*
X40640000Y-83820000D03*
G04 #@! TD*
G04 #@! TO.P,U4,2*
G04 #@! TO.N,GND*
X41910000Y-97790000D03*
G04 #@! TO.P,U4,1*
G04 #@! TO.N,+12V*
X41910000Y-92710000D03*
G04 #@! TO.P,U4,3*
G04 #@! TO.N,GND*
X41910000Y-102870000D03*
G04 #@! TD*
D16*
G04 #@! TO.P,U5,1*
G04 #@! TO.N,Net-(R1-Pad1)*
X100330000Y-73660000D03*
D17*
G04 #@! TO.P,U5,5*
G04 #@! TO.N,/AD620Ref*
X107950000Y-81280000D03*
G04 #@! TO.P,U5,2*
G04 #@! TO.N,/LCSig-*
X100330000Y-76200000D03*
G04 #@! TO.P,U5,6*
G04 #@! TO.N,/LCout*
X107950000Y-78740000D03*
G04 #@! TO.P,U5,3*
G04 #@! TO.N,/LCSig+*
X100330000Y-78740000D03*
G04 #@! TO.P,U5,7*
G04 #@! TO.N,+5V*
X107950000Y-76200000D03*
G04 #@! TO.P,U5,4*
G04 #@! TO.N,-9VA*
X100330000Y-81280000D03*
G04 #@! TO.P,U5,8*
G04 #@! TO.N,Net-(R1-Pad2)*
X107950000Y-73660000D03*
G04 #@! TD*
D13*
G04 #@! TO.P,U6,1*
G04 #@! TO.N,/24V+*
X83820000Y-129540000D03*
G04 #@! TO.P,U6,2*
G04 #@! TO.N,GND*
X88900000Y-129540000D03*
G04 #@! TD*
G04 #@! TO.P,U7,1*
G04 #@! TO.N,+12V*
X69850000Y-129540000D03*
G04 #@! TO.P,U7,2*
G04 #@! TO.N,GND*
X74930000Y-129540000D03*
G04 #@! TD*
G04 #@! TO.P,U8,2*
G04 #@! TO.N,GND*
X55880000Y-128270000D03*
G04 #@! TO.P,U8,1*
G04 #@! TO.N,+5V*
X50800000Y-128270000D03*
G04 #@! TO.P,U8,3*
G04 #@! TO.N,-9VA*
X60960000Y-128270000D03*
G04 #@! TD*
D16*
G04 #@! TO.P,U9,1*
G04 #@! TO.N,/PS1out*
X100330000Y-41910000D03*
D17*
G04 #@! TO.P,U9,8*
G04 #@! TO.N,/AD620Ref*
X107950000Y-57150000D03*
G04 #@! TO.P,U9,2*
G04 #@! TO.N,/PS1out*
X100330000Y-44450000D03*
G04 #@! TO.P,U9,9*
G04 #@! TO.N,/AD620Ref*
X107950000Y-54610000D03*
G04 #@! TO.P,U9,3*
G04 #@! TO.N,/PS1-*
X100330000Y-46990000D03*
G04 #@! TO.P,U9,10*
G04 #@! TO.N,Net-(R6-Pad2)*
X107950000Y-52070000D03*
G04 #@! TO.P,U9,4*
G04 #@! TO.N,+12V*
X100330000Y-49530000D03*
G04 #@! TO.P,U9,11*
G04 #@! TO.N,GND*
X107950000Y-49530000D03*
G04 #@! TO.P,U9,5*
G04 #@! TO.N,/PS2-*
X100330000Y-52070000D03*
G04 #@! TO.P,U9,12*
G04 #@! TO.N,/floating*
X107950000Y-46990000D03*
G04 #@! TO.P,U9,6*
G04 #@! TO.N,/PS2out*
X100330000Y-54610000D03*
G04 #@! TO.P,U9,13*
G04 #@! TO.N,Net-(U9-Pad13)*
X107950000Y-44450000D03*
G04 #@! TO.P,U9,7*
G04 #@! TO.N,/PS2out*
X100330000Y-57150000D03*
G04 #@! TO.P,U9,14*
G04 #@! TO.N,Net-(U9-Pad13)*
X107950000Y-41910000D03*
G04 #@! TD*
D13*
G04 #@! TO.P,U10,2*
G04 #@! TO.N,/PS2out*
X127000000Y-46990000D03*
G04 #@! TO.P,U10,1*
G04 #@! TO.N,/PS1out*
X127000000Y-52070000D03*
G04 #@! TO.P,U10,3*
G04 #@! TO.N,/LCout*
X127000000Y-41910000D03*
G04 #@! TD*
D18*
G04 #@! TO.N,GND*
X118110000Y-71120000D03*
X114300000Y-62230000D03*
X64770000Y-54610000D03*
X64770000Y-72390000D03*
G04 #@! TO.N,+5V*
X111760000Y-48260000D03*
G04 #@! TD*
D19*
G04 #@! TO.N,/PS1-*
X96520000Y-43180000D02*
X100330000Y-46990000D01*
X60960000Y-43180000D02*
X96520000Y-43180000D01*
X58420000Y-45720000D02*
X60960000Y-43180000D01*
X54610000Y-45720000D02*
X58420000Y-45720000D01*
X54610000Y-45720000D02*
X51730000Y-45720000D01*
X51730000Y-45720000D02*
X49190000Y-48260000D01*
X40640000Y-48260000D02*
X49190000Y-48260000D01*
X49190000Y-48260000D02*
X50800000Y-49870000D01*
D20*
G04 #@! TO.N,Net-(C1-Pad2)*
X58960000Y-54610000D02*
X51140000Y-54610000D01*
X51140000Y-54610000D02*
X50800000Y-54270000D01*
D19*
G04 #@! TO.N,/PS2-*
X54610000Y-63500000D02*
X59690000Y-63500000D01*
X71120000Y-52070000D02*
X100330000Y-52070000D01*
X59690000Y-63500000D02*
X71120000Y-52070000D01*
X54610000Y-63500000D02*
X51730000Y-63500000D01*
X51730000Y-63500000D02*
X49190000Y-66040000D01*
X40640000Y-66040000D02*
X49190000Y-66040000D01*
X49190000Y-66040000D02*
X50800000Y-67650000D01*
D20*
G04 #@! TO.N,Net-(C2-Pad2)*
X58960000Y-72390000D02*
X51140000Y-72390000D01*
X51140000Y-72390000D02*
X50800000Y-72050000D01*
G04 #@! TO.N,/LCout*
X116840000Y-81280000D02*
X125730000Y-81280000D01*
X130810000Y-45720000D02*
X127000000Y-41910000D01*
X130810000Y-76200000D02*
X130810000Y-45720000D01*
X125730000Y-81280000D02*
X130810000Y-76200000D01*
X107950000Y-78740000D02*
X110490000Y-81280000D01*
X110490000Y-81280000D02*
X116840000Y-81280000D01*
X116840000Y-81280000D02*
X117350000Y-81280000D01*
X117350000Y-81280000D02*
X118110000Y-80520000D01*
G04 #@! TO.N,GND*
X118110000Y-74420000D02*
X118110000Y-71120000D01*
X114300000Y-60420000D02*
X114300000Y-62230000D01*
X62960000Y-54610000D02*
X64770000Y-54610000D01*
X62960000Y-72390000D02*
X64770000Y-72390000D01*
G04 #@! TO.N,Net-(R1-Pad1)*
X100330000Y-67310000D02*
X100330000Y-73660000D01*
G04 #@! TO.N,Net-(R1-Pad2)*
X102870000Y-64770000D02*
X105410000Y-64770000D01*
X107950000Y-67310000D02*
X107950000Y-73660000D01*
X105410000Y-64770000D02*
X107950000Y-67310000D01*
D21*
G04 #@! TO.N,+5V*
X112490000Y-47530000D02*
X114300000Y-47530000D01*
X111760000Y-48260000D02*
X112490000Y-47530000D01*
D20*
G04 #@! TO.N,Net-(R6-Pad2)*
X107950000Y-52070000D02*
X113030000Y-52070000D01*
X113030000Y-52070000D02*
X114300000Y-53340000D01*
X114300000Y-51530000D02*
X114300000Y-53340000D01*
X114300000Y-53340000D02*
X114300000Y-56420000D01*
D21*
G04 #@! TO.N,/24V+*
X80010000Y-133350000D02*
X83820000Y-129540000D01*
X48260000Y-133350000D02*
X80010000Y-133350000D01*
X38100000Y-123190000D02*
X48260000Y-133350000D01*
X38100000Y-63500000D02*
X38100000Y-123190000D01*
X40640000Y-43180000D02*
X38100000Y-45720000D01*
X38100000Y-63500000D02*
X40640000Y-60960000D01*
X38100000Y-45720000D02*
X38100000Y-63500000D01*
D20*
G04 #@! TO.N,/LCSig-*
X40640000Y-78740000D02*
X43180000Y-76200000D01*
X43180000Y-76200000D02*
X100330000Y-76200000D01*
G04 #@! TO.N,/LCSig+*
X40640000Y-83820000D02*
X45720000Y-78740000D01*
X45720000Y-78740000D02*
X100330000Y-78740000D01*
G04 #@! TO.N,/AD620Ref*
X107950000Y-54610000D02*
X107950000Y-57150000D01*
D21*
G04 #@! TO.N,-9VA*
X100330000Y-81280000D02*
X100330000Y-120650000D01*
X64770000Y-124460000D02*
X60960000Y-128270000D01*
X96520000Y-124460000D02*
X64770000Y-124460000D01*
X100330000Y-120650000D02*
X96520000Y-124460000D01*
D20*
G04 #@! TO.N,/PS1out*
X124460000Y-49530000D02*
X127000000Y-52070000D01*
X124460000Y-43180000D02*
X124460000Y-49530000D01*
X120650000Y-39370000D02*
X124460000Y-43180000D01*
X102870000Y-39370000D02*
X120650000Y-39370000D01*
X100330000Y-41910000D02*
X102870000Y-39370000D01*
X100330000Y-41910000D02*
X100330000Y-44450000D01*
G04 #@! TO.N,/PS2out*
X100330000Y-54610000D02*
X100330000Y-57150000D01*
G04 #@! TO.N,Net-(U9-Pad13)*
X107950000Y-41910000D02*
X107950000Y-44450000D01*
G04 #@! TD*
M02*
