G04 #@! TF.GenerationSoftware,KiCad,Pcbnew,(5.0.0)*
G04 #@! TF.CreationDate,2018-07-28T16:03:29+09:00*
G04 #@! TF.ProjectId,sensor-transducer,73656E736F722D7472616E7364756365,rev?*
G04 #@! TF.SameCoordinates,Original*
G04 #@! TF.FileFunction,Copper,L2,Bot,Signal*
G04 #@! TF.FilePolarity,Positive*
%FSLAX46Y46*%
G04 Gerber Fmt 4.6, Leading zero omitted, Abs format (unit mm)*
G04 Created by KiCad (PCBNEW (5.0.0)) date 07/28/18 16:03:29*
%MOMM*%
%LPD*%
G01*
G04 APERTURE LIST*
G04 #@! TA.AperFunction,ComponentPad*
%ADD10C,1.440000*%
G04 #@! TD*
G04 #@! TA.AperFunction,ComponentPad*
%ADD11C,1.524000*%
G04 #@! TD*
G04 #@! TA.AperFunction,ComponentPad*
%ADD12R,1.600000X1.600000*%
G04 #@! TD*
G04 #@! TA.AperFunction,ComponentPad*
%ADD13O,1.600000X1.600000*%
G04 #@! TD*
G04 #@! TA.AperFunction,ViaPad*
%ADD14C,0.600000*%
G04 #@! TD*
G04 #@! TA.AperFunction,Conductor*
%ADD15C,1.000000*%
G04 #@! TD*
G04 #@! TA.AperFunction,Conductor*
%ADD16C,0.250000*%
G04 #@! TD*
G04 #@! TA.AperFunction,Conductor*
%ADD17C,0.254000*%
G04 #@! TD*
G04 APERTURE END LIST*
D10*
G04 #@! TO.P,R1,1*
G04 #@! TO.N,Net-(R1-Pad1)*
X100330000Y-67310000D03*
G04 #@! TO.P,R1,2*
G04 #@! TO.N,Net-(R1-Pad2)*
X102870000Y-64770000D03*
G04 #@! TO.P,R1,3*
G04 #@! TO.N,N/C*
X105410000Y-67310000D03*
G04 #@! TD*
D11*
G04 #@! TO.P,R2,1*
G04 #@! TO.N,/PS1-*
X54610000Y-45720000D03*
G04 #@! TO.P,R2,2*
G04 #@! TO.N,GND*
X80010000Y-45720000D03*
G04 #@! TD*
G04 #@! TO.P,R3,1*
G04 #@! TO.N,/PS2-*
X54610000Y-63500000D03*
G04 #@! TO.P,R3,2*
G04 #@! TO.N,GND*
X80010000Y-63500000D03*
G04 #@! TD*
G04 #@! TO.P,U1,1*
G04 #@! TO.N,/24V+*
X40640000Y-43180000D03*
G04 #@! TO.P,U1,2*
G04 #@! TO.N,/PS1-*
X40640000Y-48260000D03*
G04 #@! TD*
G04 #@! TO.P,U2,1*
G04 #@! TO.N,/24V+*
X40640000Y-60960000D03*
G04 #@! TO.P,U2,2*
G04 #@! TO.N,/PS2-*
X40640000Y-66040000D03*
G04 #@! TD*
G04 #@! TO.P,U3,1*
G04 #@! TO.N,/LCSig-*
X40640000Y-78740000D03*
G04 #@! TO.P,U3,2*
G04 #@! TO.N,/LCSig+*
X40640000Y-83820000D03*
G04 #@! TD*
G04 #@! TO.P,U4,2*
G04 #@! TO.N,GND*
X41910000Y-97790000D03*
G04 #@! TO.P,U4,1*
G04 #@! TO.N,+12V*
X41910000Y-92710000D03*
G04 #@! TO.P,U4,3*
G04 #@! TO.N,GND*
X41910000Y-102870000D03*
G04 #@! TD*
D12*
G04 #@! TO.P,U5,1*
G04 #@! TO.N,Net-(R1-Pad1)*
X100330000Y-73660000D03*
D13*
G04 #@! TO.P,U5,5*
G04 #@! TO.N,/AD620Ref*
X107950000Y-81280000D03*
G04 #@! TO.P,U5,2*
G04 #@! TO.N,/LCSig-*
X100330000Y-76200000D03*
G04 #@! TO.P,U5,6*
G04 #@! TO.N,/LCout*
X107950000Y-78740000D03*
G04 #@! TO.P,U5,3*
G04 #@! TO.N,/LCSig+*
X100330000Y-78740000D03*
G04 #@! TO.P,U5,7*
G04 #@! TO.N,+5V*
X107950000Y-76200000D03*
G04 #@! TO.P,U5,4*
G04 #@! TO.N,-9VA*
X100330000Y-81280000D03*
G04 #@! TO.P,U5,8*
G04 #@! TO.N,Net-(R1-Pad2)*
X107950000Y-73660000D03*
G04 #@! TD*
D11*
G04 #@! TO.P,U6,1*
G04 #@! TO.N,/24V+*
X83820000Y-129540000D03*
G04 #@! TO.P,U6,2*
G04 #@! TO.N,GND*
X88900000Y-129540000D03*
G04 #@! TD*
G04 #@! TO.P,U7,1*
G04 #@! TO.N,+12V*
X69850000Y-129540000D03*
G04 #@! TO.P,U7,2*
G04 #@! TO.N,GND*
X74930000Y-129540000D03*
G04 #@! TD*
G04 #@! TO.P,U8,2*
G04 #@! TO.N,GND*
X55880000Y-128270000D03*
G04 #@! TO.P,U8,1*
G04 #@! TO.N,+5V*
X50800000Y-128270000D03*
G04 #@! TO.P,U8,3*
G04 #@! TO.N,-9VA*
X60960000Y-128270000D03*
G04 #@! TD*
D12*
G04 #@! TO.P,U9,1*
G04 #@! TO.N,/PS1out*
X100330000Y-41910000D03*
D13*
G04 #@! TO.P,U9,8*
G04 #@! TO.N,/AD620Ref*
X107950000Y-57150000D03*
G04 #@! TO.P,U9,2*
G04 #@! TO.N,/PS1out*
X100330000Y-44450000D03*
G04 #@! TO.P,U9,9*
G04 #@! TO.N,/AD620Ref*
X107950000Y-54610000D03*
G04 #@! TO.P,U9,3*
G04 #@! TO.N,/PS1-*
X100330000Y-46990000D03*
G04 #@! TO.P,U9,10*
G04 #@! TO.N,Net-(R6-Pad2)*
X107950000Y-52070000D03*
G04 #@! TO.P,U9,4*
G04 #@! TO.N,+12V*
X100330000Y-49530000D03*
G04 #@! TO.P,U9,11*
G04 #@! TO.N,GND*
X107950000Y-49530000D03*
G04 #@! TO.P,U9,5*
G04 #@! TO.N,/PS2-*
X100330000Y-52070000D03*
G04 #@! TO.P,U9,12*
G04 #@! TO.N,/floating*
X107950000Y-46990000D03*
G04 #@! TO.P,U9,6*
G04 #@! TO.N,/PS2out*
X100330000Y-54610000D03*
G04 #@! TO.P,U9,13*
G04 #@! TO.N,Net-(U9-Pad13)*
X107950000Y-44450000D03*
G04 #@! TO.P,U9,7*
G04 #@! TO.N,/PS2out*
X100330000Y-57150000D03*
G04 #@! TO.P,U9,14*
G04 #@! TO.N,Net-(U9-Pad13)*
X107950000Y-41910000D03*
G04 #@! TD*
D11*
G04 #@! TO.P,U10,2*
G04 #@! TO.N,/PS2out*
X127000000Y-46990000D03*
G04 #@! TO.P,U10,1*
G04 #@! TO.N,/PS1out*
X127000000Y-52070000D03*
G04 #@! TO.P,U10,3*
G04 #@! TO.N,/LCout*
X127000000Y-41910000D03*
G04 #@! TD*
D14*
G04 #@! TO.N,GND*
X118110000Y-71120000D03*
X114300000Y-62230000D03*
X64770000Y-54610000D03*
X64770000Y-72390000D03*
G04 #@! TO.N,+5V*
X111760000Y-48260000D03*
G04 #@! TD*
D15*
G04 #@! TO.N,+5V*
X111760000Y-77470000D02*
X111760000Y-48260000D01*
X111760000Y-121920000D02*
X111760000Y-77470000D01*
X50800000Y-128270000D02*
X53340000Y-125730000D01*
X107950000Y-125730000D02*
X53340000Y-125730000D01*
X111760000Y-121920000D02*
X107950000Y-125730000D01*
X110490000Y-76200000D02*
X111760000Y-77470000D01*
X110490000Y-76200000D02*
X107950000Y-76200000D01*
G04 #@! TO.N,+12V*
X96520000Y-53340000D02*
X100330000Y-49530000D01*
X96520000Y-85090000D02*
X96520000Y-53340000D01*
X88900000Y-92710000D02*
X96520000Y-85090000D01*
X41910000Y-92710000D02*
X88900000Y-92710000D01*
X69850000Y-129540000D02*
X67310000Y-132080000D01*
X39370000Y-95250000D02*
X41910000Y-92710000D01*
X39370000Y-121920000D02*
X39370000Y-95250000D01*
X49530000Y-132080000D02*
X39370000Y-121920000D01*
X67310000Y-132080000D02*
X49530000Y-132080000D01*
D16*
G04 #@! TO.N,/AD620Ref*
X107950000Y-81280000D02*
X106680000Y-81280000D01*
X109220000Y-58420000D02*
X107950000Y-57150000D01*
X109220000Y-68580000D02*
X109220000Y-58420000D01*
X105410000Y-72390000D02*
X109220000Y-68580000D01*
X105410000Y-80010000D02*
X105410000Y-72390000D01*
X106680000Y-81280000D02*
X105410000Y-80010000D01*
G04 #@! TO.N,/PS2out*
X100330000Y-54610000D02*
X102870000Y-52070000D01*
X118110000Y-38100000D02*
X127000000Y-46990000D01*
X105410000Y-38100000D02*
X118110000Y-38100000D01*
X102870000Y-40640000D02*
X105410000Y-38100000D01*
X102870000Y-52070000D02*
X102870000Y-40640000D01*
G04 #@! TD*
D17*
G04 #@! TO.N,GND*
G36*
X130630249Y-36141547D02*
X130301976Y-36785819D01*
X130188861Y-37500000D01*
X130301976Y-38214181D01*
X130630249Y-38858453D01*
X131141547Y-39369751D01*
X131785819Y-39698024D01*
X132500000Y-39811139D01*
X133214181Y-39698024D01*
X133858453Y-39369751D01*
X134290000Y-38938204D01*
X134290001Y-131194349D01*
X134240360Y-131105709D01*
X133694894Y-130617149D01*
X133020583Y-130331615D01*
X132290138Y-130279897D01*
X131582323Y-130467571D01*
X130973460Y-130874400D01*
X130529203Y-131456517D01*
X130297455Y-132151151D01*
X130303206Y-132883402D01*
X130545836Y-133574311D01*
X130999182Y-134149377D01*
X131216968Y-134290000D01*
X38804212Y-134290000D01*
X39262046Y-133866783D01*
X39609770Y-133222336D01*
X39730000Y-132500000D01*
X39729725Y-132464973D01*
X39598164Y-131744614D01*
X39240360Y-131105709D01*
X38694894Y-130617149D01*
X38020583Y-130331615D01*
X37290138Y-130279897D01*
X36582323Y-130467571D01*
X35973460Y-130874400D01*
X35710000Y-131219616D01*
X35710000Y-95250000D01*
X38212765Y-95250000D01*
X38235001Y-95361788D01*
X38235000Y-121808217D01*
X38212765Y-121920000D01*
X38235000Y-122031782D01*
X38300854Y-122362854D01*
X38551711Y-122738289D01*
X38646482Y-122801613D01*
X48648389Y-132803521D01*
X48711711Y-132898289D01*
X49087145Y-133149146D01*
X49530000Y-133237235D01*
X49641783Y-133215000D01*
X67198217Y-133215000D01*
X67310000Y-133237235D01*
X67421783Y-133215000D01*
X67752855Y-133149146D01*
X68128289Y-132898289D01*
X68191613Y-132803518D01*
X70058132Y-130937000D01*
X70127881Y-130937000D01*
X70641337Y-130724320D01*
X70845444Y-130520213D01*
X74129392Y-130520213D01*
X74198857Y-130762397D01*
X74722302Y-130949144D01*
X75277368Y-130921362D01*
X75661143Y-130762397D01*
X75730608Y-130520213D01*
X74930000Y-129719605D01*
X74129392Y-130520213D01*
X70845444Y-130520213D01*
X71034320Y-130331337D01*
X71247000Y-129817881D01*
X71247000Y-129332302D01*
X73520856Y-129332302D01*
X73548638Y-129887368D01*
X73707603Y-130271143D01*
X73949787Y-130340608D01*
X74750395Y-129540000D01*
X75109605Y-129540000D01*
X75910213Y-130340608D01*
X76152397Y-130271143D01*
X76339144Y-129747698D01*
X76314840Y-129262119D01*
X82423000Y-129262119D01*
X82423000Y-129817881D01*
X82635680Y-130331337D01*
X83028663Y-130724320D01*
X83542119Y-130937000D01*
X84097881Y-130937000D01*
X84611337Y-130724320D01*
X84815444Y-130520213D01*
X88099392Y-130520213D01*
X88168857Y-130762397D01*
X88692302Y-130949144D01*
X89247368Y-130921362D01*
X89631143Y-130762397D01*
X89700608Y-130520213D01*
X88900000Y-129719605D01*
X88099392Y-130520213D01*
X84815444Y-130520213D01*
X85004320Y-130331337D01*
X85217000Y-129817881D01*
X85217000Y-129332302D01*
X87490856Y-129332302D01*
X87518638Y-129887368D01*
X87677603Y-130271143D01*
X87919787Y-130340608D01*
X88720395Y-129540000D01*
X89079605Y-129540000D01*
X89880213Y-130340608D01*
X90122397Y-130271143D01*
X90309144Y-129747698D01*
X90281362Y-129192632D01*
X90122397Y-128808857D01*
X89880213Y-128739392D01*
X89079605Y-129540000D01*
X88720395Y-129540000D01*
X87919787Y-128739392D01*
X87677603Y-128808857D01*
X87490856Y-129332302D01*
X85217000Y-129332302D01*
X85217000Y-129262119D01*
X85004320Y-128748663D01*
X84815444Y-128559787D01*
X88099392Y-128559787D01*
X88900000Y-129360395D01*
X89700608Y-128559787D01*
X89631143Y-128317603D01*
X89107698Y-128130856D01*
X88552632Y-128158638D01*
X88168857Y-128317603D01*
X88099392Y-128559787D01*
X84815444Y-128559787D01*
X84611337Y-128355680D01*
X84097881Y-128143000D01*
X83542119Y-128143000D01*
X83028663Y-128355680D01*
X82635680Y-128748663D01*
X82423000Y-129262119D01*
X76314840Y-129262119D01*
X76311362Y-129192632D01*
X76152397Y-128808857D01*
X75910213Y-128739392D01*
X75109605Y-129540000D01*
X74750395Y-129540000D01*
X73949787Y-128739392D01*
X73707603Y-128808857D01*
X73520856Y-129332302D01*
X71247000Y-129332302D01*
X71247000Y-129262119D01*
X71034320Y-128748663D01*
X70845444Y-128559787D01*
X74129392Y-128559787D01*
X74930000Y-129360395D01*
X75730608Y-128559787D01*
X75661143Y-128317603D01*
X75137698Y-128130856D01*
X74582632Y-128158638D01*
X74198857Y-128317603D01*
X74129392Y-128559787D01*
X70845444Y-128559787D01*
X70641337Y-128355680D01*
X70127881Y-128143000D01*
X69572119Y-128143000D01*
X69058663Y-128355680D01*
X68665680Y-128748663D01*
X68453000Y-129262119D01*
X68453000Y-129331868D01*
X66839869Y-130945000D01*
X50000132Y-130945000D01*
X47047251Y-127992119D01*
X49403000Y-127992119D01*
X49403000Y-128547881D01*
X49615680Y-129061337D01*
X50008663Y-129454320D01*
X50522119Y-129667000D01*
X51077881Y-129667000D01*
X51591337Y-129454320D01*
X51795444Y-129250213D01*
X55079392Y-129250213D01*
X55148857Y-129492397D01*
X55672302Y-129679144D01*
X56227368Y-129651362D01*
X56611143Y-129492397D01*
X56680608Y-129250213D01*
X55880000Y-128449605D01*
X55079392Y-129250213D01*
X51795444Y-129250213D01*
X51984320Y-129061337D01*
X52197000Y-128547881D01*
X52197000Y-128478131D01*
X52612829Y-128062302D01*
X54470856Y-128062302D01*
X54498638Y-128617368D01*
X54657603Y-129001143D01*
X54899787Y-129070608D01*
X55700395Y-128270000D01*
X56059605Y-128270000D01*
X56860213Y-129070608D01*
X57102397Y-129001143D01*
X57289144Y-128477698D01*
X57264840Y-127992119D01*
X59563000Y-127992119D01*
X59563000Y-128547881D01*
X59775680Y-129061337D01*
X60168663Y-129454320D01*
X60682119Y-129667000D01*
X61237881Y-129667000D01*
X61751337Y-129454320D01*
X62144320Y-129061337D01*
X62357000Y-128547881D01*
X62357000Y-127992119D01*
X62144320Y-127478663D01*
X61751337Y-127085680D01*
X61237881Y-126873000D01*
X60682119Y-126873000D01*
X60168663Y-127085680D01*
X59775680Y-127478663D01*
X59563000Y-127992119D01*
X57264840Y-127992119D01*
X57261362Y-127922632D01*
X57102397Y-127538857D01*
X56860213Y-127469392D01*
X56059605Y-128270000D01*
X55700395Y-128270000D01*
X54899787Y-127469392D01*
X54657603Y-127538857D01*
X54470856Y-128062302D01*
X52612829Y-128062302D01*
X53810132Y-126865000D01*
X56004904Y-126865000D01*
X55532632Y-126888638D01*
X55148857Y-127047603D01*
X55079392Y-127289787D01*
X55880000Y-128090395D01*
X56680608Y-127289787D01*
X56611143Y-127047603D01*
X56099313Y-126865000D01*
X107838217Y-126865000D01*
X107950000Y-126887235D01*
X108061783Y-126865000D01*
X108392855Y-126799146D01*
X108768289Y-126548289D01*
X108831613Y-126453518D01*
X112483522Y-122801610D01*
X112578289Y-122738289D01*
X112829146Y-122362855D01*
X112895000Y-122031783D01*
X112895000Y-122031782D01*
X112917235Y-121920000D01*
X112895000Y-121808217D01*
X112895000Y-77581782D01*
X112917235Y-77469999D01*
X112895000Y-77358216D01*
X112895000Y-51792119D01*
X125603000Y-51792119D01*
X125603000Y-52347881D01*
X125815680Y-52861337D01*
X126208663Y-53254320D01*
X126722119Y-53467000D01*
X127277881Y-53467000D01*
X127791337Y-53254320D01*
X128184320Y-52861337D01*
X128397000Y-52347881D01*
X128397000Y-51792119D01*
X128184320Y-51278663D01*
X127791337Y-50885680D01*
X127277881Y-50673000D01*
X126722119Y-50673000D01*
X126208663Y-50885680D01*
X125815680Y-51278663D01*
X125603000Y-51792119D01*
X112895000Y-51792119D01*
X112895000Y-48148217D01*
X112829146Y-47817145D01*
X112578289Y-47441711D01*
X112202855Y-47190854D01*
X111760000Y-47102765D01*
X111317146Y-47190854D01*
X110941712Y-47441711D01*
X110690855Y-47817145D01*
X110625001Y-48148217D01*
X110625000Y-75069618D01*
X110601783Y-75065000D01*
X110490000Y-75042765D01*
X110378217Y-75065000D01*
X108834283Y-75065000D01*
X108632242Y-74930000D01*
X108984577Y-74694577D01*
X109301740Y-74219909D01*
X109413113Y-73660000D01*
X109301740Y-73100091D01*
X108984577Y-72625423D01*
X108509909Y-72308260D01*
X108091333Y-72225000D01*
X107808667Y-72225000D01*
X107390091Y-72308260D01*
X106915423Y-72625423D01*
X106598260Y-73100091D01*
X106486887Y-73660000D01*
X106598260Y-74219909D01*
X106915423Y-74694577D01*
X107267758Y-74930000D01*
X106915423Y-75165423D01*
X106598260Y-75640091D01*
X106486887Y-76200000D01*
X106598260Y-76759909D01*
X106915423Y-77234577D01*
X107267758Y-77470000D01*
X106915423Y-77705423D01*
X106598260Y-78180091D01*
X106486887Y-78740000D01*
X106598260Y-79299909D01*
X106915423Y-79774577D01*
X107267758Y-80010000D01*
X106915423Y-80245423D01*
X106837238Y-80362436D01*
X106170000Y-79695199D01*
X106170000Y-72704801D01*
X109704473Y-69170329D01*
X109767929Y-69127929D01*
X109810924Y-69063582D01*
X109935904Y-68876538D01*
X109977981Y-68665000D01*
X109980000Y-68654852D01*
X109980000Y-68654848D01*
X109994888Y-68580000D01*
X109980000Y-68505152D01*
X109980000Y-58494846D01*
X109994888Y-58419999D01*
X109980000Y-58345152D01*
X109980000Y-58345148D01*
X109935904Y-58123463D01*
X109767929Y-57872071D01*
X109704473Y-57829671D01*
X109348688Y-57473886D01*
X109413113Y-57150000D01*
X109301740Y-56590091D01*
X108984577Y-56115423D01*
X108632242Y-55880000D01*
X108984577Y-55644577D01*
X109301740Y-55169909D01*
X109413113Y-54610000D01*
X109301740Y-54050091D01*
X108984577Y-53575423D01*
X108632242Y-53340000D01*
X108984577Y-53104577D01*
X109301740Y-52629909D01*
X109413113Y-52070000D01*
X109301740Y-51510091D01*
X108984577Y-51035423D01*
X108600892Y-50779053D01*
X108805134Y-50682389D01*
X109181041Y-50267423D01*
X109341904Y-49879039D01*
X109219915Y-49657000D01*
X108077000Y-49657000D01*
X108077000Y-49677000D01*
X107823000Y-49677000D01*
X107823000Y-49657000D01*
X106680085Y-49657000D01*
X106558096Y-49879039D01*
X106718959Y-50267423D01*
X107094866Y-50682389D01*
X107299108Y-50779053D01*
X106915423Y-51035423D01*
X106598260Y-51510091D01*
X106486887Y-52070000D01*
X106598260Y-52629909D01*
X106915423Y-53104577D01*
X107267758Y-53340000D01*
X106915423Y-53575423D01*
X106598260Y-54050091D01*
X106486887Y-54610000D01*
X106598260Y-55169909D01*
X106915423Y-55644577D01*
X107267758Y-55880000D01*
X106915423Y-56115423D01*
X106598260Y-56590091D01*
X106486887Y-57150000D01*
X106598260Y-57709909D01*
X106915423Y-58184577D01*
X107390091Y-58501740D01*
X107808667Y-58585000D01*
X108091333Y-58585000D01*
X108273886Y-58548688D01*
X108460001Y-58734803D01*
X108460000Y-68265198D01*
X104925528Y-71799671D01*
X104862072Y-71842071D01*
X104819672Y-71905527D01*
X104819671Y-71905528D01*
X104694097Y-72093463D01*
X104635112Y-72390000D01*
X104650001Y-72464852D01*
X104650000Y-79935153D01*
X104635112Y-80010000D01*
X104650000Y-80084847D01*
X104650000Y-80084851D01*
X104694096Y-80306536D01*
X104862071Y-80557929D01*
X104925530Y-80600331D01*
X106089671Y-81764473D01*
X106132071Y-81827929D01*
X106383463Y-81995904D01*
X106605148Y-82040000D01*
X106605152Y-82040000D01*
X106679999Y-82054888D01*
X106734642Y-82044019D01*
X106915423Y-82314577D01*
X107390091Y-82631740D01*
X107808667Y-82715000D01*
X108091333Y-82715000D01*
X108509909Y-82631740D01*
X108984577Y-82314577D01*
X109301740Y-81839909D01*
X109413113Y-81280000D01*
X109301740Y-80720091D01*
X108984577Y-80245423D01*
X108632242Y-80010000D01*
X108984577Y-79774577D01*
X109301740Y-79299909D01*
X109413113Y-78740000D01*
X109301740Y-78180091D01*
X108984577Y-77705423D01*
X108632242Y-77470000D01*
X108834283Y-77335000D01*
X110019869Y-77335000D01*
X110625001Y-77940133D01*
X110625000Y-121449868D01*
X107479869Y-124595000D01*
X53451781Y-124595000D01*
X53339999Y-124572765D01*
X53228217Y-124595000D01*
X52897145Y-124660854D01*
X52521711Y-124911711D01*
X52458389Y-125006479D01*
X50591869Y-126873000D01*
X50522119Y-126873000D01*
X50008663Y-127085680D01*
X49615680Y-127478663D01*
X49403000Y-127992119D01*
X47047251Y-127992119D01*
X40505000Y-121449869D01*
X40505000Y-103850213D01*
X41109392Y-103850213D01*
X41178857Y-104092397D01*
X41702302Y-104279144D01*
X42257368Y-104251362D01*
X42641143Y-104092397D01*
X42710608Y-103850213D01*
X41910000Y-103049605D01*
X41109392Y-103850213D01*
X40505000Y-103850213D01*
X40505000Y-102745096D01*
X40528638Y-103217368D01*
X40687603Y-103601143D01*
X40929787Y-103670608D01*
X41730395Y-102870000D01*
X42089605Y-102870000D01*
X42890213Y-103670608D01*
X43132397Y-103601143D01*
X43319144Y-103077698D01*
X43291362Y-102522632D01*
X43132397Y-102138857D01*
X42890213Y-102069392D01*
X42089605Y-102870000D01*
X41730395Y-102870000D01*
X40929787Y-102069392D01*
X40687603Y-102138857D01*
X40505000Y-102650687D01*
X40505000Y-101889787D01*
X41109392Y-101889787D01*
X41910000Y-102690395D01*
X42710608Y-101889787D01*
X42641143Y-101647603D01*
X42117698Y-101460856D01*
X41562632Y-101488638D01*
X41178857Y-101647603D01*
X41109392Y-101889787D01*
X40505000Y-101889787D01*
X40505000Y-98770213D01*
X41109392Y-98770213D01*
X41178857Y-99012397D01*
X41702302Y-99199144D01*
X42257368Y-99171362D01*
X42641143Y-99012397D01*
X42710608Y-98770213D01*
X41910000Y-97969605D01*
X41109392Y-98770213D01*
X40505000Y-98770213D01*
X40505000Y-97665096D01*
X40528638Y-98137368D01*
X40687603Y-98521143D01*
X40929787Y-98590608D01*
X41730395Y-97790000D01*
X42089605Y-97790000D01*
X42890213Y-98590608D01*
X43132397Y-98521143D01*
X43319144Y-97997698D01*
X43291362Y-97442632D01*
X43132397Y-97058857D01*
X42890213Y-96989392D01*
X42089605Y-97790000D01*
X41730395Y-97790000D01*
X40929787Y-96989392D01*
X40687603Y-97058857D01*
X40505000Y-97570687D01*
X40505000Y-96809787D01*
X41109392Y-96809787D01*
X41910000Y-97610395D01*
X42710608Y-96809787D01*
X42641143Y-96567603D01*
X42117698Y-96380856D01*
X41562632Y-96408638D01*
X41178857Y-96567603D01*
X41109392Y-96809787D01*
X40505000Y-96809787D01*
X40505000Y-95720131D01*
X42118132Y-94107000D01*
X42187881Y-94107000D01*
X42701337Y-93894320D01*
X42750657Y-93845000D01*
X88788217Y-93845000D01*
X88900000Y-93867235D01*
X89011783Y-93845000D01*
X89342855Y-93779146D01*
X89718289Y-93528289D01*
X89781613Y-93433518D01*
X97243522Y-85971610D01*
X97338289Y-85908289D01*
X97589146Y-85532855D01*
X97655000Y-85201783D01*
X97655000Y-85201782D01*
X97677235Y-85090001D01*
X97655000Y-84978219D01*
X97655000Y-76200000D01*
X98866887Y-76200000D01*
X98978260Y-76759909D01*
X99295423Y-77234577D01*
X99647758Y-77470000D01*
X99295423Y-77705423D01*
X98978260Y-78180091D01*
X98866887Y-78740000D01*
X98978260Y-79299909D01*
X99295423Y-79774577D01*
X99647758Y-80010000D01*
X99295423Y-80245423D01*
X98978260Y-80720091D01*
X98866887Y-81280000D01*
X98978260Y-81839909D01*
X99295423Y-82314577D01*
X99770091Y-82631740D01*
X100188667Y-82715000D01*
X100471333Y-82715000D01*
X100889909Y-82631740D01*
X101364577Y-82314577D01*
X101681740Y-81839909D01*
X101793113Y-81280000D01*
X101681740Y-80720091D01*
X101364577Y-80245423D01*
X101012242Y-80010000D01*
X101364577Y-79774577D01*
X101681740Y-79299909D01*
X101793113Y-78740000D01*
X101681740Y-78180091D01*
X101364577Y-77705423D01*
X101012242Y-77470000D01*
X101364577Y-77234577D01*
X101681740Y-76759909D01*
X101793113Y-76200000D01*
X101681740Y-75640091D01*
X101364577Y-75165423D01*
X101243894Y-75084785D01*
X101377765Y-75058157D01*
X101587809Y-74917809D01*
X101728157Y-74707765D01*
X101777440Y-74460000D01*
X101777440Y-72860000D01*
X101728157Y-72612235D01*
X101587809Y-72402191D01*
X101377765Y-72261843D01*
X101130000Y-72212560D01*
X99530000Y-72212560D01*
X99282235Y-72261843D01*
X99072191Y-72402191D01*
X98931843Y-72612235D01*
X98882560Y-72860000D01*
X98882560Y-74460000D01*
X98931843Y-74707765D01*
X99072191Y-74917809D01*
X99282235Y-75058157D01*
X99416106Y-75084785D01*
X99295423Y-75165423D01*
X98978260Y-75640091D01*
X98866887Y-76200000D01*
X97655000Y-76200000D01*
X97655000Y-67040474D01*
X98975000Y-67040474D01*
X98975000Y-67579526D01*
X99181286Y-68077546D01*
X99562454Y-68458714D01*
X100060474Y-68665000D01*
X100599526Y-68665000D01*
X101097546Y-68458714D01*
X101478714Y-68077546D01*
X101685000Y-67579526D01*
X101685000Y-67040474D01*
X104055000Y-67040474D01*
X104055000Y-67579526D01*
X104261286Y-68077546D01*
X104642454Y-68458714D01*
X105140474Y-68665000D01*
X105679526Y-68665000D01*
X106177546Y-68458714D01*
X106558714Y-68077546D01*
X106765000Y-67579526D01*
X106765000Y-67040474D01*
X106558714Y-66542454D01*
X106177546Y-66161286D01*
X105679526Y-65955000D01*
X105140474Y-65955000D01*
X104642454Y-66161286D01*
X104261286Y-66542454D01*
X104055000Y-67040474D01*
X101685000Y-67040474D01*
X101478714Y-66542454D01*
X101097546Y-66161286D01*
X100599526Y-65955000D01*
X100060474Y-65955000D01*
X99562454Y-66161286D01*
X99181286Y-66542454D01*
X98975000Y-67040474D01*
X97655000Y-67040474D01*
X97655000Y-64500474D01*
X101515000Y-64500474D01*
X101515000Y-65039526D01*
X101721286Y-65537546D01*
X102102454Y-65918714D01*
X102600474Y-66125000D01*
X103139526Y-66125000D01*
X103637546Y-65918714D01*
X104018714Y-65537546D01*
X104225000Y-65039526D01*
X104225000Y-64500474D01*
X104018714Y-64002454D01*
X103637546Y-63621286D01*
X103139526Y-63415000D01*
X102600474Y-63415000D01*
X102102454Y-63621286D01*
X101721286Y-64002454D01*
X101515000Y-64500474D01*
X97655000Y-64500474D01*
X97655000Y-53810131D01*
X98954529Y-52510603D01*
X98978260Y-52629909D01*
X99295423Y-53104577D01*
X99647758Y-53340000D01*
X99295423Y-53575423D01*
X98978260Y-54050091D01*
X98866887Y-54610000D01*
X98978260Y-55169909D01*
X99295423Y-55644577D01*
X99647758Y-55880000D01*
X99295423Y-56115423D01*
X98978260Y-56590091D01*
X98866887Y-57150000D01*
X98978260Y-57709909D01*
X99295423Y-58184577D01*
X99770091Y-58501740D01*
X100188667Y-58585000D01*
X100471333Y-58585000D01*
X100889909Y-58501740D01*
X101364577Y-58184577D01*
X101681740Y-57709909D01*
X101793113Y-57150000D01*
X101681740Y-56590091D01*
X101364577Y-56115423D01*
X101012242Y-55880000D01*
X101364577Y-55644577D01*
X101681740Y-55169909D01*
X101793113Y-54610000D01*
X101728688Y-54286114D01*
X103354476Y-52660327D01*
X103417929Y-52617929D01*
X103460327Y-52554476D01*
X103460329Y-52554474D01*
X103585903Y-52366538D01*
X103585904Y-52366537D01*
X103630000Y-52144852D01*
X103630000Y-52144848D01*
X103644888Y-52070001D01*
X103630000Y-51995154D01*
X103630000Y-41910000D01*
X106486887Y-41910000D01*
X106598260Y-42469909D01*
X106915423Y-42944577D01*
X107267758Y-43180000D01*
X106915423Y-43415423D01*
X106598260Y-43890091D01*
X106486887Y-44450000D01*
X106598260Y-45009909D01*
X106915423Y-45484577D01*
X107267758Y-45720000D01*
X106915423Y-45955423D01*
X106598260Y-46430091D01*
X106486887Y-46990000D01*
X106598260Y-47549909D01*
X106915423Y-48024577D01*
X107299108Y-48280947D01*
X107094866Y-48377611D01*
X106718959Y-48792577D01*
X106558096Y-49180961D01*
X106680085Y-49403000D01*
X107823000Y-49403000D01*
X107823000Y-49383000D01*
X108077000Y-49383000D01*
X108077000Y-49403000D01*
X109219915Y-49403000D01*
X109341904Y-49180961D01*
X109181041Y-48792577D01*
X108805134Y-48377611D01*
X108600892Y-48280947D01*
X108984577Y-48024577D01*
X109301740Y-47549909D01*
X109413113Y-46990000D01*
X109301740Y-46430091D01*
X108984577Y-45955423D01*
X108632242Y-45720000D01*
X108984577Y-45484577D01*
X109301740Y-45009909D01*
X109413113Y-44450000D01*
X109301740Y-43890091D01*
X108984577Y-43415423D01*
X108632242Y-43180000D01*
X108984577Y-42944577D01*
X109301740Y-42469909D01*
X109413113Y-41910000D01*
X109301740Y-41350091D01*
X108984577Y-40875423D01*
X108509909Y-40558260D01*
X108091333Y-40475000D01*
X107808667Y-40475000D01*
X107390091Y-40558260D01*
X106915423Y-40875423D01*
X106598260Y-41350091D01*
X106486887Y-41910000D01*
X103630000Y-41910000D01*
X103630000Y-40954801D01*
X105724803Y-38860000D01*
X117795199Y-38860000D01*
X125615980Y-46680782D01*
X125603000Y-46712119D01*
X125603000Y-47267881D01*
X125815680Y-47781337D01*
X126208663Y-48174320D01*
X126722119Y-48387000D01*
X127277881Y-48387000D01*
X127791337Y-48174320D01*
X128184320Y-47781337D01*
X128397000Y-47267881D01*
X128397000Y-46712119D01*
X128184320Y-46198663D01*
X127791337Y-45805680D01*
X127277881Y-45593000D01*
X126722119Y-45593000D01*
X126690782Y-45605980D01*
X122716921Y-41632119D01*
X125603000Y-41632119D01*
X125603000Y-42187881D01*
X125815680Y-42701337D01*
X126208663Y-43094320D01*
X126722119Y-43307000D01*
X127277881Y-43307000D01*
X127791337Y-43094320D01*
X128184320Y-42701337D01*
X128397000Y-42187881D01*
X128397000Y-41632119D01*
X128184320Y-41118663D01*
X127791337Y-40725680D01*
X127277881Y-40513000D01*
X126722119Y-40513000D01*
X126208663Y-40725680D01*
X125815680Y-41118663D01*
X125603000Y-41632119D01*
X122716921Y-41632119D01*
X118700331Y-37615530D01*
X118657929Y-37552071D01*
X118406537Y-37384096D01*
X118184852Y-37340000D01*
X118184847Y-37340000D01*
X118110000Y-37325112D01*
X118035153Y-37340000D01*
X105484846Y-37340000D01*
X105409999Y-37325112D01*
X105335152Y-37340000D01*
X105335148Y-37340000D01*
X105113463Y-37384096D01*
X105113461Y-37384097D01*
X105113462Y-37384097D01*
X104925526Y-37509671D01*
X104925524Y-37509673D01*
X104862071Y-37552071D01*
X104819673Y-37615524D01*
X102385528Y-40049671D01*
X102322072Y-40092071D01*
X102279672Y-40155527D01*
X102279671Y-40155528D01*
X102154097Y-40343463D01*
X102095112Y-40640000D01*
X102110001Y-40714852D01*
X102110000Y-51755197D01*
X101792595Y-52072602D01*
X101793113Y-52070000D01*
X101681740Y-51510091D01*
X101364577Y-51035423D01*
X101012242Y-50800000D01*
X101364577Y-50564577D01*
X101681740Y-50089909D01*
X101793113Y-49530000D01*
X101681740Y-48970091D01*
X101364577Y-48495423D01*
X101012242Y-48260000D01*
X101364577Y-48024577D01*
X101681740Y-47549909D01*
X101793113Y-46990000D01*
X101681740Y-46430091D01*
X101364577Y-45955423D01*
X101012242Y-45720000D01*
X101364577Y-45484577D01*
X101681740Y-45009909D01*
X101793113Y-44450000D01*
X101681740Y-43890091D01*
X101364577Y-43415423D01*
X101243894Y-43334785D01*
X101377765Y-43308157D01*
X101587809Y-43167809D01*
X101728157Y-42957765D01*
X101777440Y-42710000D01*
X101777440Y-41110000D01*
X101728157Y-40862235D01*
X101587809Y-40652191D01*
X101377765Y-40511843D01*
X101130000Y-40462560D01*
X99530000Y-40462560D01*
X99282235Y-40511843D01*
X99072191Y-40652191D01*
X98931843Y-40862235D01*
X98882560Y-41110000D01*
X98882560Y-42710000D01*
X98931843Y-42957765D01*
X99072191Y-43167809D01*
X99282235Y-43308157D01*
X99416106Y-43334785D01*
X99295423Y-43415423D01*
X98978260Y-43890091D01*
X98866887Y-44450000D01*
X98978260Y-45009909D01*
X99295423Y-45484577D01*
X99647758Y-45720000D01*
X99295423Y-45955423D01*
X98978260Y-46430091D01*
X98866887Y-46990000D01*
X98978260Y-47549909D01*
X99295423Y-48024577D01*
X99647758Y-48260000D01*
X99295423Y-48495423D01*
X98978260Y-48970091D01*
X98902151Y-49352717D01*
X95796480Y-52458389D01*
X95701712Y-52521711D01*
X95525184Y-52785904D01*
X95450854Y-52897146D01*
X95362765Y-53340000D01*
X95385001Y-53451788D01*
X95385000Y-84619868D01*
X88429869Y-91575000D01*
X42750657Y-91575000D01*
X42701337Y-91525680D01*
X42187881Y-91313000D01*
X41632119Y-91313000D01*
X41118663Y-91525680D01*
X40725680Y-91918663D01*
X40513000Y-92432119D01*
X40513000Y-92501868D01*
X38646480Y-94368389D01*
X38551712Y-94431711D01*
X38366085Y-94709522D01*
X38300854Y-94807146D01*
X38212765Y-95250000D01*
X35710000Y-95250000D01*
X35710000Y-83542119D01*
X39243000Y-83542119D01*
X39243000Y-84097881D01*
X39455680Y-84611337D01*
X39848663Y-85004320D01*
X40362119Y-85217000D01*
X40917881Y-85217000D01*
X41431337Y-85004320D01*
X41824320Y-84611337D01*
X42037000Y-84097881D01*
X42037000Y-83542119D01*
X41824320Y-83028663D01*
X41431337Y-82635680D01*
X40917881Y-82423000D01*
X40362119Y-82423000D01*
X39848663Y-82635680D01*
X39455680Y-83028663D01*
X39243000Y-83542119D01*
X35710000Y-83542119D01*
X35710000Y-78462119D01*
X39243000Y-78462119D01*
X39243000Y-79017881D01*
X39455680Y-79531337D01*
X39848663Y-79924320D01*
X40362119Y-80137000D01*
X40917881Y-80137000D01*
X41431337Y-79924320D01*
X41824320Y-79531337D01*
X42037000Y-79017881D01*
X42037000Y-78462119D01*
X41824320Y-77948663D01*
X41431337Y-77555680D01*
X40917881Y-77343000D01*
X40362119Y-77343000D01*
X39848663Y-77555680D01*
X39455680Y-77948663D01*
X39243000Y-78462119D01*
X35710000Y-78462119D01*
X35710000Y-65762119D01*
X39243000Y-65762119D01*
X39243000Y-66317881D01*
X39455680Y-66831337D01*
X39848663Y-67224320D01*
X40362119Y-67437000D01*
X40917881Y-67437000D01*
X41431337Y-67224320D01*
X41824320Y-66831337D01*
X42037000Y-66317881D01*
X42037000Y-65762119D01*
X41824320Y-65248663D01*
X41431337Y-64855680D01*
X40917881Y-64643000D01*
X40362119Y-64643000D01*
X39848663Y-64855680D01*
X39455680Y-65248663D01*
X39243000Y-65762119D01*
X35710000Y-65762119D01*
X35710000Y-63222119D01*
X53213000Y-63222119D01*
X53213000Y-63777881D01*
X53425680Y-64291337D01*
X53818663Y-64684320D01*
X54332119Y-64897000D01*
X54887881Y-64897000D01*
X55401337Y-64684320D01*
X55605444Y-64480213D01*
X79209392Y-64480213D01*
X79278857Y-64722397D01*
X79802302Y-64909144D01*
X80357368Y-64881362D01*
X80741143Y-64722397D01*
X80810608Y-64480213D01*
X80010000Y-63679605D01*
X79209392Y-64480213D01*
X55605444Y-64480213D01*
X55794320Y-64291337D01*
X56007000Y-63777881D01*
X56007000Y-63292302D01*
X78600856Y-63292302D01*
X78628638Y-63847368D01*
X78787603Y-64231143D01*
X79029787Y-64300608D01*
X79830395Y-63500000D01*
X80189605Y-63500000D01*
X80990213Y-64300608D01*
X81232397Y-64231143D01*
X81419144Y-63707698D01*
X81391362Y-63152632D01*
X81232397Y-62768857D01*
X80990213Y-62699392D01*
X80189605Y-63500000D01*
X79830395Y-63500000D01*
X79029787Y-62699392D01*
X78787603Y-62768857D01*
X78600856Y-63292302D01*
X56007000Y-63292302D01*
X56007000Y-63222119D01*
X55794320Y-62708663D01*
X55605444Y-62519787D01*
X79209392Y-62519787D01*
X80010000Y-63320395D01*
X80810608Y-62519787D01*
X80741143Y-62277603D01*
X80217698Y-62090856D01*
X79662632Y-62118638D01*
X79278857Y-62277603D01*
X79209392Y-62519787D01*
X55605444Y-62519787D01*
X55401337Y-62315680D01*
X54887881Y-62103000D01*
X54332119Y-62103000D01*
X53818663Y-62315680D01*
X53425680Y-62708663D01*
X53213000Y-63222119D01*
X35710000Y-63222119D01*
X35710000Y-60682119D01*
X39243000Y-60682119D01*
X39243000Y-61237881D01*
X39455680Y-61751337D01*
X39848663Y-62144320D01*
X40362119Y-62357000D01*
X40917881Y-62357000D01*
X41431337Y-62144320D01*
X41824320Y-61751337D01*
X42037000Y-61237881D01*
X42037000Y-60682119D01*
X41824320Y-60168663D01*
X41431337Y-59775680D01*
X40917881Y-59563000D01*
X40362119Y-59563000D01*
X39848663Y-59775680D01*
X39455680Y-60168663D01*
X39243000Y-60682119D01*
X35710000Y-60682119D01*
X35710000Y-47982119D01*
X39243000Y-47982119D01*
X39243000Y-48537881D01*
X39455680Y-49051337D01*
X39848663Y-49444320D01*
X40362119Y-49657000D01*
X40917881Y-49657000D01*
X41431337Y-49444320D01*
X41824320Y-49051337D01*
X42037000Y-48537881D01*
X42037000Y-47982119D01*
X41824320Y-47468663D01*
X41431337Y-47075680D01*
X40917881Y-46863000D01*
X40362119Y-46863000D01*
X39848663Y-47075680D01*
X39455680Y-47468663D01*
X39243000Y-47982119D01*
X35710000Y-47982119D01*
X35710000Y-45442119D01*
X53213000Y-45442119D01*
X53213000Y-45997881D01*
X53425680Y-46511337D01*
X53818663Y-46904320D01*
X54332119Y-47117000D01*
X54887881Y-47117000D01*
X55401337Y-46904320D01*
X55605444Y-46700213D01*
X79209392Y-46700213D01*
X79278857Y-46942397D01*
X79802302Y-47129144D01*
X80357368Y-47101362D01*
X80741143Y-46942397D01*
X80810608Y-46700213D01*
X80010000Y-45899605D01*
X79209392Y-46700213D01*
X55605444Y-46700213D01*
X55794320Y-46511337D01*
X56007000Y-45997881D01*
X56007000Y-45512302D01*
X78600856Y-45512302D01*
X78628638Y-46067368D01*
X78787603Y-46451143D01*
X79029787Y-46520608D01*
X79830395Y-45720000D01*
X80189605Y-45720000D01*
X80990213Y-46520608D01*
X81232397Y-46451143D01*
X81419144Y-45927698D01*
X81391362Y-45372632D01*
X81232397Y-44988857D01*
X80990213Y-44919392D01*
X80189605Y-45720000D01*
X79830395Y-45720000D01*
X79029787Y-44919392D01*
X78787603Y-44988857D01*
X78600856Y-45512302D01*
X56007000Y-45512302D01*
X56007000Y-45442119D01*
X55794320Y-44928663D01*
X55605444Y-44739787D01*
X79209392Y-44739787D01*
X80010000Y-45540395D01*
X80810608Y-44739787D01*
X80741143Y-44497603D01*
X80217698Y-44310856D01*
X79662632Y-44338638D01*
X79278857Y-44497603D01*
X79209392Y-44739787D01*
X55605444Y-44739787D01*
X55401337Y-44535680D01*
X54887881Y-44323000D01*
X54332119Y-44323000D01*
X53818663Y-44535680D01*
X53425680Y-44928663D01*
X53213000Y-45442119D01*
X35710000Y-45442119D01*
X35710000Y-42902119D01*
X39243000Y-42902119D01*
X39243000Y-43457881D01*
X39455680Y-43971337D01*
X39848663Y-44364320D01*
X40362119Y-44577000D01*
X40917881Y-44577000D01*
X41431337Y-44364320D01*
X41824320Y-43971337D01*
X42037000Y-43457881D01*
X42037000Y-42902119D01*
X41824320Y-42388663D01*
X41431337Y-41995680D01*
X40917881Y-41783000D01*
X40362119Y-41783000D01*
X39848663Y-41995680D01*
X39455680Y-42388663D01*
X39243000Y-42902119D01*
X35710000Y-42902119D01*
X35710000Y-38782552D01*
X35999182Y-39149377D01*
X36614360Y-39546593D01*
X37325036Y-39723126D01*
X38054578Y-39659940D01*
X38724321Y-39363850D01*
X39262046Y-38866783D01*
X39609770Y-38222336D01*
X39730000Y-37500000D01*
X39729725Y-37464973D01*
X39598164Y-36744614D01*
X39240360Y-36105709D01*
X38798560Y-35710000D01*
X131061796Y-35710000D01*
X130630249Y-36141547D01*
X130630249Y-36141547D01*
G37*
X130630249Y-36141547D02*
X130301976Y-36785819D01*
X130188861Y-37500000D01*
X130301976Y-38214181D01*
X130630249Y-38858453D01*
X131141547Y-39369751D01*
X131785819Y-39698024D01*
X132500000Y-39811139D01*
X133214181Y-39698024D01*
X133858453Y-39369751D01*
X134290000Y-38938204D01*
X134290001Y-131194349D01*
X134240360Y-131105709D01*
X133694894Y-130617149D01*
X133020583Y-130331615D01*
X132290138Y-130279897D01*
X131582323Y-130467571D01*
X130973460Y-130874400D01*
X130529203Y-131456517D01*
X130297455Y-132151151D01*
X130303206Y-132883402D01*
X130545836Y-133574311D01*
X130999182Y-134149377D01*
X131216968Y-134290000D01*
X38804212Y-134290000D01*
X39262046Y-133866783D01*
X39609770Y-133222336D01*
X39730000Y-132500000D01*
X39729725Y-132464973D01*
X39598164Y-131744614D01*
X39240360Y-131105709D01*
X38694894Y-130617149D01*
X38020583Y-130331615D01*
X37290138Y-130279897D01*
X36582323Y-130467571D01*
X35973460Y-130874400D01*
X35710000Y-131219616D01*
X35710000Y-95250000D01*
X38212765Y-95250000D01*
X38235001Y-95361788D01*
X38235000Y-121808217D01*
X38212765Y-121920000D01*
X38235000Y-122031782D01*
X38300854Y-122362854D01*
X38551711Y-122738289D01*
X38646482Y-122801613D01*
X48648389Y-132803521D01*
X48711711Y-132898289D01*
X49087145Y-133149146D01*
X49530000Y-133237235D01*
X49641783Y-133215000D01*
X67198217Y-133215000D01*
X67310000Y-133237235D01*
X67421783Y-133215000D01*
X67752855Y-133149146D01*
X68128289Y-132898289D01*
X68191613Y-132803518D01*
X70058132Y-130937000D01*
X70127881Y-130937000D01*
X70641337Y-130724320D01*
X70845444Y-130520213D01*
X74129392Y-130520213D01*
X74198857Y-130762397D01*
X74722302Y-130949144D01*
X75277368Y-130921362D01*
X75661143Y-130762397D01*
X75730608Y-130520213D01*
X74930000Y-129719605D01*
X74129392Y-130520213D01*
X70845444Y-130520213D01*
X71034320Y-130331337D01*
X71247000Y-129817881D01*
X71247000Y-129332302D01*
X73520856Y-129332302D01*
X73548638Y-129887368D01*
X73707603Y-130271143D01*
X73949787Y-130340608D01*
X74750395Y-129540000D01*
X75109605Y-129540000D01*
X75910213Y-130340608D01*
X76152397Y-130271143D01*
X76339144Y-129747698D01*
X76314840Y-129262119D01*
X82423000Y-129262119D01*
X82423000Y-129817881D01*
X82635680Y-130331337D01*
X83028663Y-130724320D01*
X83542119Y-130937000D01*
X84097881Y-130937000D01*
X84611337Y-130724320D01*
X84815444Y-130520213D01*
X88099392Y-130520213D01*
X88168857Y-130762397D01*
X88692302Y-130949144D01*
X89247368Y-130921362D01*
X89631143Y-130762397D01*
X89700608Y-130520213D01*
X88900000Y-129719605D01*
X88099392Y-130520213D01*
X84815444Y-130520213D01*
X85004320Y-130331337D01*
X85217000Y-129817881D01*
X85217000Y-129332302D01*
X87490856Y-129332302D01*
X87518638Y-129887368D01*
X87677603Y-130271143D01*
X87919787Y-130340608D01*
X88720395Y-129540000D01*
X89079605Y-129540000D01*
X89880213Y-130340608D01*
X90122397Y-130271143D01*
X90309144Y-129747698D01*
X90281362Y-129192632D01*
X90122397Y-128808857D01*
X89880213Y-128739392D01*
X89079605Y-129540000D01*
X88720395Y-129540000D01*
X87919787Y-128739392D01*
X87677603Y-128808857D01*
X87490856Y-129332302D01*
X85217000Y-129332302D01*
X85217000Y-129262119D01*
X85004320Y-128748663D01*
X84815444Y-128559787D01*
X88099392Y-128559787D01*
X88900000Y-129360395D01*
X89700608Y-128559787D01*
X89631143Y-128317603D01*
X89107698Y-128130856D01*
X88552632Y-128158638D01*
X88168857Y-128317603D01*
X88099392Y-128559787D01*
X84815444Y-128559787D01*
X84611337Y-128355680D01*
X84097881Y-128143000D01*
X83542119Y-128143000D01*
X83028663Y-128355680D01*
X82635680Y-128748663D01*
X82423000Y-129262119D01*
X76314840Y-129262119D01*
X76311362Y-129192632D01*
X76152397Y-128808857D01*
X75910213Y-128739392D01*
X75109605Y-129540000D01*
X74750395Y-129540000D01*
X73949787Y-128739392D01*
X73707603Y-128808857D01*
X73520856Y-129332302D01*
X71247000Y-129332302D01*
X71247000Y-129262119D01*
X71034320Y-128748663D01*
X70845444Y-128559787D01*
X74129392Y-128559787D01*
X74930000Y-129360395D01*
X75730608Y-128559787D01*
X75661143Y-128317603D01*
X75137698Y-128130856D01*
X74582632Y-128158638D01*
X74198857Y-128317603D01*
X74129392Y-128559787D01*
X70845444Y-128559787D01*
X70641337Y-128355680D01*
X70127881Y-128143000D01*
X69572119Y-128143000D01*
X69058663Y-128355680D01*
X68665680Y-128748663D01*
X68453000Y-129262119D01*
X68453000Y-129331868D01*
X66839869Y-130945000D01*
X50000132Y-130945000D01*
X47047251Y-127992119D01*
X49403000Y-127992119D01*
X49403000Y-128547881D01*
X49615680Y-129061337D01*
X50008663Y-129454320D01*
X50522119Y-129667000D01*
X51077881Y-129667000D01*
X51591337Y-129454320D01*
X51795444Y-129250213D01*
X55079392Y-129250213D01*
X55148857Y-129492397D01*
X55672302Y-129679144D01*
X56227368Y-129651362D01*
X56611143Y-129492397D01*
X56680608Y-129250213D01*
X55880000Y-128449605D01*
X55079392Y-129250213D01*
X51795444Y-129250213D01*
X51984320Y-129061337D01*
X52197000Y-128547881D01*
X52197000Y-128478131D01*
X52612829Y-128062302D01*
X54470856Y-128062302D01*
X54498638Y-128617368D01*
X54657603Y-129001143D01*
X54899787Y-129070608D01*
X55700395Y-128270000D01*
X56059605Y-128270000D01*
X56860213Y-129070608D01*
X57102397Y-129001143D01*
X57289144Y-128477698D01*
X57264840Y-127992119D01*
X59563000Y-127992119D01*
X59563000Y-128547881D01*
X59775680Y-129061337D01*
X60168663Y-129454320D01*
X60682119Y-129667000D01*
X61237881Y-129667000D01*
X61751337Y-129454320D01*
X62144320Y-129061337D01*
X62357000Y-128547881D01*
X62357000Y-127992119D01*
X62144320Y-127478663D01*
X61751337Y-127085680D01*
X61237881Y-126873000D01*
X60682119Y-126873000D01*
X60168663Y-127085680D01*
X59775680Y-127478663D01*
X59563000Y-127992119D01*
X57264840Y-127992119D01*
X57261362Y-127922632D01*
X57102397Y-127538857D01*
X56860213Y-127469392D01*
X56059605Y-128270000D01*
X55700395Y-128270000D01*
X54899787Y-127469392D01*
X54657603Y-127538857D01*
X54470856Y-128062302D01*
X52612829Y-128062302D01*
X53810132Y-126865000D01*
X56004904Y-126865000D01*
X55532632Y-126888638D01*
X55148857Y-127047603D01*
X55079392Y-127289787D01*
X55880000Y-128090395D01*
X56680608Y-127289787D01*
X56611143Y-127047603D01*
X56099313Y-126865000D01*
X107838217Y-126865000D01*
X107950000Y-126887235D01*
X108061783Y-126865000D01*
X108392855Y-126799146D01*
X108768289Y-126548289D01*
X108831613Y-126453518D01*
X112483522Y-122801610D01*
X112578289Y-122738289D01*
X112829146Y-122362855D01*
X112895000Y-122031783D01*
X112895000Y-122031782D01*
X112917235Y-121920000D01*
X112895000Y-121808217D01*
X112895000Y-77581782D01*
X112917235Y-77469999D01*
X112895000Y-77358216D01*
X112895000Y-51792119D01*
X125603000Y-51792119D01*
X125603000Y-52347881D01*
X125815680Y-52861337D01*
X126208663Y-53254320D01*
X126722119Y-53467000D01*
X127277881Y-53467000D01*
X127791337Y-53254320D01*
X128184320Y-52861337D01*
X128397000Y-52347881D01*
X128397000Y-51792119D01*
X128184320Y-51278663D01*
X127791337Y-50885680D01*
X127277881Y-50673000D01*
X126722119Y-50673000D01*
X126208663Y-50885680D01*
X125815680Y-51278663D01*
X125603000Y-51792119D01*
X112895000Y-51792119D01*
X112895000Y-48148217D01*
X112829146Y-47817145D01*
X112578289Y-47441711D01*
X112202855Y-47190854D01*
X111760000Y-47102765D01*
X111317146Y-47190854D01*
X110941712Y-47441711D01*
X110690855Y-47817145D01*
X110625001Y-48148217D01*
X110625000Y-75069618D01*
X110601783Y-75065000D01*
X110490000Y-75042765D01*
X110378217Y-75065000D01*
X108834283Y-75065000D01*
X108632242Y-74930000D01*
X108984577Y-74694577D01*
X109301740Y-74219909D01*
X109413113Y-73660000D01*
X109301740Y-73100091D01*
X108984577Y-72625423D01*
X108509909Y-72308260D01*
X108091333Y-72225000D01*
X107808667Y-72225000D01*
X107390091Y-72308260D01*
X106915423Y-72625423D01*
X106598260Y-73100091D01*
X106486887Y-73660000D01*
X106598260Y-74219909D01*
X106915423Y-74694577D01*
X107267758Y-74930000D01*
X106915423Y-75165423D01*
X106598260Y-75640091D01*
X106486887Y-76200000D01*
X106598260Y-76759909D01*
X106915423Y-77234577D01*
X107267758Y-77470000D01*
X106915423Y-77705423D01*
X106598260Y-78180091D01*
X106486887Y-78740000D01*
X106598260Y-79299909D01*
X106915423Y-79774577D01*
X107267758Y-80010000D01*
X106915423Y-80245423D01*
X106837238Y-80362436D01*
X106170000Y-79695199D01*
X106170000Y-72704801D01*
X109704473Y-69170329D01*
X109767929Y-69127929D01*
X109810924Y-69063582D01*
X109935904Y-68876538D01*
X109977981Y-68665000D01*
X109980000Y-68654852D01*
X109980000Y-68654848D01*
X109994888Y-68580000D01*
X109980000Y-68505152D01*
X109980000Y-58494846D01*
X109994888Y-58419999D01*
X109980000Y-58345152D01*
X109980000Y-58345148D01*
X109935904Y-58123463D01*
X109767929Y-57872071D01*
X109704473Y-57829671D01*
X109348688Y-57473886D01*
X109413113Y-57150000D01*
X109301740Y-56590091D01*
X108984577Y-56115423D01*
X108632242Y-55880000D01*
X108984577Y-55644577D01*
X109301740Y-55169909D01*
X109413113Y-54610000D01*
X109301740Y-54050091D01*
X108984577Y-53575423D01*
X108632242Y-53340000D01*
X108984577Y-53104577D01*
X109301740Y-52629909D01*
X109413113Y-52070000D01*
X109301740Y-51510091D01*
X108984577Y-51035423D01*
X108600892Y-50779053D01*
X108805134Y-50682389D01*
X109181041Y-50267423D01*
X109341904Y-49879039D01*
X109219915Y-49657000D01*
X108077000Y-49657000D01*
X108077000Y-49677000D01*
X107823000Y-49677000D01*
X107823000Y-49657000D01*
X106680085Y-49657000D01*
X106558096Y-49879039D01*
X106718959Y-50267423D01*
X107094866Y-50682389D01*
X107299108Y-50779053D01*
X106915423Y-51035423D01*
X106598260Y-51510091D01*
X106486887Y-52070000D01*
X106598260Y-52629909D01*
X106915423Y-53104577D01*
X107267758Y-53340000D01*
X106915423Y-53575423D01*
X106598260Y-54050091D01*
X106486887Y-54610000D01*
X106598260Y-55169909D01*
X106915423Y-55644577D01*
X107267758Y-55880000D01*
X106915423Y-56115423D01*
X106598260Y-56590091D01*
X106486887Y-57150000D01*
X106598260Y-57709909D01*
X106915423Y-58184577D01*
X107390091Y-58501740D01*
X107808667Y-58585000D01*
X108091333Y-58585000D01*
X108273886Y-58548688D01*
X108460001Y-58734803D01*
X108460000Y-68265198D01*
X104925528Y-71799671D01*
X104862072Y-71842071D01*
X104819672Y-71905527D01*
X104819671Y-71905528D01*
X104694097Y-72093463D01*
X104635112Y-72390000D01*
X104650001Y-72464852D01*
X104650000Y-79935153D01*
X104635112Y-80010000D01*
X104650000Y-80084847D01*
X104650000Y-80084851D01*
X104694096Y-80306536D01*
X104862071Y-80557929D01*
X104925530Y-80600331D01*
X106089671Y-81764473D01*
X106132071Y-81827929D01*
X106383463Y-81995904D01*
X106605148Y-82040000D01*
X106605152Y-82040000D01*
X106679999Y-82054888D01*
X106734642Y-82044019D01*
X106915423Y-82314577D01*
X107390091Y-82631740D01*
X107808667Y-82715000D01*
X108091333Y-82715000D01*
X108509909Y-82631740D01*
X108984577Y-82314577D01*
X109301740Y-81839909D01*
X109413113Y-81280000D01*
X109301740Y-80720091D01*
X108984577Y-80245423D01*
X108632242Y-80010000D01*
X108984577Y-79774577D01*
X109301740Y-79299909D01*
X109413113Y-78740000D01*
X109301740Y-78180091D01*
X108984577Y-77705423D01*
X108632242Y-77470000D01*
X108834283Y-77335000D01*
X110019869Y-77335000D01*
X110625001Y-77940133D01*
X110625000Y-121449868D01*
X107479869Y-124595000D01*
X53451781Y-124595000D01*
X53339999Y-124572765D01*
X53228217Y-124595000D01*
X52897145Y-124660854D01*
X52521711Y-124911711D01*
X52458389Y-125006479D01*
X50591869Y-126873000D01*
X50522119Y-126873000D01*
X50008663Y-127085680D01*
X49615680Y-127478663D01*
X49403000Y-127992119D01*
X47047251Y-127992119D01*
X40505000Y-121449869D01*
X40505000Y-103850213D01*
X41109392Y-103850213D01*
X41178857Y-104092397D01*
X41702302Y-104279144D01*
X42257368Y-104251362D01*
X42641143Y-104092397D01*
X42710608Y-103850213D01*
X41910000Y-103049605D01*
X41109392Y-103850213D01*
X40505000Y-103850213D01*
X40505000Y-102745096D01*
X40528638Y-103217368D01*
X40687603Y-103601143D01*
X40929787Y-103670608D01*
X41730395Y-102870000D01*
X42089605Y-102870000D01*
X42890213Y-103670608D01*
X43132397Y-103601143D01*
X43319144Y-103077698D01*
X43291362Y-102522632D01*
X43132397Y-102138857D01*
X42890213Y-102069392D01*
X42089605Y-102870000D01*
X41730395Y-102870000D01*
X40929787Y-102069392D01*
X40687603Y-102138857D01*
X40505000Y-102650687D01*
X40505000Y-101889787D01*
X41109392Y-101889787D01*
X41910000Y-102690395D01*
X42710608Y-101889787D01*
X42641143Y-101647603D01*
X42117698Y-101460856D01*
X41562632Y-101488638D01*
X41178857Y-101647603D01*
X41109392Y-101889787D01*
X40505000Y-101889787D01*
X40505000Y-98770213D01*
X41109392Y-98770213D01*
X41178857Y-99012397D01*
X41702302Y-99199144D01*
X42257368Y-99171362D01*
X42641143Y-99012397D01*
X42710608Y-98770213D01*
X41910000Y-97969605D01*
X41109392Y-98770213D01*
X40505000Y-98770213D01*
X40505000Y-97665096D01*
X40528638Y-98137368D01*
X40687603Y-98521143D01*
X40929787Y-98590608D01*
X41730395Y-97790000D01*
X42089605Y-97790000D01*
X42890213Y-98590608D01*
X43132397Y-98521143D01*
X43319144Y-97997698D01*
X43291362Y-97442632D01*
X43132397Y-97058857D01*
X42890213Y-96989392D01*
X42089605Y-97790000D01*
X41730395Y-97790000D01*
X40929787Y-96989392D01*
X40687603Y-97058857D01*
X40505000Y-97570687D01*
X40505000Y-96809787D01*
X41109392Y-96809787D01*
X41910000Y-97610395D01*
X42710608Y-96809787D01*
X42641143Y-96567603D01*
X42117698Y-96380856D01*
X41562632Y-96408638D01*
X41178857Y-96567603D01*
X41109392Y-96809787D01*
X40505000Y-96809787D01*
X40505000Y-95720131D01*
X42118132Y-94107000D01*
X42187881Y-94107000D01*
X42701337Y-93894320D01*
X42750657Y-93845000D01*
X88788217Y-93845000D01*
X88900000Y-93867235D01*
X89011783Y-93845000D01*
X89342855Y-93779146D01*
X89718289Y-93528289D01*
X89781613Y-93433518D01*
X97243522Y-85971610D01*
X97338289Y-85908289D01*
X97589146Y-85532855D01*
X97655000Y-85201783D01*
X97655000Y-85201782D01*
X97677235Y-85090001D01*
X97655000Y-84978219D01*
X97655000Y-76200000D01*
X98866887Y-76200000D01*
X98978260Y-76759909D01*
X99295423Y-77234577D01*
X99647758Y-77470000D01*
X99295423Y-77705423D01*
X98978260Y-78180091D01*
X98866887Y-78740000D01*
X98978260Y-79299909D01*
X99295423Y-79774577D01*
X99647758Y-80010000D01*
X99295423Y-80245423D01*
X98978260Y-80720091D01*
X98866887Y-81280000D01*
X98978260Y-81839909D01*
X99295423Y-82314577D01*
X99770091Y-82631740D01*
X100188667Y-82715000D01*
X100471333Y-82715000D01*
X100889909Y-82631740D01*
X101364577Y-82314577D01*
X101681740Y-81839909D01*
X101793113Y-81280000D01*
X101681740Y-80720091D01*
X101364577Y-80245423D01*
X101012242Y-80010000D01*
X101364577Y-79774577D01*
X101681740Y-79299909D01*
X101793113Y-78740000D01*
X101681740Y-78180091D01*
X101364577Y-77705423D01*
X101012242Y-77470000D01*
X101364577Y-77234577D01*
X101681740Y-76759909D01*
X101793113Y-76200000D01*
X101681740Y-75640091D01*
X101364577Y-75165423D01*
X101243894Y-75084785D01*
X101377765Y-75058157D01*
X101587809Y-74917809D01*
X101728157Y-74707765D01*
X101777440Y-74460000D01*
X101777440Y-72860000D01*
X101728157Y-72612235D01*
X101587809Y-72402191D01*
X101377765Y-72261843D01*
X101130000Y-72212560D01*
X99530000Y-72212560D01*
X99282235Y-72261843D01*
X99072191Y-72402191D01*
X98931843Y-72612235D01*
X98882560Y-72860000D01*
X98882560Y-74460000D01*
X98931843Y-74707765D01*
X99072191Y-74917809D01*
X99282235Y-75058157D01*
X99416106Y-75084785D01*
X99295423Y-75165423D01*
X98978260Y-75640091D01*
X98866887Y-76200000D01*
X97655000Y-76200000D01*
X97655000Y-67040474D01*
X98975000Y-67040474D01*
X98975000Y-67579526D01*
X99181286Y-68077546D01*
X99562454Y-68458714D01*
X100060474Y-68665000D01*
X100599526Y-68665000D01*
X101097546Y-68458714D01*
X101478714Y-68077546D01*
X101685000Y-67579526D01*
X101685000Y-67040474D01*
X104055000Y-67040474D01*
X104055000Y-67579526D01*
X104261286Y-68077546D01*
X104642454Y-68458714D01*
X105140474Y-68665000D01*
X105679526Y-68665000D01*
X106177546Y-68458714D01*
X106558714Y-68077546D01*
X106765000Y-67579526D01*
X106765000Y-67040474D01*
X106558714Y-66542454D01*
X106177546Y-66161286D01*
X105679526Y-65955000D01*
X105140474Y-65955000D01*
X104642454Y-66161286D01*
X104261286Y-66542454D01*
X104055000Y-67040474D01*
X101685000Y-67040474D01*
X101478714Y-66542454D01*
X101097546Y-66161286D01*
X100599526Y-65955000D01*
X100060474Y-65955000D01*
X99562454Y-66161286D01*
X99181286Y-66542454D01*
X98975000Y-67040474D01*
X97655000Y-67040474D01*
X97655000Y-64500474D01*
X101515000Y-64500474D01*
X101515000Y-65039526D01*
X101721286Y-65537546D01*
X102102454Y-65918714D01*
X102600474Y-66125000D01*
X103139526Y-66125000D01*
X103637546Y-65918714D01*
X104018714Y-65537546D01*
X104225000Y-65039526D01*
X104225000Y-64500474D01*
X104018714Y-64002454D01*
X103637546Y-63621286D01*
X103139526Y-63415000D01*
X102600474Y-63415000D01*
X102102454Y-63621286D01*
X101721286Y-64002454D01*
X101515000Y-64500474D01*
X97655000Y-64500474D01*
X97655000Y-53810131D01*
X98954529Y-52510603D01*
X98978260Y-52629909D01*
X99295423Y-53104577D01*
X99647758Y-53340000D01*
X99295423Y-53575423D01*
X98978260Y-54050091D01*
X98866887Y-54610000D01*
X98978260Y-55169909D01*
X99295423Y-55644577D01*
X99647758Y-55880000D01*
X99295423Y-56115423D01*
X98978260Y-56590091D01*
X98866887Y-57150000D01*
X98978260Y-57709909D01*
X99295423Y-58184577D01*
X99770091Y-58501740D01*
X100188667Y-58585000D01*
X100471333Y-58585000D01*
X100889909Y-58501740D01*
X101364577Y-58184577D01*
X101681740Y-57709909D01*
X101793113Y-57150000D01*
X101681740Y-56590091D01*
X101364577Y-56115423D01*
X101012242Y-55880000D01*
X101364577Y-55644577D01*
X101681740Y-55169909D01*
X101793113Y-54610000D01*
X101728688Y-54286114D01*
X103354476Y-52660327D01*
X103417929Y-52617929D01*
X103460327Y-52554476D01*
X103460329Y-52554474D01*
X103585903Y-52366538D01*
X103585904Y-52366537D01*
X103630000Y-52144852D01*
X103630000Y-52144848D01*
X103644888Y-52070001D01*
X103630000Y-51995154D01*
X103630000Y-41910000D01*
X106486887Y-41910000D01*
X106598260Y-42469909D01*
X106915423Y-42944577D01*
X107267758Y-43180000D01*
X106915423Y-43415423D01*
X106598260Y-43890091D01*
X106486887Y-44450000D01*
X106598260Y-45009909D01*
X106915423Y-45484577D01*
X107267758Y-45720000D01*
X106915423Y-45955423D01*
X106598260Y-46430091D01*
X106486887Y-46990000D01*
X106598260Y-47549909D01*
X106915423Y-48024577D01*
X107299108Y-48280947D01*
X107094866Y-48377611D01*
X106718959Y-48792577D01*
X106558096Y-49180961D01*
X106680085Y-49403000D01*
X107823000Y-49403000D01*
X107823000Y-49383000D01*
X108077000Y-49383000D01*
X108077000Y-49403000D01*
X109219915Y-49403000D01*
X109341904Y-49180961D01*
X109181041Y-48792577D01*
X108805134Y-48377611D01*
X108600892Y-48280947D01*
X108984577Y-48024577D01*
X109301740Y-47549909D01*
X109413113Y-46990000D01*
X109301740Y-46430091D01*
X108984577Y-45955423D01*
X108632242Y-45720000D01*
X108984577Y-45484577D01*
X109301740Y-45009909D01*
X109413113Y-44450000D01*
X109301740Y-43890091D01*
X108984577Y-43415423D01*
X108632242Y-43180000D01*
X108984577Y-42944577D01*
X109301740Y-42469909D01*
X109413113Y-41910000D01*
X109301740Y-41350091D01*
X108984577Y-40875423D01*
X108509909Y-40558260D01*
X108091333Y-40475000D01*
X107808667Y-40475000D01*
X107390091Y-40558260D01*
X106915423Y-40875423D01*
X106598260Y-41350091D01*
X106486887Y-41910000D01*
X103630000Y-41910000D01*
X103630000Y-40954801D01*
X105724803Y-38860000D01*
X117795199Y-38860000D01*
X125615980Y-46680782D01*
X125603000Y-46712119D01*
X125603000Y-47267881D01*
X125815680Y-47781337D01*
X126208663Y-48174320D01*
X126722119Y-48387000D01*
X127277881Y-48387000D01*
X127791337Y-48174320D01*
X128184320Y-47781337D01*
X128397000Y-47267881D01*
X128397000Y-46712119D01*
X128184320Y-46198663D01*
X127791337Y-45805680D01*
X127277881Y-45593000D01*
X126722119Y-45593000D01*
X126690782Y-45605980D01*
X122716921Y-41632119D01*
X125603000Y-41632119D01*
X125603000Y-42187881D01*
X125815680Y-42701337D01*
X126208663Y-43094320D01*
X126722119Y-43307000D01*
X127277881Y-43307000D01*
X127791337Y-43094320D01*
X128184320Y-42701337D01*
X128397000Y-42187881D01*
X128397000Y-41632119D01*
X128184320Y-41118663D01*
X127791337Y-40725680D01*
X127277881Y-40513000D01*
X126722119Y-40513000D01*
X126208663Y-40725680D01*
X125815680Y-41118663D01*
X125603000Y-41632119D01*
X122716921Y-41632119D01*
X118700331Y-37615530D01*
X118657929Y-37552071D01*
X118406537Y-37384096D01*
X118184852Y-37340000D01*
X118184847Y-37340000D01*
X118110000Y-37325112D01*
X118035153Y-37340000D01*
X105484846Y-37340000D01*
X105409999Y-37325112D01*
X105335152Y-37340000D01*
X105335148Y-37340000D01*
X105113463Y-37384096D01*
X105113461Y-37384097D01*
X105113462Y-37384097D01*
X104925526Y-37509671D01*
X104925524Y-37509673D01*
X104862071Y-37552071D01*
X104819673Y-37615524D01*
X102385528Y-40049671D01*
X102322072Y-40092071D01*
X102279672Y-40155527D01*
X102279671Y-40155528D01*
X102154097Y-40343463D01*
X102095112Y-40640000D01*
X102110001Y-40714852D01*
X102110000Y-51755197D01*
X101792595Y-52072602D01*
X101793113Y-52070000D01*
X101681740Y-51510091D01*
X101364577Y-51035423D01*
X101012242Y-50800000D01*
X101364577Y-50564577D01*
X101681740Y-50089909D01*
X101793113Y-49530000D01*
X101681740Y-48970091D01*
X101364577Y-48495423D01*
X101012242Y-48260000D01*
X101364577Y-48024577D01*
X101681740Y-47549909D01*
X101793113Y-46990000D01*
X101681740Y-46430091D01*
X101364577Y-45955423D01*
X101012242Y-45720000D01*
X101364577Y-45484577D01*
X101681740Y-45009909D01*
X101793113Y-44450000D01*
X101681740Y-43890091D01*
X101364577Y-43415423D01*
X101243894Y-43334785D01*
X101377765Y-43308157D01*
X101587809Y-43167809D01*
X101728157Y-42957765D01*
X101777440Y-42710000D01*
X101777440Y-41110000D01*
X101728157Y-40862235D01*
X101587809Y-40652191D01*
X101377765Y-40511843D01*
X101130000Y-40462560D01*
X99530000Y-40462560D01*
X99282235Y-40511843D01*
X99072191Y-40652191D01*
X98931843Y-40862235D01*
X98882560Y-41110000D01*
X98882560Y-42710000D01*
X98931843Y-42957765D01*
X99072191Y-43167809D01*
X99282235Y-43308157D01*
X99416106Y-43334785D01*
X99295423Y-43415423D01*
X98978260Y-43890091D01*
X98866887Y-44450000D01*
X98978260Y-45009909D01*
X99295423Y-45484577D01*
X99647758Y-45720000D01*
X99295423Y-45955423D01*
X98978260Y-46430091D01*
X98866887Y-46990000D01*
X98978260Y-47549909D01*
X99295423Y-48024577D01*
X99647758Y-48260000D01*
X99295423Y-48495423D01*
X98978260Y-48970091D01*
X98902151Y-49352717D01*
X95796480Y-52458389D01*
X95701712Y-52521711D01*
X95525184Y-52785904D01*
X95450854Y-52897146D01*
X95362765Y-53340000D01*
X95385001Y-53451788D01*
X95385000Y-84619868D01*
X88429869Y-91575000D01*
X42750657Y-91575000D01*
X42701337Y-91525680D01*
X42187881Y-91313000D01*
X41632119Y-91313000D01*
X41118663Y-91525680D01*
X40725680Y-91918663D01*
X40513000Y-92432119D01*
X40513000Y-92501868D01*
X38646480Y-94368389D01*
X38551712Y-94431711D01*
X38366085Y-94709522D01*
X38300854Y-94807146D01*
X38212765Y-95250000D01*
X35710000Y-95250000D01*
X35710000Y-83542119D01*
X39243000Y-83542119D01*
X39243000Y-84097881D01*
X39455680Y-84611337D01*
X39848663Y-85004320D01*
X40362119Y-85217000D01*
X40917881Y-85217000D01*
X41431337Y-85004320D01*
X41824320Y-84611337D01*
X42037000Y-84097881D01*
X42037000Y-83542119D01*
X41824320Y-83028663D01*
X41431337Y-82635680D01*
X40917881Y-82423000D01*
X40362119Y-82423000D01*
X39848663Y-82635680D01*
X39455680Y-83028663D01*
X39243000Y-83542119D01*
X35710000Y-83542119D01*
X35710000Y-78462119D01*
X39243000Y-78462119D01*
X39243000Y-79017881D01*
X39455680Y-79531337D01*
X39848663Y-79924320D01*
X40362119Y-80137000D01*
X40917881Y-80137000D01*
X41431337Y-79924320D01*
X41824320Y-79531337D01*
X42037000Y-79017881D01*
X42037000Y-78462119D01*
X41824320Y-77948663D01*
X41431337Y-77555680D01*
X40917881Y-77343000D01*
X40362119Y-77343000D01*
X39848663Y-77555680D01*
X39455680Y-77948663D01*
X39243000Y-78462119D01*
X35710000Y-78462119D01*
X35710000Y-65762119D01*
X39243000Y-65762119D01*
X39243000Y-66317881D01*
X39455680Y-66831337D01*
X39848663Y-67224320D01*
X40362119Y-67437000D01*
X40917881Y-67437000D01*
X41431337Y-67224320D01*
X41824320Y-66831337D01*
X42037000Y-66317881D01*
X42037000Y-65762119D01*
X41824320Y-65248663D01*
X41431337Y-64855680D01*
X40917881Y-64643000D01*
X40362119Y-64643000D01*
X39848663Y-64855680D01*
X39455680Y-65248663D01*
X39243000Y-65762119D01*
X35710000Y-65762119D01*
X35710000Y-63222119D01*
X53213000Y-63222119D01*
X53213000Y-63777881D01*
X53425680Y-64291337D01*
X53818663Y-64684320D01*
X54332119Y-64897000D01*
X54887881Y-64897000D01*
X55401337Y-64684320D01*
X55605444Y-64480213D01*
X79209392Y-64480213D01*
X79278857Y-64722397D01*
X79802302Y-64909144D01*
X80357368Y-64881362D01*
X80741143Y-64722397D01*
X80810608Y-64480213D01*
X80010000Y-63679605D01*
X79209392Y-64480213D01*
X55605444Y-64480213D01*
X55794320Y-64291337D01*
X56007000Y-63777881D01*
X56007000Y-63292302D01*
X78600856Y-63292302D01*
X78628638Y-63847368D01*
X78787603Y-64231143D01*
X79029787Y-64300608D01*
X79830395Y-63500000D01*
X80189605Y-63500000D01*
X80990213Y-64300608D01*
X81232397Y-64231143D01*
X81419144Y-63707698D01*
X81391362Y-63152632D01*
X81232397Y-62768857D01*
X80990213Y-62699392D01*
X80189605Y-63500000D01*
X79830395Y-63500000D01*
X79029787Y-62699392D01*
X78787603Y-62768857D01*
X78600856Y-63292302D01*
X56007000Y-63292302D01*
X56007000Y-63222119D01*
X55794320Y-62708663D01*
X55605444Y-62519787D01*
X79209392Y-62519787D01*
X80010000Y-63320395D01*
X80810608Y-62519787D01*
X80741143Y-62277603D01*
X80217698Y-62090856D01*
X79662632Y-62118638D01*
X79278857Y-62277603D01*
X79209392Y-62519787D01*
X55605444Y-62519787D01*
X55401337Y-62315680D01*
X54887881Y-62103000D01*
X54332119Y-62103000D01*
X53818663Y-62315680D01*
X53425680Y-62708663D01*
X53213000Y-63222119D01*
X35710000Y-63222119D01*
X35710000Y-60682119D01*
X39243000Y-60682119D01*
X39243000Y-61237881D01*
X39455680Y-61751337D01*
X39848663Y-62144320D01*
X40362119Y-62357000D01*
X40917881Y-62357000D01*
X41431337Y-62144320D01*
X41824320Y-61751337D01*
X42037000Y-61237881D01*
X42037000Y-60682119D01*
X41824320Y-60168663D01*
X41431337Y-59775680D01*
X40917881Y-59563000D01*
X40362119Y-59563000D01*
X39848663Y-59775680D01*
X39455680Y-60168663D01*
X39243000Y-60682119D01*
X35710000Y-60682119D01*
X35710000Y-47982119D01*
X39243000Y-47982119D01*
X39243000Y-48537881D01*
X39455680Y-49051337D01*
X39848663Y-49444320D01*
X40362119Y-49657000D01*
X40917881Y-49657000D01*
X41431337Y-49444320D01*
X41824320Y-49051337D01*
X42037000Y-48537881D01*
X42037000Y-47982119D01*
X41824320Y-47468663D01*
X41431337Y-47075680D01*
X40917881Y-46863000D01*
X40362119Y-46863000D01*
X39848663Y-47075680D01*
X39455680Y-47468663D01*
X39243000Y-47982119D01*
X35710000Y-47982119D01*
X35710000Y-45442119D01*
X53213000Y-45442119D01*
X53213000Y-45997881D01*
X53425680Y-46511337D01*
X53818663Y-46904320D01*
X54332119Y-47117000D01*
X54887881Y-47117000D01*
X55401337Y-46904320D01*
X55605444Y-46700213D01*
X79209392Y-46700213D01*
X79278857Y-46942397D01*
X79802302Y-47129144D01*
X80357368Y-47101362D01*
X80741143Y-46942397D01*
X80810608Y-46700213D01*
X80010000Y-45899605D01*
X79209392Y-46700213D01*
X55605444Y-46700213D01*
X55794320Y-46511337D01*
X56007000Y-45997881D01*
X56007000Y-45512302D01*
X78600856Y-45512302D01*
X78628638Y-46067368D01*
X78787603Y-46451143D01*
X79029787Y-46520608D01*
X79830395Y-45720000D01*
X80189605Y-45720000D01*
X80990213Y-46520608D01*
X81232397Y-46451143D01*
X81419144Y-45927698D01*
X81391362Y-45372632D01*
X81232397Y-44988857D01*
X80990213Y-44919392D01*
X80189605Y-45720000D01*
X79830395Y-45720000D01*
X79029787Y-44919392D01*
X78787603Y-44988857D01*
X78600856Y-45512302D01*
X56007000Y-45512302D01*
X56007000Y-45442119D01*
X55794320Y-44928663D01*
X55605444Y-44739787D01*
X79209392Y-44739787D01*
X80010000Y-45540395D01*
X80810608Y-44739787D01*
X80741143Y-44497603D01*
X80217698Y-44310856D01*
X79662632Y-44338638D01*
X79278857Y-44497603D01*
X79209392Y-44739787D01*
X55605444Y-44739787D01*
X55401337Y-44535680D01*
X54887881Y-44323000D01*
X54332119Y-44323000D01*
X53818663Y-44535680D01*
X53425680Y-44928663D01*
X53213000Y-45442119D01*
X35710000Y-45442119D01*
X35710000Y-42902119D01*
X39243000Y-42902119D01*
X39243000Y-43457881D01*
X39455680Y-43971337D01*
X39848663Y-44364320D01*
X40362119Y-44577000D01*
X40917881Y-44577000D01*
X41431337Y-44364320D01*
X41824320Y-43971337D01*
X42037000Y-43457881D01*
X42037000Y-42902119D01*
X41824320Y-42388663D01*
X41431337Y-41995680D01*
X40917881Y-41783000D01*
X40362119Y-41783000D01*
X39848663Y-41995680D01*
X39455680Y-42388663D01*
X39243000Y-42902119D01*
X35710000Y-42902119D01*
X35710000Y-38782552D01*
X35999182Y-39149377D01*
X36614360Y-39546593D01*
X37325036Y-39723126D01*
X38054578Y-39659940D01*
X38724321Y-39363850D01*
X39262046Y-38866783D01*
X39609770Y-38222336D01*
X39730000Y-37500000D01*
X39729725Y-37464973D01*
X39598164Y-36744614D01*
X39240360Y-36105709D01*
X38798560Y-35710000D01*
X131061796Y-35710000D01*
X130630249Y-36141547D01*
G04 #@! TD*
M02*
