M48
;DRILL file {KiCad (5.0.0)} date 07/28/18 16:03:32
;FORMAT={-:-/ absolute / inch / decimal}
FMAT,2
INCH,TZ
T1C0.0157
T2C0.0300
T3C0.0315
%
G90
G05
M72
T1
X2.55Y-2.15
X2.55Y-2.85
X4.4Y-1.9
X4.5Y-2.45
X4.65Y-2.8
T2
X1.65Y-3.65
X1.65Y-3.85
X1.65Y-4.05
X2.15Y-2.5
X3.15Y-2.5
X3.3Y-5.1
X3.5Y-5.1
X2.Y-5.05
X2.2Y-5.05
X2.4Y-5.05
X1.6Y-1.7
X1.6Y-1.9
X5.Y-1.65
X5.Y-1.85
X5.Y-2.05
X1.6Y-3.1
X1.6Y-3.3
X2.15Y-1.8
X3.15Y-1.8
X2.75Y-5.1
X2.95Y-5.1
X1.6Y-2.4
X1.6Y-2.6
T3
X3.95Y-2.9
X3.95Y-3.
X3.95Y-3.1
X3.95Y-3.2
X4.25Y-2.9
X4.25Y-3.
X4.25Y-3.1
X4.25Y-3.2
X3.95Y-1.65
X3.95Y-1.75
X3.95Y-1.85
X3.95Y-1.95
X3.95Y-2.05
X3.95Y-2.15
X3.95Y-2.25
X4.25Y-1.65
X4.25Y-1.75
X4.25Y-1.85
X4.25Y-1.95
X4.25Y-2.05
X4.25Y-2.15
X4.25Y-2.25
X3.95Y-2.65
X4.05Y-2.55
X4.15Y-2.65
T0
M30
